{
.appVersion = "3228";
.formatVersion = 3;
DisplayStrings = (
"́̋",
"ŐŰőű",
"˝",
"'/caroncomb.alt",
"tť",
"̌ˇ",
"LĽ",
"ď",
"̧",
"ÇŞcçş̧¸",
"¸",
"˙ˆ˜",
"Ĺ",
"ĐDÐ/shortstrokecomb",
"HĦ/shortstrokecomb/longstrokecomb"
);
axes = (
{
name = Weight;
tag = wght;
}
);
customParameters = (
{
name = "Variable Font Origin";
value = m01;
},
{
name = fsType;
value = (
);
},
{
name = blueScale;
value = 0.04;
},
{
name = blueShift;
value = 7;
},
{
name = blueFuzz;
value = 1;
},
{
name = "Use Typo Metrics";
value = 1;
},
{
name = "Axis Mappings";
value = {
wght = {
37 = 200;
51 = 300;
72 = 400;
102 = 500;
143 = 600;
201 = 700;
282 = 800;
};
};
},
{
name = "Use Extension Kerning";
value = 1;
}
);
date = "2023-12-08 19:59:47 +0000";
familyName = Ojuju;
featurePrefixes = (
{
automatic = 1;
code = "languagesystem DFLT dflt;

languagesystem latn dflt;
languagesystem latn CAT;
";
name = Languagesystems;
}
);
features = (
{
automatic = 1;
code = "feature locl;
feature ordn;
feature case;
";
tag = aalt;
},
{
automatic = 1;
code = "script latn;
language CAT;
lookup locl_latn_0 {
	sub l periodcentered' l by periodcentered.loclCAT;
	sub L periodcentered' L by periodcentered.loclCAT.case;
} locl_latn_0;
";
tag = locl;
},
{
automatic = 1;
code = "sub [zero one two three four five six seven eight nine] [A a]' by ordfeminine;
sub [zero one two three four five six seven eight nine] [O o]' by ordmasculine;
";
tag = ordn;
},
{
automatic = 1;
code = "sub periodcentered.loclCAT by periodcentered.loclCAT.case;
";
tag = case;
}
);
fontMaster = (
{
axesValues = (
37
);
guides = (
{
angle = 180;
locked = 1;
pos = (-570,454);
},
{
locked = 1;
pos = (113,436);
},
{
locked = 1;
pos = (113,-8);
},
{
locked = 1;
pos = (113,60);
},
{
locked = 1;
pos = (113,368);
},
{
locked = 1;
pos = (300,244);
},
{
angle = 180;
locked = 1;
pos = (-10,-152);
},
{
angle = 180;
locked = 1;
pos = (-570,739);
},
{
locked = 1;
pos = (116,622);
},
{
locked = 1;
pos = (142,587);
},
{
locked = 1;
pos = (147,551);
},
{
locked = 1;

glyphs = (
{
color = 4;
glyphname = A;
lastChange = "2023-12-08 17:49:25 +0000";
layers = (
{
anchors = (
{
name = bottom;
pos = (330,0);
},
{
name = ogonek;
pos = (628,0);
},
{
name = top;
pos = (329,700);
}
);
layerId = m01;
shapes = (
{
closed = 1;
nodes = (
(116,0,l),
(114,34,o),
(114,60,o),
(118,78,cs),
(128,127,o),
(144,131,o),
(329,131,cs),
(514,131,o),
(530,127,o),
(540,78,cs),
(544,60,o),
(544,34,o),
(542,0,c),
(628,0,l),
(599,216,o),
(582,419,o),
(570,700,c),
(88,700,l),
(76,419,o),
(59,216,o),
(30,0,c)
);
},
{
closed = 1;
nodes = (
(235,347,o),
(202,350,o),
(170,360,cs),
(146,368,o),
(138,379,o),
(138,401,cs),
(138,423,o),
(146,434,o),
(170,442,cs),
(201,452,o),
(237,455,o),
(329,455,cs),
(422,455,o),
(459,452,o),
(490,442,cs),
(511,435,o),
(520,422,o),
(520,401,cs),
(520,380,o),
(510,367,o),
(490,360,cs),
(455,350,o),
(422,347,o),
(329,347,cs)
);
}
);
width = 658;
},
{
anchors = (
{
name = bottom;
pos = (297,0);
},
{
name = ogonek;
pos = (534,0);
},
{
name = top;
pos = (295,700);
}
);
layerId = "60D037D9-62E9-4843-B070-F1594CB0B0D1";
shapes = (
{
closed = 1;
nodes = (
(87,0,l),
(87,19,o),
(92,92,o),
(103,176,cs),
(107,205,o),
(102,211,o),
(319,211,cs),
(478,211,o),
(485,208,o),
(489,182,cs),
(493,154,o),
(499,36,o),
(503,0,c),
(534,0,l),
(503,232,o),
(480,468,o),
(465,700,c),
(125,700,l),
(110,468,o),
(92,232,o),
(56,0,c)
);
},
{
closed = 1;
nodes = (
(118,243,o),
(117,246,o),
(118,276,cs),
(120,331,o),
(127,415,o),
(131,465,cs),
(135,515,o),
(136,585,o),
(145,629,cs),
(148,660,o),
(151,661,o),
(295,661,cs),
(439,661,o),
(442,660,o),
(445,629,cs),
(449,590,o),
(457,514,o),
(461,465,cs),
(465,416,o),
(472,329,o),
(474,276,cs),
(475,246,o),
(474,243,o),
(296,243,cs)
);
}
);
width = 590;
}
);
unicode = 65;
},
{
color = 4;
glyphname = B;
lastChange = "2023-12-08 17:49:25 +0000";
layers = (
{
anchors = (
{
name = bottom;
pos = (339,0);
},
{
name = center;
pos = (339,350);
},
{
name = top;
pos = (339,700);
}
);
background = {
shapes = (
{
pos = (-3,0);
ref = E;
}
);
};
layerId = m01;
shapes = (
{
closed = 1;
nodes = (
(417,0,ls),
(564,0,o),
(631,61,o),
(631,193,cs),
(631,282,o),
(589,346,o),
(500,369,c),
(562,402,o),
(587,448,o),
(587,515,cs),
(587,642,o),
(520,700,o),
(373,700,cs),
(69,700,l),
(73,451,o),
(73,249,o),
(69,0,c)
);
},
{
closed = 1;
nodes = (
(230,237,o),
(195,240,o),
(165,247,cs),
(141,253,o),
(132,262,o),
(132,282,cs),
(132,302,o),
(142,313,o),
(165,318,cs),
(198,326,o),
(237,328,o),
(323,328,cs),
(406,328,o),
(447,326,o),
(479,318,cs),
(503,313,o),
(513,302,o),
(513,282,cs),
(513,263,o),
(504,253,o),
(479,247,cs),
(450,240,o),
(412,237,o),
(323,237,cs)
);
},
{
closed = 1;
nodes = (
(209,390,o),
(190,391,o),
(169,396,cs),
(148,400,o),
(141,408,o),
(141,423,cs),
(141,438,o),
(148,444,o),
(169,449,cs),
(191,454,o),
(217,455,o),
(312,455,cs),
(404,455,o),
(434,453,o),
(455,449,cs),
(476,444,o),
(483,438,o),
(483,423,cs),
(483,408,o),
(476,400,o),
(455,396,cs),
(436,391,o),
(413,390,o),
(312,390,cs)
);
}
);
width = 671;
},
{
anchors = (
{
name = bottom;
pos = (322,0);
},
{
name = center;
pos = (322,350);
},
{
name = top;
pos = (322,700);
}
);
background = {
shapes = (
{
pos = (11,0);
ref = H;
}
);
};
layerId = "60D037D9-62E9-4843-B070-F1594CB0B0D1";
shapes = (
{
closed = 1;
nodes = (
(348,0,ls),
(469,0,o),
(551,78,o),
(551,188,cs),
(551,277,o),
(498,343,o),
(413,365,c),
(475,399,o),
(510,458,o),
(510,526,cs),
(510,629,o),
(430,700,o),
(311,700,cs),
(84,700,l),
(86,482,o),
(86,218,o),
(84,0,c)
);
},
{
closed = 1;
nodes = (
(134,39,o),
(123,42,o),
(116,64,cs),
(110,83,o),
(109,109,o),
(109,193,cs),
(109,277,o),
(110,310,o),
(112,323,cs),
(116,346,o),
(129,348,o),
(236,348,cs),
(390,348,o),
(435,339,o),
(473,311,cs),
(508,285,o),
(529,240,o),
(529,189,cs),
(529,127,o),
(496,77,o),
(440,54,cs),
(410,42,o),
(369,39,o),
(236,39,cs)
);
},
{
closed = 1;
nodes = (
(124,381,o),
(113,383,o),
(110,403,cs),
(108,416,o),
(107,446,o),
(107,521,cs),
(107,595,o),
(109,625,o),
(114,641,cs),
(120,659,o),
(131,661,o),
(236,661,cs),
(343,661,o),
(385,658,o),
(413,647,cs),
(460,628,o),
(488,584,o),
(488,527,cs),
(488,479,o),
(470,436,o),
(440,414,cs),
(406,389,o),
(364,381,o),
(236,381,cs)
);
}
);
width = 591;
}
);
metricLeft = H;
unicode = 66;
},
{
color = 4;
glyphname = C;
lastChange = "2023-12-08 17:49:25 +0000";
layers = (
{
anchors = (
{
name = bottom;
pos = (328,0);
},
{
name = top;
pos = (342,700);
}
);
background = {
shapes = (
{
ref = O;
}
);
};
layerId = m01;
shapes = (
{
closed = 1;
nodes = (
(431,-8,o),
(521,2,o),
(578,24,c),
(578,276,l),
(532,258,o),
(462,245,o),
(340,245,cs),
(168,245,o),
(112,271,o),
(112,350,cs),
(112,430,o),
(169,455,o),
(345,455,cs),
(461,455,o),
(543,444,o),
(578,426,c),
(578,686,l),
(541,700,o),
(449,710,o),
(381,710,cs),
(152,710,o),
(42,596,o),
(42,349,cs),
(42,108,o),
(147,-8,o),
(367,-8,cs)
);
}
);
width = 620;
},
{
anchors = (
{
name = bottom;
pos = (352,0);
},
{
name = top;
pos = (348,700);
}
);
background = {
shapes = (
{
pos = (2,0);
ref = O;
}
);
};
layerId = "60D037D9-62E9-4843-B070-F1594CB0B0D1";
shapes = (
{
closed = 1;
nodes = (
(435,-8,o),
(495,7,o),
(527,21,c),
(527,67,l),
(486,45,o),
(421,29,o),
(363,29,cs),
(201,29,o),
(95,156,o),
(95,351,cs),
(95,546,o),
(201,673,o),
(363,673,cs),
(423,673,o),
(488,656,o),
(527,634,c),
(527,681,l),
(495,695,o),
(435,710,o),
(374,710,cs),
(188,710,o),
(72,572,o),
(72,351,cs),
(72,130,o),
(188,-8,o),
(374,-8,cs)
);
}
);
width = 581;
}
);
metricLeft = O;
unicode = 67;
},
{
color = 4;
glyphname = D;
lastChange = "2023-12-08 19:53:13 +0000";
layers = (
{
anchors = (
{
name = bottom;
pos = (349,0);
},
{
name = center;
pos = (107,350);
},
{
name = top;
pos = (349,700);
}
);
background = {
shapes = (
{
pos = (697,0);
ref = E;
scale = (-1,1);
}
);
};
layerId = m01;
shapes = (
{
closed = 1;
nodes = (
(356,0,l),
(455,0,o),
(499,4,o),
(548,48,cs),
(607,101,o),
(632,156,o),
(632,349,cs),
(632,543,o),
(607,594,o),
(548,647,cs),
(499,691,o),
(449,700,o),
(356,700,cs),
(69,700,l),
(73,451,o),
(73,249,o),
(69,0,c)
);
},
{
closed = 1;
nodes = (
(220,233,o),
(189,233,o),
(160,256,cs),
(139,274,o),
(135,292,o),
(135,349,cs),
(135,406,o),
(139,426,o),
(160,444,cs),
(189,467,o),
(220,467,o),
(349,467,cs),
(477,467,o),
(512,467,o),
(540,444,cs),
(560,426,o),
(565,406,o),
(565,349,cs),
(565,292,o),
(561,274,o),
(540,256,cs),
(512,233,o),
(477,233,o),
(349,233,cs)
);
}
);
width = 674;
},
{
anchors = (
{
name = bottom;
pos = (307,0);
},
{
name = center;
pos = (96,350);
},
{
name = top;
pos = (307,700);
}
);
background = {
shapes = (
{
pos = (3,0);
ref = H;
}
);
};
layerId = "60D037D9-62E9-4843-B070-F1594CB0B0D1";
shapes = (
{
closed = 1;
nodes = (
(231,0,ls),
(365,0,o),
(437,33,o),
(486,116,cs),
(523,179,o),
(531,265,o),
(531,352,cs),
(531,438,o),
(523,523,o),
(487,585,cs),
(438,667,o),
(365,700,o),
(231,700,cs),
(84,700,l),
(85,437,o),
(85,263,o),
(84,0,c)
);
},
{
closed = 1;
nodes = (
(145,40,o),
(129,43,o),
(118,53,cs),
(108,62,o),
(107,77,o),
(107,352,cs),
(107,608,o),
(111,642,o),
(118,649,cs),
(127,658,o),
(138,660,o),
(269,660,cs),
(392,660,o),
(440,620,o),
(470,566,cs),
(503,506,o),
(509,426,o),
(509,351,cs),
(509,276,o),
(503,198,o),
(470,138,cs),
(439,82,o),
(387,40,o),
(269,40,cs)
);
}
);
width = 603;
}
);
metricLeft = H;
metricRight = O;
unicode = 68;
},
{
color = 4;
glyphname = E;
lastChange = "2023-12-08 17:49:25 +0000";
layers = (
{
anchors = (
{
name = bottom;
pos = (291,0);
},
{
name = ogonek;
pos = (497,0);
},
{
name = top;
pos = (291,700);
},
{
name = topleft;
pos = (81,700);
}
);
background = {
shapes = (
{
pos = (4,0);
ref = H;
}
);
};
layerId = "60D037D9-62E9-4843-B070-F1594CB0B0D1";
shapes = (
{
closed = 1;
nodes = (
(497,0,l),
(497,41,l),
(443,41,o),
(352,40,o),
(274,40,cs),
(118,40,o),
(117,40,o),
(112,70,cs),
(110,83,o),
(107,139,o),
(107,191,cs),
(107,236,o),
(105,331,o),
(109,340,cs),
(115,353,o),
(114,353,o),
(274,353,cs),
(387,353,o),
(409,353,o),
(457,352,c),
(457,386,l),
(409,385,o),
(387,385,o),
(274,384,cs),
(116,383,o),
(115,383,o),
(110,396,cs),
(106,406,o),
(107,498,o),
(107,539,cs),
(107,611,o),
(110,639,o),
(117,650,cs),
(125,663,o),
(146,662,o),
(274,662,cs),
(352,662,o),
(446,662,o),
(496,662,c),
(497,700,l),
(84,700,l),
(86,466,o),
(86,234,o),
(84,0,c)
);
}
);
width = 531;
},
{
anchors = (
{
name = bottom;
pos = (339,0);
},
{
name = ogonek;
pos = (585,0);
},
{
name = top;
pos = (339,700);
},
{
name = topleft;
pos = (69,700);
}
);
layerId = m01;
shapes = (
{
closed = 1;
nodes = (
(585,0,l),
(582,249,l),
(572,248,o),
(438,247,o),
(299,247,cs),
(206,247,o),
(178,251,o),
(160,256,cs),
(144,261,o),
(132,270,o),
(132,285,cs),
(132,300,o),
(144,308,o),
(160,313,cs),
(178,318,o),
(206,322,o),
(299,322,cs),
(352,322,o),
(533,319,o),
(555,318,c),
(555,394,l),
(533,393,o),
(352,390,o),
(299,390,cs),
(198,390,o),
(176,393,o),
(155,399,cs),
(139,403,o),
(132,413,o),
(132,423,cs),
(132,433,o),
(139,442,o),
(155,447,cs),
(176,452,o),
(198,455,o),
(299,455,cs),
(438,455,o),
(572,453,o),
(582,452,c),
(585,700,l),
(69,700,l),
(73,451,o),
(73,249,o),
(69,0,c)
);
}
);
width = 627;
}
);
metricLeft = H;
unicode = 69;
},
{
color = 4;
glyphname = F;
lastChange = "2023-12-08 17:49:25 +0000";
layers = (
{
anchors = (
{
name = bottom;
pos = (325,0);
},
{
name = top;
pos = (325,700);
}
);
background = {
shapes = (
{
pos = (7,0);
ref = E;
}
);
};
layerId = m01;
shapes = (
{
closed = 1;
nodes = (
(161,0,l),
(155,83,o),
(151,164,o),
(151,203,cs),
(151,288,o),
(171,299,o),
(310,299,cs),
(346,299,o),
(527,296,o),
(549,295,c),
(549,379,l),
(527,378,o),
(346,375,o),
(310,375,cs),
(239,375,o),
(205,375,o),
(178,381,cs),
(152,387,o),
(145,403,o),
(145,415,cs),
(145,427,o),
(152,442,o),
(177,448,cs),
(205,455,o),
(239,455,o),
(310,455,cs),
(341,455,o),
(435,455,o),
(573,453,c),
(576,699,l),
(69,701,l),
(73,452,o),
(73,249,o),
(69,0,c)
);
}
);
width = 623;
},
{
anchors = (
{
name = bottom;
pos = (310,0);
},
{
name = top;
pos = (310,700);
}
);
background = {
shapes = (
{
pos = (10,0);
ref = E;
}
);
};
layerId = "60D037D9-62E9-4843-B070-F1594CB0B0D1";
shapes = (
{
closed = 1;
nodes = (
(115,0,l),
(111,81,o),
(106,310,o),
(110,319,cs),
(116,332,o),
(115,332,o),
(275,332,cs),
(382,332,o),
(402,332,o),
(448,331,c),
(448,365,l),
(402,364,o),
(382,364,o),
(275,363,cs),
(116,362,o),
(115,362,o),
(110,375,cs),
(106,385,o),
(107,498,o),
(107,538,cs),
(107,607,o),
(109,638,o),
(118,651,cs),
(126,663,o),
(150,662,o),
(275,662,cs),
(353,662,o),
(447,662,o),
(498,662,c),
(498,700,l),
(84,700,l),
(86,466,o),
(86,234,o),
(84,0,c)
);
}
);
width = 516;
}
);
metricLeft = H;
unicode = 70;
},
{
color = 4;
glyphname = G;
lastChange = "2023-12-08 17:49:25 +0000";
layers = (
{
anchors = (
{
name = bottom;
pos = (354,0);
},
{
name = top;
pos = (357,700);
}
);
background = {
shapes = (
{
ref = C;
}
);
};
layerId = m01;
shapes = (
{
closed = 1;
nodes = (
(461,-8,o),
(550,3,o),
(591,32,c),
(593,145,o),
(597,251,o),
(603,361,c),
(511,361,l),
(514,338,o),
(518,278,o),
(518,252,c),
(475,246,o),
(400,245,o),
(315,245,cs),
(167,245,o),
(117,274,o),
(117,349,cs),
(117,426,o),
(167,455,o),
(315,455,cs),
(443,455,o),
(576,443,o),
(592,425,c),
(592,680,l),
(558,701,o),
(464,710,o),
(397,710,cs),
(154,710,o),
(42,598,o),
(42,354,cs),
(42,106,o),
(138,-8,o),
(394,-8,cs)
);
}
);
width = 645;
},
{
anchors = (
{
name = bottom;
pos = (340,0);
},
{
name = top;
pos = (349,700);
}
);
background = {
shapes = (
{
pos = (18,0);
ref = C;
}
);
};
layerId = "60D037D9-62E9-4843-B070-F1594CB0B0D1";
shapes = (
{
closed = 1;
nodes = (
(430,-8,o),
(511,8,o),
(545,26,c),
(545,196,o),
(546,253,o),
(548,295,c),
(508,295,l),
(513,254,o),
(518,114,o),
(516,56,c),
(491,41,o),
(422,29,o),
(369,29,cs),
(188,29,o),
(95,169,o),
(95,349,cs),
(95,544,o),
(204,673,o),
(367,673,cs),
(421,673,o),
(477,659,o),
(537,632,c),
(537,682,l),
(488,700,o),
(429,710,o),
(379,710,cs),
(192,710,o),
(72,569,o),
(72,352,cs),
(72,140,o),
(186,-8,o),
(370,-8,cs)
);
}
);
width = 620;
}
);
metricLeft = C;
metricRight = O;
unicode = 71;
},
{
color = 4;
glyphname = H;
lastChange = "2023-12-08 19:56:57 +0000";
layers = (
{
anchors = (
{
name = bottom;
pos = (366,0);
},
{
name = center;
pos = (366,588);
},
{
name = top;
pos = (366,700);
},
{
name = topleft;
pos = (30,700);
}
);
background = {
shapes = (
{
pos = (19,0);
ref = O;
}
);
};
layerId = m01;
shapes = (
{
closed = 1;
nodes = (
(159,0,l),
(156,69,o),
(156,83,o),
(156,121,cs),
(156,214,o),
(171,222,o),
(366,222,cs),
(561,222,o),
(576,214,o),
(576,121,cs),
(576,83,o),
(576,69,o),
(573,0,c),
(663,0,l),
(654,249,o),
(654,451,o),
(663,700,c),
(573,700,l),
(576,621,o),
(578,593,o),
(578,563,cs),
(578,514,o),
(563,510,o),
(366,510,cs),
(169,510,o),
(154,514,o),
(154,563,cs),
(154,593,o),
(156,621,o),
(159,700,c),
(69,700,l),
(78,451,o),
(78,249,o),
(69,0,c)
);
}
);
width = 732;
},
{
anchors = (
{
name = bottom;
pos = (323,0);
},
{
name = center;
pos = (323,519);
},
{
name = top;
pos = (323,700);
},
{
name = topleft;
pos = (42,700);
}
);
background = {
shapes = (
{
pos = (5,0);
ref = O;
},
{
pos = (7,0);
ref = E;
}
);
};
layerId = "60D037D9-62E9-4843-B070-F1594CB0B0D1";
shapes = (
{
closed = 1;
nodes = (
(116,0,l),
(111,81,o),
(111,133,o),
(111,319,cs),
(111,350,o),
(124,350,o),
(323,350,cs),
(522,350,o),
(535,350,o),
(535,319,cs),
(535,133,o),
(535,81,o),
(530,0,c),
(562,0,l),
(554,233,o),
(554,467,o),
(562,700,c),
(530,700,l),
(534,600,o),
(534,519,o),
(535,419,cs),
(535,388,o),
(522,388,o),
(323,388,cs),
(124,388,o),
(111,388,o),
(111,419,cs),
(112,519,o),
(112,600,o),
(116,700,c),
(84,700,l),
(92,467,o),
(92,233,o),
(84,0,c)
);
}
);
width = 646;
}
);
unicode = 72;
},
{
color = 4;
glyphname = I;
lastChange = "2023-12-08 19:31:21 +0000";
layers = (
{
anchors = (
{
name = bottom;
pos = (240,0);
},
{
name = ogonek;
pos = (297,0);
},
{
name = top;
pos = (240,700);
},
{
name = topleft;
pos = (13,700);
}
);
background = {
shapes = (
{
pos = (-107,0);
ref = O;
}
);
};
layerId = m01;
shapes = (
{
closed = 1;
nodes = (
(437,0,l),
(437,221,l),
(340,221,o),
(318,226,o),
(301,234,cs),
(278,245,o),
(277,262,o),
(277,329,cs),
(277,419,o),
(281,432,o),
(301,445,cs),
(318,456,o),
(348,458,o),
(437,456,c),
(437,700,l),
(42,700,l),
(42,456,l),
(131,458,o),
(162,456,o),
(178,445,cs),
(198,432,o),
(202,419,o),
(202,329,cs),
(202,262,o),
(201,245,o),
(178,234,cs),
(161,226,o),
(139,221,o),
(42,221,c),
(42,0,l)
);
}
);
width = 479;
},
{
anchors = (
{
name = bottom;
pos = (193,0);
},
{
name = ogonek;
pos = (222,0);
},
{
name = top;
pos = (193,700);
},
{
name = topleft;
pos = (72,700);
}
);
background = {
shapes = (
{
pos = (93,0);
ref = E;
}
);
};
layerId = "60D037D9-62E9-4843-B070-F1594CB0B0D1";
shapes = (
{
closed = 1;
nodes = (
(314,0,l),
(314,38,l),
(233,38,o),
(225,39,o),
(216,45,cs),
(204,53,o),
(204,66,o),
(204,351,cs),
(204,636,o),
(204,649,o),
(216,657,cs),
(225,663,o),
(233,664,o),
(314,664,c),
(314,700,l),
(72,700,l),
(72,664,l),
(153,664,o),
(161,663,o),
(170,657,cs),
(182,649,o),
(182,636,o),
(182,351,cs),
(182,66,o),
(182,53,o),
(170,45,cs),
(161,39,o),
(153,38,o),
(72,38,c),
(72,0,l)
);
}
);
width = 386;
}
);
metricLeft = O;
metricRight = O;
unicode = 73;
},
{
color = 4;
glyphname = J;
lastChange = "2023-12-08 17:49:25 +0000";
layers = (
{
anchors = (
{
name = bottom;
pos = (271,0);
},
{
name = top;
pos = (271,700);
}
);
layerId = m01;
shapes = (
{
closed = 1;
nodes = (
(329,-16,o),
(381,43,o),
(381,190,cs),
(381,386,ls),
(381,426,o),
(395,444,o),
(418,449,cs),
(445,455,o),
(456,454,o),
(521,455,c),
(521,700,l),
(107,700,l),
(107,455,l),
(223,454,o),
(250,457,o),
(273,449,cs),
(296,441,o),
(306,426,o),
(306,386,cs),
(306,328,o),
(305,291,o),
(299,266,cs),
(290,231,o),
(270,223,o),
(229,223,cs),
(157,223,o),
(91,245,o),
(42,261,c),
(42,14,l),
(69,4,o),
(105,-16,o),
(221,-16,cs)
);
}
);
width = 553;
},
{
anchors = (
{
name = bottom;
pos = (262,0);
},
{
name = top;
pos = (285,700);
}
);
layerId = "60D037D9-62E9-4843-B070-F1594CB0B0D1";
shapes = (
{
closed = 1;
nodes = (
(270,-16,o),
(298,38,o),
(297,196,cs),
(296,386,ls),
(295,639,o),
(297,649,o),
(308,657,cs),
(317,663,o),
(325,664,o),
(406,664,c),
(406,700,l),
(164,700,l),
(164,664,l),
(245,664,o),
(253,663,o),
(262,657,cs),
(274,649,o),
(274,636,o),
(274,386,cs),
(274,241,o),
(274,167,o),
(267,119,cs),
(258,58,o),
(236,22,o),
(167,22,cs),
(125,22,o),
(94,35,o),
(72,44,c),
(72,1,l),
(100,-9,o),
(126,-16,o),
(164,-16,cs)
);
}
);
width = 467;
}
);
metricLeft = O;
unicode = 74;
},
{
color = 4;
glyphname = K;
lastChange = "2023-12-08 19:16:15 +0000";
layers = (
{
anchors = (
{
name = bottom;
pos = (285,0);
},
{
name = top;
pos = (285,700);
}
);
background = {
shapes = (
{
pos = (-5,0);
ref = H;
}
);
};
layerId = "60D037D9-62E9-4843-B070-F1594CB0B0D1";
shapes = (
{
closed = 1;
nodes = (
(116,0,l),
(112,107,o),
(110,213,o),
(110,319,cs),
(110,346,o),
(128,351,o),
(230,351,cs),
(338,351,o),
(342,342,o),
(360,307,cs),
(451,135,o),
(481,82,o),
(513,0,c),
(557,0,l),
(467,164,o),
(367,316,o),
(367,371,cs),
(367,428,o),
(476,611,o),
(505,700,c),
(469,700,l),
(445,621,o),
(402,526,o),
(355,426,cs),
(339,393,o),
(325,385,o),
(229,385,cs),
(129,385,o),
(110,390,o),
(110,418,cs),
(110,512,o),
(113,606,o),
(116,700,c),
(84,700,l),
(92,467,o),
(92,233,o),
(84,0,c)
);
}
);
width = 569;
},
{
anchors = (
{
name = bottom;
pos = (330,0);
},
{
name = top;
pos = (330,700);
}
);
background = {
shapes = (
{
pos = (-3,0);
ref = H;
}
);
};
layerId = m01;
shapes = (
{
closed = 1;
nodes = (
(156,0,l),
(152,92,o),
(151,159,o),
(159,186,cs),
(167,212,o),
(193,219,o),
(300,221,cs),
(403,223,o),
(448,217,o),
(470,174,cs),
(519,80,o),
(529,46,o),
(541,0,c),
(659,0,l),
(577,174,o),
(496,298,o),
(496,365,cs),
(496,439,o),
(601,615,o),
(620,700,c),
(522,700,l),
(512,649,o),
(489,589,o),
(468,551,cs),
(447,513,o),
(418,511,o),
(295,511,cs),
(208,511,o),
(177,512,o),
(162,527,cs),
(150,539,o),
(150,559,o),
(157,700,c),
(69,700,l),
(80,467,o),
(80,233,o),
(69,0,c)
);
}
);
width = 659;
}
);
metricLeft = H;
unicode = 75;
},
{
color = 4;
glyphname = L;
lastChange = "2023-12-08 19:39:58 +0000";
layers = (
{
anchors = (
{
name = bottom;
pos = (272,0);
},
{
name = center;
pos = (272,350);
},
{
name = top;
pos = (272,700);
},
{
name = topright;
pos = (402,700);
}
);
background = {
shapes = (
{
pos = (7,0);
ref = E;
}
);
};
layerId = m01;
shapes = (
{
closed = 1;
nodes = (
(505,0,l),
(502,238,l),
(473,236,o),
(318,235,o),
(288,235,cs),
(187,235,o),
(167,247,o),
(166,286,cs),
(165,317,o),
(166,482,o),
(180,701,c),
(69,701,l),
(73,503,o),
(73,198,o),
(69,0,c)
);
}
);
width = 552;
},
{
anchors = (
{
name = bottom;
pos = (260,0);
},
{
name = center;
pos = (260,350);
},
{
name = top;
pos = (260,700);
},
{
name = topright;
pos = (361,700);
}
);
background = {
shapes = (
{
ref = E;
}
);
};
layerId = "60D037D9-62E9-4843-B070-F1594CB0B0D1";
shapes = (
{
closed = 1;
nodes = (
(409,0,l),
(409,43,l),
(292,41,o),
(242,41,o),
(167,42,cs),
(114,43,o),
(113,48,o),
(111,138,cs),
(107,338,o),
(110,477,o),
(115,701,c),
(84,701,l),
(88,563,o),
(88,138,o),
(86,0,c)
);
}
);
width = 427;
}
);
metricLeft = H;
metricRight = F;
unicode = 76;
},
{
color = 4;
glyphname = M;
lastChange = "2023-12-08 17:50:40 +0000";
layers = (
{
anchors = (
{
name = bottom;
pos = (428,0);
},
{
name = top;
pos = (428,700);
}
);
background = {
shapes = (
{
pos = (69,0);
ref = H;
}
);
};
layerId = m01;
shapes = (
{
closed = 1;
nodes = (
(161,0,l),
(153,97,o),
(149,192,o),
(149,259,cs),
(149,298,o),
(153,313,o),
(168,326,cs),
(178,336,o),
(201,339,o),
(234,339,cs),
(268,339,o),
(290,338,o),
(308,322,cs),
(335,296,o),
(340,271,o),
(376,0,c),
(480,0,l),
(516,271,o),
(521,296,o),
(548,322,cs),
(566,338,o),
(572,339,o),
(622,339,cs),
(664,339,o),
(678,336,o),
(688,326,cs),
(703,313,o),
(707,298,o),
(707,259,cs),
(707,192,o),
(703,97,o),
(695,0,c),
(787,0,l),
(783,117,o),
(781,233,o),
(781,350,cs),
(781,467,o),
(783,584,o),
(787,700,c),
(489,700,l),
(472,381,o),
(467,353,o),
(428,353,cs),
(389,353,o),
(384,381,o),
(367,700,c),
(69,700,l),
(73,584,o),
(75,467,o),
(75,350,cs),
(75,233,o),
(73,117,o),
(69,0,c)
);
}
);
width = 856;
},
{
anchors = (
{
name = bottom;
pos = (383,0);
},
{
name = top;
pos = (383,700);
}
);
layerId = "60D037D9-62E9-4843-B070-F1594CB0B0D1";
shapes = (
{
closed = 1;
nodes = (
(117,0,l),
(115,207,o),
(112,349,o),
(112,446,cs),
(112,559,o),
(113,615,o),
(117,635,cs),
(121,657,o),
(136,660,o),
(177,660,cs),
(218,660,o),
(234,657,o),
(243,620,cs),
(252,584,o),
(321,235,o),
(341,134,c),
(425,134,l),
(450,257,o),
(507,544,o),
(523,620,cs),
(530,654,o),
(544,660,o),
(593,660,cs),
(636,660,o),
(647,655,o),
(651,635,cs),
(655,615,o),
(656,569,o),
(656,447,cs),
(656,350,o),
(654,207,o),
(652,0,c),
(685,0,l),
(681,117,o),
(678,223,o),
(678,372,cs),
(678,458,o),
(679,584,o),
(681,700,c),
(513,700,l),
(413,174,o),
(413,174,o),
(383,174,cs),
(353,174,o),
(353,174,o),
(253,700,c),
(88,700,l),
(90,584,o),
(91,458,o),
(91,372,cs),
(91,223,o),
(88,117,o),
(84,0,c)
);
}
);
width = 769;
}
);
metricLeft = H;
metricRight = H;
unicode = 77;
},
{
color = 4;
glyphname = N;
lastChange = "2023-12-08 17:49:25 +0000";
layers = (
{
anchors = (
{
name = bottom;
pos = (325,0);
},
{
name = top;
pos = (325,700);
}
);
layerId = m01;
shapes = (
{
closed = 1;
nodes = (
(162,0,l),
(153,102,o),
(147,177,o),
(147,229,cs),
(147,276,o),
(149,295,o),
(154,317,cs),
(161,342,o),
(177,349,o),
(232,349,cs),
(281,349,o),
(301,342,o),
(323,316,cs),
(356,276,o),
(366,259,o),
(447,0,c),
(614,0,l),
(610,280,o),
(610,420,o),
(614,700,c),
(524,700,l),
(534,601,o),
(539,530,o),
(540,491,cs),
(542,403,o),
(536,383,o),
(475,383,cs),
(439,383,o),
(424,391,o),
(405,426,cs),
(378,477,o),
(357,534,o),
(310,700,c),
(69,700,l),
(73,420,o),
(73,280,o),
(69,0,c)
);
}
);
width = 683;
},
{
anchors = (
{
name = bottom;
pos = (315,0);
},
{
name = top;
pos = (315,700);
}
);
layerId = "60D037D9-62E9-4843-B070-F1594CB0B0D1";
shapes = (
{
closed = 1;
nodes = (
(116,0,l),
(112,83,o),
(112,113,o),
(112,312,cs),
(112,561,o),
(109,571,o),
(112,610,cs),
(114,653,o),
(124,662,o),
(172,662,cs),
(220,662,o),
(234,652,o),
(246,611,cs),
(332,305,o),
(350,240,o),
(423,0,c),
(564,0,l),
(562,313,o),
(562,461,o),
(567,700,c),
(535,700,l),
(539,461,o),
(541,308,o),
(541,101,cs),
(541,48,o),
(532,35,o),
(494,35,cs),
(451,35,o),
(438,44,o),
(424,87,cs),
(394,178,o),
(316,447,o),
(247,700,c),
(87,700,l),
(89,447,o),
(91,276,o),
(84,0,c)
);
}
);
width = 651;
}
);
metricLeft = H;
metricRight = H;
unicode = 78;
},
{
color = 4;
glyphname = O;
lastChange = "2023-12-08 18:49:43 +0000";
layers = (
{
anchors = (
{
name = bottom;
pos = (347,0);
},
{
name = center;
pos = (347,350);
},
{
name = ogonek;
pos = (625,10);
},
{
name = top;
pos = (347,700);
},
{
name = topleft;
pos = (20,700);
},
{
name = topright;
pos = (546,621);
}
);
layerId = m01;
shapes = (
{
closed = 1;
nodes = (
(566,-10,o),
(652,95,o),
(652,350,cs),
(652,605,o),
(565,710,o),
(347,710,cs),
(129,710,o),
(42,605,o),
(42,350,cs),
(42,95,o),
(128,-10,o),
(347,-10,cs)
);
},
{
closed = 1;
nodes = (
(168,245,o),
(109,271,o),
(109,350,cs),
(109,429,o),
(168,455,o),
(347,455,cs),
(526,455,o),
(585,429,o),
(585,350,cs),
(585,271,o),
(526,245,o),
(347,245,cs)
);
}
);
width = 694;
},
{
anchors = (
{
name = bottom;
pos = (340,0);
},
{
name = center;
pos = (340,350);
},
{
name = ogonek;
pos = (612,10);
},
{
name = top;
pos = (340,700);
},
{
name = topleft;
pos = (20,700);
},
{
name = topright;
pos = (510,630);
}
);
layerId = "60D037D9-62E9-4843-B070-F1594CB0B0D1";
shapes = (
{
closed = 1;
nodes = (
(510,-10,o),
(608,114,o),
(608,353,cs),
(608,592,o),
(510,716,o),
(340,716,cs),
(170,716,o),
(72,592,o),
(72,353,cs),
(72,114,o),
(170,-10,o),
(340,-10,cs)
);
},
{
closed = 1;
nodes = (
(188,29,o),
(94,143,o),
(94,353,cs),
(94,563,o),
(188,677,o),
(340,677,cs),
(492,677,o),
(586,563,o),
(586,353,cs),
(586,143,o),
(492,29,o),
(340,29,cs)
);
}
);
width = 680;
}
);
unicode = 79;
},
{
color = 4;
glyphname = P;
lastChange = "2023-12-08 17:49:25 +0000";
layers = (
{
anchors = (
{
name = bottom;
pos = (320,0);
},
{
name = top;
pos = (320,700);
}
);
background = {
shapes = (
{
pos = (0,-12);
ref = R.ss10;
}
);
};
layerId = m01;
shapes = (
{
closed = 1;
nodes = (
(162,0,l),
(159,69,o),
(155,123,o),
(161,164,cs),
(167,203,o),
(194,209,o),
(352,209,cs),
(503,209,o),
(637,232,o),
(637,455,cs),
(637,604,o),
(553,699,o),
(420,699,cs),
(70,700,l),
(74,451,o),
(73,249,o),
(69,0,c)
);
},
{
closed = 1;
nodes = (
(254,285,o),
(206,293,o),
(179,307,cs),
(152,319,o),
(144,345,o),
(144,370,cs),
(144,395,o),
(152,420,o),
(179,434,cs),
(206,446,o),
(254,455,o),
(331,455,cs),
(418,455,o),
(465,446,o),
(492,434,cs),
(519,420,o),
(527,395,o),
(527,370,cs),
(527,345,o),
(519,319,o),
(492,307,cs),
(465,293,o),
(418,285,o),
(331,285,cs)
);
}
);
width = 684;
},
{
anchors = (
{
name = bottom;
pos = (309,0);
},
{
name = top;
pos = (309,700);
}
);
layerId = "60D037D9-62E9-4843-B070-F1594CB0B0D1";
shapes = (
{
closed = 1;
nodes = (
(113,0,l),
(109,98,o),
(106,264,o),
(115,282,cs),
(121,293,o),
(141,293,o),
(268,293,cs),
(460,293,o),
(530,347,o),
(530,494,cs),
(530,627,o),
(451,698,o),
(300,699,cs),
(85,701,l),
(92,384,o),
(89,317,o),
(84,0,c)
);
},
{
closed = 1;
nodes = (
(155,330,o),
(123,333,o),
(115,344,cs),
(109,352,o),
(108,374,o),
(108,496,cs),
(108,614,o),
(109,636,o),
(115,646,cs),
(123,660,o),
(134,661,o),
(296,661,cs),
(387,661,o),
(438,646,o),
(470,610,cs),
(495,581,o),
(508,542,o),
(508,497,cs),
(508,448,o),
(494,400,o),
(471,373,cs),
(441,340,o),
(395,330,o),
(260,330,cs)
);
}
);
width = 548;
}
);
metricLeft = H;
metricRight = F;
unicode = 80;
},
{
color = 4;
glyphname = Q;
lastChange = "2023-12-08 17:49:25 +0000";
layers = (
{
anchors = (
{
name = bottom;
pos = (300,0);
},
{
name = top;
pos = (300,700);
}
);
background = {
shapes = (
{
ref = O;
}
);
};
layerId = m01;
shapes = (
{
closed = 1;
nodes = (
(556,-235,o),
(607,-223,o),
(621,-216,c),
(621,-16,l),
(611,-19,o),
(549,-50,o),
(496,-50,cs),
(429,-50,o),
(395,-34,o),
(386,-9,c),
(568,6,o),
(652,95,o),
(652,350,cs),
(652,605,o),
(565,710,o),
(347,710,cs),
(129,710,o),
(42,605,o),
(42,350,cs),
(42,95,o),
(128,5,o),
(308,-9,c),
(312,-51,o),
(315,-96,o),
(346,-144,cs),
(384,-204,o),
(452,-235,o),
(517,-235,cs)
);
},
{
closed = 1;
nodes = (
(170,245,o),
(110,271,o),
(110,350,cs),
(110,429,o),
(170,455,o),
(347,455,cs),
(524,455,o),
(584,429,o),
(584,350,cs),
(584,271,o),
(524,245,o),
(347,245,cs)
);
}
);
width = 704;
},
{
anchors = (
{
name = bottom;
pos = (315,0);
},
{
name = top;
pos = (315,700);
}
);
background = {
shapes = (
{
pos = (22,0);
ref = O;
}
);
};
layerId = "60D037D9-62E9-4843-B070-F1594CB0B0D1";
shapes = (
{
closed = 1;
nodes = (
(516,-163,o),
(538,-160,o),
(571,-152,c),
(571,-114,l),
(547,-122,o),
(519,-127,o),
(494,-127,cs),
(413,-127,o),
(351,-75,o),
(354,-10,c),
(520,-3,o),
(608,123,o),
(608,355,cs),
(608,592,o),
(516,716,o),
(342,716,cs),
(166,716,o),
(72,589,o),
(72,357,cs),
(72,127,o),
(165,-3,o),
(335,-10,c),
(336,-37,o),
(342,-59,o),
(351,-77,cs),
(377,-130,o),
(433,-163,o),
(496,-163,cs)
);
},
{
closed = 1;
nodes = (
(188,29,o),
(94,151,o),
(94,355,cs),
(94,559,o),
(185,677,o),
(342,677,cs),
(498,677,o),
(586,560,o),
(586,355,cs),
(586,147,o),
(499,29,o),
(345,29,cs)
);
}
);
width = 649;
}
);
metricLeft = O;
unicode = 81;
},
{
color = 4;
glyphname = R;
lastChange = "2023-12-08 17:49:25 +0000";
layers = (
{
anchors = (
{
name = bottom;
pos = (313,0);
},
{
name = top;
pos = (313,700);
}
);
background = {
shapes = (
{
pos = (-2,0);
ref = B;
}
);
};
layerId = "60D037D9-62E9-4843-B070-F1594CB0B0D1";
shapes = (
{
closed = 1;
nodes = (
(525,-8,o),
(540,-7,o),
(554,-3,c),
(554,37,l),
(519,29,o),
(477,30,o),
(437,40,cs),
(343,63,o),
(305,129,o),
(295,293,c),
(452,295,o),
(530,363,o),
(530,497,cs),
(530,622,o),
(443,698,o),
(298,699,cs),
(84,701,l),
(86,522,o),
(90,186,o),
(84,0,c),
(111,0,l),
(107,107,o),
(107,270,o),
(115,279,cs),
(125,291,o),
(130,292,o),
(276,293,c),
(280,209,o),
(293,142,o),
(316,99,cs),
(354,28,o),
(414,-8,o),
(496,-8,cs)
);
},
{
closed = 1;
nodes = (
(149,330,o),
(121,332,o),
(113,344,cs),
(107,352,o),
(106,378,o),
(106,496,cs),
(106,610,o),
(107,636,o),
(113,646,cs),
(121,660,o),
(120,659,o),
(294,661,cs),
(398,662,o),
(437,642,o),
(470,607,cs),
(494,581,o),
(508,541,o),
(508,496,cs),
(508,459,o),
(499,408,o),
(468,377,cs),
(429,337,o),
(378,330,o),
(290,330,cs)
);
}
);
width = 626;
},
{
anchors = (
{
name = bottom;
pos = (345,0);
},
{
name = top;
pos = (345,700);
}
);
background = {
shapes = (
{
ref = R.ss10;
}
);
};
layerId = m01;
shapes = (
{
closed = 1;
nodes = (
(577,-8,o),
(621,2,o),
(647,13,c),
(647,248,l),
(630,232,o),
(557,188,o),
(446,188,cs),
(399,188,o),
(350,201,o),
(334,221,c),
(539,221,o),
(637,281,o),
(637,455,cs),
(637,623,o),
(553,699,o),
(420,699,cs),
(70,700,l),
(74,451,o),
(73,249,o),
(69,0,c),
(162,0,l),
(159,69,o),
(149,163,o),
(164,188,cs),
(178,210,o),
(198,218,o),
(250,220,c),
(254,182,o),
(266,138,o),
(300,89,cs),
(346,22,o),
(420,-8,o),
(504,-8,cs)
);
},
{
closed = 1;
nodes = (
(254,297,o),
(204,303,o),
(179,314,cs),
(152,326,o),
(143,350,o),
(143,376,cs),
(143,398,o),
(152,426,o),
(179,438,cs),
(204,449,o),
(254,455,o),
(330,455,cs),
(415,455,o),
(465,449,o),
(490,438,cs),
(517,426,o),
(527,398,o),
(527,376,cs),
(527,352,o),
(517,327,o),
(490,315,cs),
(465,304,o),
(415,297,o),
(330,297,cs)
);
}
);
width = 689;
}
);
metricLeft = H;
metricRight = O;
unicode = 82;
},
{
color = 4;
glyphname = S;
lastChange = "2023-12-08 17:49:25 +0000";
layers = (
{
anchors = (
{
name = bottom;
pos = (278,-8);
},
{
name = top;
pos = (278,700);
}
);
background = {
shapes = (
{
pos = (-55,0);
ref = C;
}
);
};
backgroundImage = {
imagePath = /Downloads/IMG_7408.JPG;
locked = 1;
pos = (-859,-1771);
scale = (0.7854,0.7854);
};
layerId = m01;
shapes = (
{
closed = 1;
nodes = (
(464,-8,o),
(558,54,o),
(558,185,cs),
(558,300,o),
(479,342,o),
(344,381,cs),
(276,401,o),
(235,406,o),
(235,433,cs),
(235,447,o),
(251,457,o),
(307,457,cs),
(362,457,o),
(426,453,o),
(524,427,c),
(524,687,l),
(431,704,o),
(362,707,o),
(322,707,cs),
(169,707,o),
(66,669,o),
(66,532,cs),
(66,424,o),
(149,383,o),
(257,351,cs),
(346,325,o),
(416,312,o),
(416,273,cs),
(416,253,o),
(387,241,o),
(299,241,cs),
(251,241,o),
(129,253,o),
(65,276,c),
(65,5,l),
(135,-4,o),
(226,-8,o),
(280,-8,c)
);
}
);
width = 566;
},
{
anchors = (
{
name = bottom;
pos = (229,0);
},
{
name = top;
pos = (229,700);
}
);
background = {
shapes = (
{
pos = (-130,0);
ref = C;
}
);
};
layerId = "60D037D9-62E9-4843-B070-F1594CB0B0D1";
shapes = (
{
closed = 1;
nodes = (
(324,-8,o),
(459,39,o),
(460,182,cs),
(461,293,o),
(380,345,o),
(243,383,cs),
(108,420,o),
(68,471,o),
(68,538,cs),
(68,647,o),
(162,674,o),
(240,674,cs),
(311,674,o),
(352,656,o),
(397,634,c),
(397,682,l),
(350,700,o),
(291,709,o),
(251,709,cs),
(108,709,o),
(43,635,o),
(43,555,cs),
(43,452,o),
(89,401,o),
(236,359,cs),
(349,327,o),
(434,288,o),
(434,180,cs),
(434,61,o),
(294,33,o),
(224,33,cs),
(150,33,o),
(69,52,o),
(36,66,c),
(36,20,l),
(75,4,o),
(152,-8,o),
(207,-8,cs)
);
}
);
width = 496;
}
);
unicode = 83;
},
{
color = 4;
glyphname = T;
lastChange = "2023-12-08 17:49:25 +0000";
layers = (
{
anchors = (
{
name = bottom;
pos = (319,0);
},
{
name = center;
pos = (319,350);
},
{
name = top;
pos = (319,700);
}
);
background = {
shapes = (
{
pos = (-48,0);
ref = H;
}
);
};
layerId = m01;
shapes = (
{
closed = 1;
nodes = (
(366,0,l),
(362,120,o),
(360,281,o),
(360,394,cs),
(360,426,o),
(360,441,o),
(387,447,cs),
(404,451,o),
(437,452,o),
(515,450,cs),
(613,447,l),
(613,699,l),
(24,699,l),
(24,447,l),
(122,450,ls),
(200,452,o),
(233,451,o),
(250,447,cs),
(277,441,o),
(277,426,o),
(277,394,cs),
(277,281,o),
(275,120,o),
(271,0,c)
);
}
);
width = 637;
},
{
anchors = (
{
name = bottom;
pos = (276,0);
},
{
name = center;
pos = (276,350);
},
{
name = top;
pos = (276,700);
}
);
layerId = "60D037D9-62E9-4843-B070-F1594CB0B0D1";
shapes = (
{
closed = 1;
nodes = (
(288,0,l),
(284,294,o),
(287,541,o),
(287,603,cs),
(287,633,o),
(295,652,o),
(314,659,cs),
(337,666,o),
(381,666,o),
(447,665,cs),
(545,664,l),
(545,699,l),
(6,699,l),
(6,664,l),
(104,665,ls),
(170,666,o),
(214,666,o),
(237,659,cs),
(256,652,o),
(264,633,o),
(264,603,cs),
(264,541,o),
(267,294,o),
(263,0,c)
);
}
);
width = 551;
}
);
unicode = 84;
},
{
color = 4;
glyphname = U;
lastChange = "2023-12-08 19:28:36 +0000";
layers = (
{
anchors = (
{
name = bottom;
pos = (311,0);
},
{
name = ogonek;
pos = (390,10);
},
{
name = top;
pos = (311,700);
},
{
name = topright;
pos = (559,636);
}
);
layerId = m01;
shapes = (
{
closed = 1;
nodes = (
(512,-9,o),
(574,59,o),
(576,302,cs),
(577,435,o),
(578,567,o),
(579,700,c),
(489,700,l),
(491,607,o),
(492,514,o),
(494,421,cs),
(496,334,o),
(481,326,o),
(309,326,cs),
(138,326,o),
(124,334,o),
(126,421,cs),
(128,514,o),
(130,607,o),
(132,700,c),
(42,700,l),
(42,570,o),
(43,440,o),
(43,310,cs),
(44,56,o),
(100,-9,o),
(309,-9,cs)
);
}
);
width = 621;
},
{
anchors = (
{
name = bottom;
pos = (297,0);
},
{
name = ogonek;
pos = (358,0);
},
{
name = top;
pos = (297,700);
},
{
name = topright;
pos = (510,664);
}
);
background = {
shapes = (
{
pos = (-2,0);
ref = H;
}
);
};
layerId = "60D037D9-62E9-4843-B070-F1594CB0B0D1";
shapes = (
{
closed = 1;
nodes = (
(484,-11,o),
(516,119,o),
(518,233,cs),
(519,273,o),
(518,516,o),
(522,700,c),
(492,700,l),
(495,538,o),
(496,376,o),
(496,214,cs),
(496,95,o),
(417,28,o),
(297,28,cs),
(177,28,o),
(98,95,o),
(98,214,cs),
(98,376,o),
(99,538,o),
(102,700,c),
(72,700,l),
(76,516,o),
(75,273,o),
(76,233,cs),
(78,115,o),
(112,-11,o),
(297,-11,cs)
);
}
);
width = 594;
}
);
metricLeft = O;
metricRight = O;
unicode = 85;
},
{
color = 4;
glyphname = V;
lastChange = "2023-12-08 17:49:25 +0000";
layers = (
{
layerId = m01;
shapes = (
{
closed = 1;
nodes = (
(525,0,l),
(551,224,o),
(578,452,o),
(617,700,c),
(515,700,l),
(510,623,o),
(506,491,o),
(484,356,cs),
(479,324,o),
(469,319,o),
(322,319,cs),
(175,319,o),
(165,324,o),
(160,356,cs),
(138,489,o),
(134,623,o),
(129,700,c),
(30,700,l),
(69,452,o),
(93,224,o),
(119,0,c)
);
}
);
width = 647;
},
{
layerId = "60D037D9-62E9-4843-B070-F1594CB0B0D1";
shapes = (
{
closed = 1;
nodes = (
(425,0,l),
(457,232,o),
(510,468,o),
(558,700,c),
(523,700,l),
(495,490,o),
(441,282,o),
(405,70,cs),
(400,39,o),
(392,37,o),
(307,37,cs),
(222,37,o),
(214,39,o),
(209,70,cs),
(173,282,o),
(119,490,o),
(91,700,c),
(56,700,l),
(104,468,o),
(157,232,o),
(189,0,c)
);
}
);
width = 614;
}
);
metricLeft = A;
metricRight = A;
unicode = 86;
},
{
color = 4;
glyphname = W;
lastChange = "2023-12-08 17:49:25 +0000";
layers = (
{
anchors = (
{
name = bottom;
pos = (423,0);
},
{
name = top;
pos = (423,700);
}
);
background = {
shapes = (
{
pos = (74,0);
ref = O;
}
);
};
layerId = m01;
shapes = (
{
closed = 1;
nodes = (
(359,0,l),
(376,319,o),
(381,347,o),
(420,347,cs),
(457,347,o),
(462,319,o),
(486,0,c),
(736,0,l),
(744,116,o),
(754,233,o),
(767,350,cs),
(780,467,o),
(796,583,o),
(815,700,c),
(709,700,l),
(710,603,o),
(707,488,o),
(699,421,cs),
(695,387,o),
(687,365,o),
(674,354,cs),
(662,342,o),
(632,341,o),
(612,341,cs),
(592,341,o),
(563,342,o),
(545,358,cs),
(518,384,o),
(513,407,o),
(477,700,c),
(368,700,l),
(332,407,o),
(327,384,o),
(300,358,cs),
(282,342,o),
(253,341,o),
(233,341,cs),
(213,341,o),
(183,342,o),
(171,354,cs),
(158,365,o),
(150,387,o),
(146,421,cs),
(138,488,o),
(135,603,o),
(136,700,c),
(30,700,l),
(49,583,o),
(65,467,o),
(78,350,cs),
(91,233,o),
(101,116,o),
(109,0,c)
);
}
);
width = 845;
},
{
anchors = (
{
name = bottom;
pos = (377,0);
},
{
name = top;
pos = (377,700);
}
);
layerId = "60D037D9-62E9-4843-B070-F1594CB0B0D1";
shapes = (
{
closed = 1;
nodes = (
(252,0,l),
(344,529,o),
(344,529,o),
(376,529,cs),
(409,529,o),
(409,529,o),
(501,0,c),
(639,0,l),
(643,116,o),
(653,233,o),
(663,350,cs),
(673,467,o),
(682,583,o),
(698,700,c),
(665,700,l),
(651,493,o),
(637,350,o),
(630,253,cs),
(622,136,o),
(619,81,o),
(616,68,cs),
(610,42,o),
(588,38,o),
(566,38,cs),
(530,38,o),
(518,46,o),
(513,68,cs),
(495,154,o),
(448,442,o),
(424,566,c),
(328,566,l),
(304,442,o),
(258,154,o),
(240,68,cs),
(235,46,o),
(223,38,o),
(187,38,cs),
(165,38,o),
(143,42,o),
(137,68,cs),
(134,81,o),
(131,136,o),
(123,253,cs),
(116,350,o),
(103,493,o),
(89,700,c),
(56,700,l),
(72,583,o),
(80,467,o),
(90,350,cs),
(100,233,o),
(110,116,o),
(114,0,c)
);
}
);
width = 754;
}
);
metricLeft = A;
metricRight = A;
unicode = 87;
},
{
color = 4;
glyphname = X;
lastChange = "2023-12-08 17:49:25 +0000";
layers = (
{
anchors = (
{
name = bottom;
pos = (266,0);
},
{
name = top;
pos = (266,700);
}
);
layerId = m01;
shapes = (
{
closed = 1;
nodes = (
(141,0,l),
(169,113,o),
(184,169,o),
(211,194,cs),
(236,217,o),
(270,215,o),
(356,215,cs),
(442,215,o),
(476,215,o),
(501,192,cs),
(528,167,o),
(543,113,o),
(571,0,c),
(682,0,l),
(575,313,o),
(567,331,o),
(567,361,cs),
(567,391,o),
(573,408,o),
(667,700,c),
(556,700,l),
(539,617,o),
(532,560,o),
(503,537,cs),
(479,518,o),
(416,519,o),
(356,519,cs),
(296,519,o),
(233,518,o),
(209,537,cs),
(180,560,o),
(173,617,o),
(156,700,c),
(45,700,l),
(139,408,o),
(145,391,o),
(145,361,cs),
(145,331,o),
(137,313,o),
(30,0,c)
);
}
);
width = 712;
},
{
anchors = (
{
name = bottom;
pos = (283,0);
},
{
name = top;
pos = (283,700);
}
);
layerId = "60D037D9-62E9-4843-B070-F1594CB0B0D1";
shapes = (
{
closed = 1;
nodes = (
(89,0,l),
(171,215,o),
(209,316,o),
(223,330,cs),
(233,340,o),
(242,342,o),
(318,342,cs),
(394,342,o),
(403,341,o),
(414,330,cs),
(428,316,o),
(465,215,o),
(547,0,c),
(580,0,l),
(460,291,o),
(439,331,o),
(439,361,cs),
(439,391,o),
(451,409,o),
(571,700,c),
(538,700,l),
(465,507,o),
(425,405,o),
(413,392,cs),
(402,381,o),
(393,380,o),
(318,380,cs),
(243,380,o),
(233,382,o),
(223,392,cs),
(211,405,o),
(171,509,o),
(98,700,c),
(65,700,l),
(185,409,o),
(197,391,o),
(197,361,cs),
(197,331,o),
(176,291,o),
(56,0,c)
);
}
);
width = 636;
}
);
metricLeft = A;
metricRight = A;
unicode = 88;
},
{
color = 4;
glyphname = Y;
lastChange = "2023-12-08 17:49:25 +0000";
layers = (
{
anchors = (
{
name = bottom;
pos = (277,0);
},
{
name = top;
pos = (325,700);
},
{
name = topleft;
pos = (42,700);
}
);
layerId = m01;
shapes = (
{
closed = 1;
nodes = (
(307,-8,o),
(414,9,o),
(466,58,cs),
(517,107,o),
(537,189,o),
(543,236,cs),
(560,367,o),
(575,471,o),
(608,700,c),
(518,700,l),
(513,618,o),
(511,591,o),
(504,537,cs),
(499,502,o),
(466,496,o),
(325,496,cs),
(174,496,o),
(151,502,o),
(146,537,cs),
(139,591,o),
(137,618,o),
(132,700,c),
(42,700,l),
(81,471,o),
(96,403,o),
(116,272,c),
(470,272,l),
(461,239,o),
(369,205,o),
(277,205,cs),
(168,205,o),
(85,239,o),
(63,250,c),
(63,10,l),
(88,2,o),
(147,-8,o),
(218,-8,cs)
);
}
);
width = 650;
},
{
anchors = (
{
name = bottom;
pos = (259,0);
},
{
name = top;
pos = (316,700);
},
{
name = topleft;
pos = (72,700);
}
);
background = {
shapes = (
{
pos = (660,105);
ref = R;
scale = (-1,1);
}
);
};
layerId = "60D037D9-62E9-4843-B070-F1594CB0B0D1";
shapes = (
{
closed = 1;
nodes = (
(390,-10,o),
(439,69,o),
(480,240,cs),
(493,293,o),
(499,329,o),
(521,458,cs),
(549,621,o),
(548,601,o),
(565,700,c),
(532,700,l),
(513,561,o),
(492,447,o),
(485,424,cs),
(478,402,o),
(465,402,o),
(314,402,cs),
(153,402,o),
(160,396,o),
(146,458,cs),
(137,499,o),
(111,631,o),
(105,700,c),
(72,700,l),
(91,592,o),
(114,521,o),
(132,371,c),
(478,371,l),
(437,78,o),
(362,33,o),
(259,26,cs),
(211,23,o),
(165,29,o),
(108,42,c),
(108,0,l),
(152,-6,o),
(186,-10,o),
(223,-10,cs)
);
}
);
width = 637;
}
);
metricLeft = O;
metricRight = O;
unicode = 89;
},
{
color = 4;
glyphname = Z;
lastChange = "2023-12-08 17:49:25 +0000";
layers = (
{
anchors = (
{
name = bottom;
pos = (338,0);
},
{
name = center;
pos = (338,334);
},
{
name = top;
pos = (338,700);
}
);
background = {
shapes = (
{
pos = (17,0);
ref = E;
}
);
};
layerId = m01;
shapes = (
{
closed = 1;
nodes = (
(596,0,l),
(596,250,l),
(493,247,o),
(414,246,o),
(312,246,cs),
(268,246,o),
(264,247,o),
(264,259,cs),
(264,264,o),
(281,281,o),
(308,296,cs),
(374,333,o),
(499,398,o),
(596,450,c),
(596,700,l),
(42,700,l),
(42,451,l),
(123,451,o),
(155,450,o),
(234,451,cs),
(364,453,o),
(379,452,o),
(381,438,cs),
(382,430,o),
(381,424,o),
(362,412,cs),
(305,378,o),
(115,271,o),
(42,235,c),
(42,0,l)
);
}
);
width = 638;
},
{
anchors = (
{
name = bottom;
pos = (332,0);
},
{
name = center;
pos = (332,350);
},
{
name = top;
pos = (332,700);
}
);
background = {
shapes = (
{
pos = (30,0);
ref = E;
}
);
};
layerId = "60D037D9-62E9-4843-B070-F1594CB0B0D1";
shapes = (
{
closed = 1;
nodes = (
(538,0,l),
(538,37,l),
(394,35,o),
(301,35,o),
(270,35,cs),
(100,35,o),
(99,37,o),
(98,78,cs),
(97,112,o),
(100,125,o),
(122,147,cs),
(173,197,o),
(422,464,o),
(518,550,c),
(518,700,l),
(72,700,l),
(72,665,l),
(150,665,o),
(262,669,o),
(338,669,cs),
(482,669,o),
(491,669,o),
(491,611,cs),
(491,569,o),
(488,567,o),
(450,529,cs),
(388,467,o),
(129,200,o),
(72,139,c),
(72,0,l)
);
}
);
width = 610;
}
);
metricLeft = O;
metricRight = O;
unicode = 90;
},
{
color = 10;
export = 0;
glyphname = R.old;
lastChange = "2023-12-08 17:49:25 +0000";
layers = (
{
background = {
shapes = (
{
pos = (-2,0);
ref = B;
}
);
};
layerId = "60D037D9-62E9-4843-B070-F1594CB0B0D1";
shapes = (
{
closed = 1;
nodes = (
(525,-8,o),
(540,-7,o),
(554,-3,c),
(554,37,l),
(519,29,o),
(477,30,o),
(437,40,cs),
(343,63,o),
(305,129,o),
(295,293,c),
(452,295,o),
(530,363,o),
(530,497,cs),
(530,622,o),
(443,698,o),
(298,699,cs),
(84,701,l),
(85,584,o),
(87,468,o),
(87,350,cs),
(87,232,o),
(89,148,o),
(84,0,c),
(111,0,l),
(107,107,o),
(107,128,o),
(107,172,cs),
(107,263,o),
(107,270,o),
(115,279,cs),
(125,291,o),
(130,292,o),
(276,293,c),
(280,209,o),
(293,142,o),
(316,99,cs),
(354,28,o),
(414,-8,o),
(496,-8,cs)
);
},
{
closed = 1;
nodes = (
(149,330,o),
(121,332,o),
(113,344,cs),
(107,352,o),
(106,378,o),
(106,496,cs),
(106,610,o),
(107,636,o),
(113,646,cs),
(121,660,o),
(120,659,o),
(294,661,cs),
(398,662,o),
(437,642,o),
(470,607,cs),
(494,581,o),
(508,541,o),
(508,496,cs),
(508,459,o),
(499,408,o),
(468,377,cs),
(429,337,o),
(378,330,o),
(290,330,cs)
);
}
);
width = 626;
},
{
background = {
shapes = (
{
closed = 1;
nodes = (
(249,335,o),
(198,340,o),
(173,349,cs),
(153,357,o),
(146,374,o),
(146,395,cs),
(146,416,o),
(154,433,o),
(173,441,cs),
(200,451,o),
(249,455,o),
(324,455,cs),
(399,455,o),
(450,453,o),
(475,441,cs),
(495,433,o),
(502,416,o),
(502,395,cs),
(502,374,o),
(493,357,o),
(475,349,cs),
(450,337,o),
(399,335,o),
(324,335,cs)
);
},
{
closed = 1;
nodes = (
(554,-8,o),
(624,-2,o),
(649,14,c),
(649,249,l),
(627,236,o),
(524,209,o),
(460,209,cs),
(379,209,o),
(330,234,o),
(322,264,c),
(492,268,o),
(633,282,o),
(633,478,cs),
(633,659,o),
(516,698,o),
(420,699,cs),
(70,701,l),
(73,584,o),
(74,467,o),
(75,350,cs),
(76,233,o),
(73,117,o),
(69,0,c),
(161,0,l),
(156,61,o),
(153,111,o),
(153,172,cs),
(153,200,o),
(155,219,o),
(163,233,cs),
(174,251,o),
(198,259,o),
(245,262,c),
(248,217,o),
(257,161,o),
(296,99,cs),
(342,25,o),
(447,-8,o),
(521,-8,cs)
);
},
{
closed = 1;
nodes = (
(249,335,o),
(198,340,o),
(173,349,cs),
(153,357,o),
(146,374,o),
(146,395,cs),
(146,416,o),
(154,433,o),
(173,441,cs),
(200,451,o),
(249,455,o),
(324,455,cs),
(399,455,o),
(450,453,o),
(475,441,cs),
(495,433,o),
(502,416,o),
(502,395,cs),
(502,374,o),
(493,357,o),
(475,349,cs),
(450,337,o),
(399,335,o),
(324,335,cs)
);
}
);
};
layerId = m01;
shapes = (
{
closed = 1;
nodes = (
(554,-8,o),
(624,-2,o),
(649,14,c),
(649,249,l),
(627,236,o),
(524,209,o),
(460,209,cs),
(379,209,o),
(330,234,o),
(322,264,c),
(492,268,o),
(633,282,o),
(633,478,cs),
(633,659,o),
(516,698,o),
(420,699,cs),
(70,701,l),
(73,584,o),
(74,467,o),
(75,350,cs),
(76,233,o),
(73,117,o),
(69,0,c),
(161,0,l),
(156,61,o),
(153,111,o),
(153,172,cs),
(153,200,o),
(155,219,o),
(163,233,cs),
(174,251,o),
(198,259,o),
(245,262,c),
(248,217,o),
(257,161,o),
(296,99,cs),
(342,25,o),
(447,-8,o),
(521,-8,cs)
);
},
{
closed = 1;
nodes = (
(249,335,o),
(198,340,o),
(173,349,cs),
(153,357,o),
(146,374,o),
(146,395,cs),
(146,416,o),
(154,433,o),
(173,441,cs),
(200,451,o),
(249,455,o),
(324,455,cs),
(399,455,o),
(450,453,o),
(475,441,cs),
(495,433,o),
(502,416,o),
(502,395,cs),
(502,374,o),
(493,357,o),
(475,349,cs),
(450,337,o),
(399,335,o),
(324,335,cs)
);
}
);
width = 691;
}
);
metricLeft = H;
metricRight = O;
},
{
color = 10;
export = 0;
glyphname = K.salt;
lastChange = "2023-12-08 17:49:25 +0000";
layers = (
{
anchors = (
{
name = bottom;
pos = (359,0);
},
{
name = top;
pos = (359,700);
}
);
background = {
shapes = (
{
pos = (-13,0);
ref = R;
}
);
};
layerId = m01;
shapes = (
{
closed = 1;
nodes = (
(540,-8,o),
(609,1,o),
(634,13,c),
(634,248,l),
(611,227,o),
(532,189,o),
(451,189,cs),
(375,189,o),
(333,206,o),
(318,227,c),
(557,231,o),
(628,308,o),
(628,700,c),
(540,700,l),
(540,639,o),
(541,630,o),
(537,573,cs),
(535,549,o),
(533,532,o),
(519,521,cs),
(498,505,o),
(452,501,o),
(345,501,cs),
(235,501,o),
(188,504,o),
(168,520,cs),
(155,531,o),
(154,548,o),
(155,573,cs),
(156,615,o),
(158,658,o),
(159,700,c),
(72,701,l),
(76,233,o),
(73,117,o),
(69,0,c),
(161,0,l),
(159,36,o),
(158,75,o),
(158,109,cs),
(158,127,o),
(157,164,o),
(165,185,cs),
(176,213,o),
(203,222,o),
(236,225,c),
(256,86,o),
(333,-8,o),
(507,-8,cs)
);
}
);
width = 664;
},
{
anchors = (
{
name = bottom;
pos = (339,0);
},
{
name = top;
pos = (339,700);
}
);
background = {
shapes = (
{
pos = (7,0);
ref = H;
},
{
pos = (25,0);
ref = O;
},
{
closed = 1;
nodes = (
(501,-6,o),
(531,-4,o),
(542,-5,c),
(542,34,l),
(533,32,o),
(481,28,o),
(444,36,cs),
(346,56,o),
(298,174,o),
(298,323,c),
(449,335,o),
(481,350,o),
(496,700,c),
(473,700,l),
(472,615,o),
(466,542,o),
(457,491,cs),
(444,417,o),
(426,393,o),
(402,381,cs),
(365,362,o),
(331,359,o),
(223,359,cs),
(137,359,o),
(122,361,o),
(115,375,cs),
(105,395,o),
(111,495,o),
(111,600,cs),
(111,633,o),
(113,667,o),
(113,700,c),
(89,700,l),
(92,436,o),
(92,264,o),
(89,0,c),
(112,0,l),
(108,99,o),
(107,217,o),
(108,260,cs),
(109,292,o),
(111,305,o),
(118,312,cs),
(128,322,o),
(154,323,o),
(279,323,c),
(279,214,o),
(288,9,o),
(477,-4,cs)
);
}
);
};
layerId = "60D037D9-62E9-4843-B070-F1594CB0B0D1";
shapes = (
{
closed = 1;
nodes = (
(515,-5,o),
(534,-4,o),
(542,-2,c),
(542,34,l),
(533,32,o),
(481,28,o),
(444,36,cs),
(346,56,o),
(298,174,o),
(298,323,c),
(449,335,o),
(481,350,o),
(496,700,c),
(473,700,l),
(472,615,o),
(466,542,o),
(457,491,cs),
(444,417,o),
(426,393,o),
(402,381,cs),
(365,362,o),
(331,359,o),
(223,359,cs),
(137,359,o),
(122,361,o),
(115,375,cs),
(105,395,o),
(111,495,o),
(111,600,cs),
(111,633,o),
(113,667,o),
(113,700,c),
(84,700,l),
(89,436,o),
(89,264,o),
(84,0,c),
(112,0,l),
(108,99,o),
(107,217,o),
(108,260,cs),
(109,292,o),
(111,305,o),
(118,312,cs),
(128,322,o),
(154,323,o),
(279,323,c),
(279,143,o),
(322,-5,o),
(497,-5,cs)
);
}
);
width = 607;
}
);
metricLeft = H;
},
{
color = 10;
export = 0;
glyphname = K.ss05;
lastChange = "2023-12-08 17:49:25 +0000";
layers = (
{
layerId = "60D037D9-62E9-4843-B070-F1594CB0B0D1";
shapes = (
{
closed = 1;
nodes = (
(102,0,l),
(98,134,o),
(98,230,o),
(99,251,cs),
(100,279,o),
(99,317,o),
(111,326,cs),
(126,338,o),
(133,338,o),
(219,338,cs),
(352,338,o),
(352,335,o),
(365,299,cs),
(380,258,o),
(416,165,o),
(485,0,c),
(516,0,l),
(481,79,o),
(396,271,o),
(373,331,c),
(455,339,o),
(476,337,o),
(511,700,c),
(484,700,l),
(480,624,o),
(481,608,o),
(469,507,cs),
(464,465,o),
(455,424,o),
(445,405,cs),
(428,373,o),
(390,379,o),
(283,379,cs),
(173,379,o),
(126,380,o),
(111,395,cs),
(97,409,o),
(97,463,o),
(98,507,cs),
(99,582,o),
(101,658,o),
(102,700,c),
(75,700,l),
(79,451,o),
(79,249,o),
(75,0,c)
);
}
);
width = 600;
},
{
background = {
shapes = (
{
pos = (28,0);
ref = R.ss10;
}
);
};
layerId = m01;
shapes = (
{
closed = 1;
nodes = (
(167,0,l),
(165,38,o),
(163,122,o),
(164,140,cs),
(165,165,o),
(170,182,o),
(176,190,cs),
(188,205,o),
(198,216,o),
(284,216,cs),
(382,216,o),
(403,213,o),
(426,171,cs),
(446,135,o),
(484,55,o),
(510,0,c),
(636,0,l),
(586,79,o),
(521,185,o),
(504,219,c),
(612,250,o),
(631,341,o),
(631,700,c),
(539,700,l),
(539,639,o),
(540,630,o),
(536,573,cs),
(534,549,o),
(532,532,o),
(518,521,cs),
(497,505,o),
(455,501,o),
(348,501,cs),
(238,501,o),
(196,504,o),
(176,520,cs),
(163,531,o),
(162,548,o),
(163,573,cs),
(164,615,o),
(166,658,o),
(167,700,c),
(75,700,l),
(79,451,o),
(79,249,o),
(75,0,c)
);
}
);
width = 676;
}
);
},
{
color = 10;
export = 0;
glyphname = K.ss10;
lastChange = "2023-12-08 17:49:25 +0000";
layers = (
{
layerId = "60D037D9-62E9-4843-B070-F1594CB0B0D1";
shapes = (
{
closed = 1;
nodes = (
(105,0,l),
(101,99,o),
(100,217,o),
(101,260,cs),
(102,292,o),
(104,305,o),
(111,312,cs),
(121,322,o),
(149,323,o),
(283,323,cs),
(434,323,o),
(474,347,o),
(489,700,c),
(466,700,l),
(465,615,o),
(459,542,o),
(450,491,cs),
(437,417,o),
(419,393,o),
(395,381,cs),
(358,362,o),
(324,359,o),
(216,359,cs),
(130,359,o),
(115,361,o),
(108,375,cs),
(98,395,o),
(104,495,o),
(104,600,cs),
(104,633,o),
(106,667,o),
(106,700,c),
(82,700,l),
(85,436,o),
(85,264,o),
(82,0,c)
);
},
{
closed = 1;
nodes = (
(508,-5,o),
(527,-4,o),
(535,-2,c),
(535,34,l),
(526,32,o),
(474,28,o),
(437,36,cs),
(338,56,o),
(290,177,o),
(291,329,c),
(272,329,l),
(271,146,o),
(313,-5,o),
(490,-5,cs)
);
}
);
width = 600;
},
{
layerId = m01;
shapes = (
{
closed = 1;
nodes = (
(164,0,l),
(162,36,o),
(159,58,o),
(157,119,cs),
(155,169,o),
(154,204,o),
(164,227,cs),
(177,254,o),
(201,263,o),
(337,263,cs),
(566,263,o),
(631,344,o),
(631,700,c),
(543,700,l),
(543,639,o),
(544,630,o),
(540,573,cs),
(538,549,o),
(536,532,o),
(522,521,cs),
(501,505,o),
(455,501,o),
(348,501,cs),
(238,501,o),
(191,504,o),
(171,520,cs),
(158,531,o),
(157,548,o),
(158,573,cs),
(159,615,o),
(161,658,o),
(162,700,c),
(75,701,l),
(79,233,o),
(76,117,o),
(72,0,c)
);
},
{
closed = 1;
nodes = (
(550,-8,o),
(612,-2,o),
(637,10,c),
(637,244,l),
(615,235,o),
(588,227,o),
(549,218,cs),
(432,191,o),
(312,228,o),
(325,272,c),
(246,282,l),
(253,88,o),
(337,-8,o),
(517,-8,cs)
);
}
);
width = 667;
},
{
associatedMasterId = "60D037D9-62E9-4843-B070-F1594CB0B0D1";
attr = {
axisRules = (
{
max = 96;
min = 0;
}
);
};
background = {
shapes = (
{
closed = 1;
nodes = (
(352,336,o),
(352,335,o),
(365,299,cs),
(380,258,o),
(416,165,o),
(485,0,c),
(516,0,l),
(481,79,o),
(396,271,o),
(373,331,c),
(455,339,o),
(476,337,o),
(511,700,c),
(484,700,l),
(480,624,o),
(481,608,o),
(469,507,cs),
(464,465,o),
(455,424,o),
(445,405,cs),
(428,373,o),
(390,379,o),
(283,379,cs),
(173,379,o),
(126,380,o),
(111,395,cs),
(97,409,o),
(97,463,o),
(98,507,cs),
(99,582,o),
(101,658,o),
(102,700,c),
(75,700,l),
(79,451,o),
(79,249,o),
(75,0,c),
(102,0,l),
(98,134,o),
(98,230,o),
(99,251,cs),
(100,279,o),
(99,317,o),
(111,326,cs),
(126,338,o),
(133,338,o),
(219,338,c)
);
}
);
};
layerId = "C6D02986-A3D1-414F-A13E-C524A93B3D18";
name = "Nov 29, 23 at 12:55";
shapes = (
{
closed = 1;
nodes = (
(105,0,l),
(101,99,o),
(100,217,o),
(101,260,cs),
(102,292,o),
(104,305,o),
(111,312,cs),
(121,322,o),
(149,323,o),
(283,323,cs),
(434,323,o),
(474,347,o),
(489,700,c),
(466,700,l),
(465,615,o),
(459,542,o),
(450,491,cs),
(437,417,o),
(419,393,o),
(395,381,cs),
(358,362,o),
(324,359,o),
(216,359,cs),
(130,359,o),
(115,361,o),
(108,375,cs),
(98,395,o),
(104,495,o),
(104,600,cs),
(104,633,o),
(106,667,o),
(106,700,c),
(82,700,l),
(85,436,o),
(85,264,o),
(82,0,c)
);
},
{
closed = 1;
nodes = (
(490,0,l),
(369,341,l),
(352,341,l),
(450,0,l)
);
}
);
width = 600;
},
{
associatedMasterId = m01;
attr = {
axisRules = (
{
max = 96;
min = 0;
}
);
};
layerId = "9EF1C697-8D52-41CB-B8DF-2E0953D37D35";
name = "Nov 29, 23 at 12:55";
shapes = (
{
closed = 1;
nodes = (
(164,0,l),
(162,36,o),
(159,58,o),
(157,119,cs),
(155,169,o),
(154,204,o),
(164,227,cs),
(177,254,o),
(201,263,o),
(337,263,cs),
(566,263,o),
(631,344,o),
(631,700,c),
(543,700,l),
(543,639,o),
(544,630,o),
(540,573,cs),
(538,549,o),
(536,532,o),
(522,521,cs),
(501,505,o),
(455,501,o),
(348,501,cs),
(238,501,o),
(191,504,o),
(171,520,cs),
(158,531,o),
(157,548,o),
(158,573,cs),
(159,615,o),
(161,658,o),
(162,700,c),
(75,701,l),
(79,233,o),
(76,117,o),
(72,0,c)
);
},
{
closed = 1;
nodes = (
(656,0,l),
(440,327,l),
(257,327,l),
(450,0,l)
);
}
);
width = 667;
}
);
},
{
color = 10;
export = 0;
glyphname = R.ss10;
lastChange = "2023-12-08 17:49:25 +0000";
layers = (
{
background = {
shapes = (
{
pos = (-2,0);
ref = B;
}
);
};
layerId = "60D037D9-62E9-4843-B070-F1594CB0B0D1";
shapes = (
{
closed = 1;
nodes = (
(111,0,l),
(107,107,o),
(107,270,o),
(115,279,cs),
(123,289,o),
(134,293,o),
(254,293,cs),
(347,293,o),
(373,293,o),
(385,266,cs),
(415,199,o),
(451,107,o),
(492,0,c),
(527,0,l),
(481,95,o),
(425,235,o),
(397,296,c),
(463,317,o),
(530,362,o),
(530,496,cs),
(530,630,o),
(439,699,o),
(298,700,cs),
(84,701,l),
(86,522,o),
(90,186,o),
(84,0,c)
);
},
{
closed = 1;
nodes = (
(149,330,o),
(121,332,o),
(113,344,cs),
(107,352,o),
(106,378,o),
(106,496,cs),
(106,610,o),
(107,636,o),
(113,646,cs),
(121,660,o),
(120,659,o),
(294,661,cs),
(398,662,o),
(439,642,o),
(472,607,cs),
(496,581,o),
(511,541,o),
(511,496,cs),
(511,459,o),
(503,408,o),
(472,377,cs),
(433,337,o),
(378,330,o),
(290,330,cs)
);
}
);
width = 602;
},
{
background = {
shapes = (
{
ref = R;
}
);
};
layerId = m01;
shapes = (
{
closed = 1;
nodes = (
(163,0,l),
(161,38,o),
(154,136,o),
(161,177,cs),
(168,216,o),
(214,222,o),
(300,222,cs),
(392,222,o),
(413,220,o),
(436,177,cs),
(455,142,o),
(483,55,o),
(502,0,c),
(633,0,l),
(579,107,o),
(523,212,o),
(512,240,c),
(569,263,o),
(637,310,o),
(637,455,cs),
(637,623,o),
(553,699,o),
(420,699,cs),
(70,700,l),
(74,451,o),
(73,249,o),
(69,0,c)
);
},
{
closed = 1;
nodes = (
(254,297,o),
(204,303,o),
(179,314,cs),
(152,326,o),
(143,350,o),
(143,376,cs),
(143,398,o),
(152,426,o),
(179,438,cs),
(204,449,o),
(254,455,o),
(330,455,cs),
(415,455,o),
(465,449,o),
(490,438,cs),
(517,426,o),
(527,398,o),
(527,376,cs),
(527,352,o),
(517,327,o),
(490,315,cs),
(465,304,o),
(415,297,o),
(330,297,cs)
);
}
);
width = 679;
}
);
metricLeft = H;
metricRight = O;
},
{
color = 10;
export = 0;
glyphname = R.S088.001;
lastChange = "2023-12-08 17:49:25 +0000";
layers = (
{
background = {
shapes = (
{
pos = (-2,0);
ref = B;
}
);
};
layerId = "60D037D9-62E9-4843-B070-F1594CB0B0D1";
shapes = (
{
closed = 1;
nodes = (
(525,-8,o),
(540,-7,o),
(554,-3,c),
(554,37,l),
(519,29,o),
(477,30,o),
(437,40,cs),
(343,63,o),
(305,129,o),
(295,293,c),
(452,295,o),
(530,363,o),
(530,497,cs),
(530,622,o),
(443,698,o),
(298,699,cs),
(84,701,l),
(85,584,o),
(87,468,o),
(87,350,cs),
(87,232,o),
(89,148,o),
(84,0,c),
(111,0,l),
(107,107,o),
(107,128,o),
(107,172,cs),
(107,263,o),
(107,270,o),
(115,279,cs),
(125,291,o),
(130,292,o),
(276,293,c),
(280,209,o),
(293,142,o),
(316,99,cs),
(354,28,o),
(414,-8,o),
(496,-8,cs)
);
},
{
closed = 1;
nodes = (
(149,330,o),
(121,332,o),
(113,344,cs),
(107,352,o),
(106,378,o),
(106,496,cs),
(106,610,o),
(107,636,o),
(113,646,cs),
(121,660,o),
(120,659,o),
(294,661,cs),
(398,662,o),
(437,642,o),
(470,607,cs),
(494,581,o),
(508,541,o),
(508,496,cs),
(508,459,o),
(499,408,o),
(468,377,cs),
(429,337,o),
(378,330,o),
(290,330,cs)
);
}
);
width = 626;
},
{
background = {
shapes = (
{
pos = (-3,0);
ref = P;
}
);
};
layerId = m01;
shapes = (
{
closed = 1;
nodes = (
(554,-8,o),
(624,-2,o),
(649,14,c),
(649,249,l),
(627,236,o),
(524,209,o),
(460,209,cs),
(379,209,o),
(330,234,o),
(322,264,c),
(492,268,o),
(633,282,o),
(633,478,cs),
(633,659,o),
(516,698,o),
(420,699,cs),
(70,701,l),
(73,584,o),
(74,467,o),
(75,350,cs),
(76,233,o),
(73,117,o),
(69,0,c),
(161,0,l),
(156,61,o),
(153,111,o),
(153,172,cs),
(153,200,o),
(155,219,o),
(163,233,cs),
(174,251,o),
(198,259,o),
(245,262,c),
(248,217,o),
(257,161,o),
(296,99,cs),
(342,25,o),
(447,-8,o),
(521,-8,cs)
);
},
{
closed = 1;
nodes = (
(249,335,o),
(198,340,o),
(173,349,cs),
(153,357,o),
(146,374,o),
(146,395,cs),
(146,416,o),
(154,433,o),
(173,441,cs),
(200,451,o),
(249,455,o),
(324,455,cs),
(399,455,o),
(450,453,o),
(475,441,cs),
(495,433,o),
(502,416,o),
(502,395,cs),
(502,374,o),
(493,357,o),
(475,349,cs),
(450,337,o),
(399,335,o),
(324,335,cs)
);
}
);
width = 691;
}
);
metricLeft = H;
metricRight = O;
},
{
color = 10;
export = 0;
glyphname = K.ss08.001;
lastChange = "2023-12-08 17:49:25 +0000";
layers = (
{
anchors = (
{
name = bottom;
pos = (359,0);
},
{
name = top;
pos = (359,700);
}
);
background = {
shapes = (
{
pos = (-3,0);
ref = R;
}
);
};
layerId = m01;
shapes = (
{
closed = 1;
nodes = (
(547,-8,o),
(609,-2,o),
(634,10,c),
(634,244,l),
(612,235,o),
(585,227,o),
(546,218,cs),
(436,193,o),
(324,224,o),
(321,264,c),
(560,268,o),
(628,341,o),
(628,700,c),
(540,700,l),
(540,639,o),
(541,630,o),
(537,573,cs),
(535,549,o),
(533,532,o),
(519,521,cs),
(498,505,o),
(452,501,o),
(345,501,cs),
(235,501,o),
(188,504,o),
(168,520,cs),
(155,531,o),
(154,548,o),
(155,573,cs),
(156,615,o),
(158,658,o),
(159,700,c),
(72,701,l),
(76,233,o),
(73,117,o),
(69,0,c),
(161,0,l),
(159,36,o),
(156,58,o),
(154,119,cs),
(152,169,o),
(151,204,o),
(161,227,cs),
(172,250,o),
(191,259,o),
(244,262,c),
(256,81,o),
(340,-8,o),
(514,-8,cs)
);
}
);
width = 664;
},
{
anchors = (
{
name = bottom;
pos = (339,0);
},
{
name = top;
pos = (339,700);
}
);
background = {
shapes = (
{
pos = (7,0);
ref = H;
},
{
pos = (25,0);
ref = O;
},
{
closed = 1;
nodes = (
(501,-6,o),
(531,-4,o),
(542,-5,c),
(542,34,l),
(533,32,o),
(481,28,o),
(444,36,cs),
(346,56,o),
(298,174,o),
(298,323,c),
(449,335,o),
(481,350,o),
(496,700,c),
(473,700,l),
(472,615,o),
(466,542,o),
(457,491,cs),
(444,417,o),
(426,393,o),
(402,381,cs),
(365,362,o),
(331,359,o),
(223,359,cs),
(137,359,o),
(122,361,o),
(115,375,cs),
(105,395,o),
(111,495,o),
(111,600,cs),
(111,633,o),
(113,667,o),
(113,700,c),
(89,700,l),
(92,436,o),
(92,264,o),
(89,0,c),
(112,0,l),
(108,99,o),
(107,217,o),
(108,260,cs),
(109,292,o),
(111,305,o),
(118,312,cs),
(128,322,o),
(154,323,o),
(279,323,c),
(279,214,o),
(288,9,o),
(477,-4,cs)
);
}
);
};
layerId = "60D037D9-62E9-4843-B070-F1594CB0B0D1";
shapes = (
{
closed = 1;
nodes = (
(515,-5,o),
(534,-4,o),
(542,-2,c),
(542,34,l),
(533,32,o),
(481,28,o),
(444,36,cs),
(346,56,o),
(298,174,o),
(298,323,c),
(449,335,o),
(481,350,o),
(496,700,c),
(473,700,l),
(472,615,o),
(466,542,o),
(457,491,cs),
(444,417,o),
(426,393,o),
(402,381,cs),
(365,362,o),
(331,359,o),
(223,359,cs),
(137,359,o),
(122,361,o),
(115,375,cs),
(105,395,o),
(111,495,o),
(111,600,cs),
(111,633,o),
(113,667,o),
(113,700,c),
(84,700,l),
(89,436,o),
(89,264,o),
(84,0,c),
(112,0,l),
(108,99,o),
(107,217,o),
(108,260,cs),
(109,292,o),
(111,305,o),
(118,312,cs),
(128,322,o),
(154,323,o),
(279,323,c),
(279,143,o),
(322,-5,o),
(497,-5,cs)
);
}
);
width = 607;
}
);
metricLeft = H;
},
{
color = 4;
glyphname = a;
lastChange = "2023-12-08 17:49:25 +0000";
layers = (
{
anchors = (
{
name = bottom;
pos = (289,0);
},
{
name = ogonek;
pos = (555,2);
},
{
name = top;
pos = (289,500);
}
);
background = {
shapes = (
{
closed = 1;
nodes = (
(381,-10,o),
(410,33,o),
(425,59,cs),
(439,83,o),
(446,90,o),
(454,90,cs),
(468,90,o),
(471,76,o),
(471,54,cs),
(471,39,o),
(471,21,o),
(469,0,c),
(550,0,l),
(546,233,o),
(546,267,o),
(550,500,c),
(472,500,l),
(474,475,o),
(475,452,o),
(475,437,cs),
(475,420,o),
(472,410,o),
(463,410,cs),
(456,410,o),
(446,421,o),
(431,443,cs),
(414,468,o),
(381,508,o),
(270,508,cs),
(115,508,o),
(45,427,o),
(46,250,cs),
(47,68,o),
(117,-10,o),
(270,-10,cs)
);
},
{
closed = 1;
nodes = (
(154,181,o),
(110,198,o),
(110,250,cs),
(110,302,o),
(154,319,o),
(284,319,cs),
(415,319,o),
(458,302,o),
(458,250,cs),
(458,198,o),
(415,181,o),
(284,181,cs)
);
}
);
};
layerId = m01;
shapes = (
{
closed = 1;
nodes = (
(381,-6,o),
(414,34,o),
(431,59,cs),
(446,81,o),
(456,92,o),
(463,92,cs),
(472,92,o),
(475,82,o),
(475,65,cs),
(475,50,o),
(474,27,o),
(472,2,c),
(555,2,l),
(552,197,o),
(552,303,o),
(555,500,c),
(472,500,l),
(474,475,o),
(475,452,o),
(475,437,cs),
(475,420,o),
(472,410,o),
(463,410,cs),
(456,410,o),
(446,421,o),
(431,443,cs),
(414,468,o),
(381,508,o),
(270,508,cs),
(115,508,o),
(45,427,o),
(46,251,cs),
(45,75,o),
(115,-6,o),
(270,-6,cs)
);
},
{
closed = 1;
nodes = (
(158,183,o),
(114,200,o),
(113,251,cs),
(114,302,o),
(158,319,o),
(287,319,cs),
(417,319,o),
(460,302,o),
(461,251,cs),
(460,200,o),
(417,183,o),
(287,183,cs)
);
}
);
width = 590;
},
{
anchors = (
{
name = bottom;
pos = (289,0);
},
{
name = ogonek;
pos = (514,0);
},
{
name = top;
pos = (289,480);
}
);
background = {
shapes = (
{
closed = 1;
nodes = (
(335,-16,o),
(387,1,o),
(422,41,cs),
(454,76,o),
(466,87,o),
(472,87,cs),
(480,87,o),
(482,72,o),
(482,0,c),
(514,0,l),
(509,180,o),
(509,300,o),
(514,480,c),
(482,480,l),
(482,408,o),
(480,393,o),
(472,393,cs),
(466,393,o),
(454,404,o),
(422,439,cs),
(387,479,o),
(335,496,o),
(284,496,cs),
(152,496,o),
(73,400,o),
(73,240,cs),
(73,80,o),
(152,-16,o),
(284,-16,cs)
);
},
{
closed = 1;
nodes = (
(164,21,o),
(96,106,o),
(96,240,cs),
(96,374,o),
(164,459,o),
(273,459,cs),
(408,459,o),
(487,378,o),
(487,240,cs),
(487,102,o),
(408,21,o),
(273,21,cs)
);
}
);
};
layerId = "60D037D9-62E9-4843-B070-F1594CB0B0D1";
shapes = (
{
closed = 1;
nodes = (
(370,-16,o),
(418,30,o),
(446,62,cs),
(459,77,o),
(469,87,o),
(476,87,cs),
(481,87,o),
(485,80,o),
(485,50,cs),
(485,38,o),
(485,22,o),
(484,0,c),
(514,0,l),
(509,180,o),
(509,300,o),
(514,480,c),
(483,480,l),
(485,457,o),
(485,440,o),
(485,427,cs),
(484,400,o),
(481,393,o),
(476,393,cs),
(470,393,o),
(458,405,o),
(443,421,cs),
(414,452,o),
(367,496,o),
(279,496,cs),
(149,496,o),
(66,400,o),
(66,240,cs),
(66,80,o),
(149,-16,o),
(279,-16,cs)
);
},
{
closed = 1;
nodes = (
(155,21,o),
(89,106,o),
(89,240,cs),
(89,374,o),
(154,459,o),
(279,459,cs),
(403,459,o),
(488,384,o),
(488,240,cs),
(488,96,o),
(404,21,o),
(279,21,cs)
);
}
);
width = 590;
}
);
metricLeft = o;
metricRight = n;
unicode = 97;
},
{
color = 4;
glyphname = b;
lastChange = "2023-12-08 17:49:25 +0000";
layers = (
{
anchors = (
{
name = bottom;
pos = (342,0);
},
{
name = center;
pos = (342,250);
},
{
name = top;
pos = (342,500);
}
);
background = {
shapes = (
{
pos = (640,0);
ref = a;
scale = (-1,1);
}
);
};
layerId = m01;
shapes = (
{
closed = 1;
nodes = (
(483,-6,o),
(553,75,o),
(552,251,cs),
(553,427,o),
(483,508,o),
(328,508,cs),
(217,508,o),
(184,468,o),
(167,443,cs),
(152,421,o),
(142,410,o),
(135,410,cs),
(126,410,o),
(123,420,o),
(123,437,cs),
(123,452,o),
(124,715,o),
(126,740,c),
(43,740,l),
(46,543,o),
(46,197,o),
(43,2,c),
(126,2,l),
(124,27,o),
(123,50,o),
(123,65,cs),
(123,82,o),
(126,92,o),
(135,92,cs),
(142,92,o),
(152,81,o),
(167,59,cs),
(184,34,o),
(217,-6,o),
(328,-6,cs)
);
},
{
closed = 1;
nodes = (
(181,183,o),
(138,200,o),
(137,251,cs),
(138,302,o),
(181,319,o),
(311,319,cs),
(440,319,o),
(484,302,o),
(485,251,cs),
(484,200,o),
(440,183,o),
(311,183,cs)
);
}
);
width = 598;
},
{
anchors = (
{
name = bottom;
pos = (294,0);
},
{
name = center;
pos = (294,240);
},
{
name = top;
pos = (294,480);
}
);
layerId = "60D037D9-62E9-4843-B070-F1594CB0B0D1";
shapes = (
{
closed = 1;
nodes = (
(452,-16,o),
(535,80,o),
(535,240,cs),
(535,400,o),
(452,496,o),
(322,496,cs),
(234,496,o),
(187,452,o),
(158,421,cs),
(143,405,o),
(131,393,o),
(125,393,cs),
(120,393,o),
(116,400,o),
(116,427,cs),
(116,504,o),
(116,656,o),
(119,740,c),
(86,740,l),
(92,393,o),
(92,346,o),
(87,0,c),
(117,0,l),
(116,22,o),
(116,38,o),
(116,50,cs),
(116,80,o),
(120,87,o),
(125,87,cs),
(132,87,o),
(142,77,o),
(155,62,cs),
(183,30,o),
(231,-16,o),
(322,-16,cs)
);
},
{
closed = 1;
nodes = (
(197,21,o),
(113,96,o),
(113,240,cs),
(113,384,o),
(198,459,o),
(322,459,cs),
(447,459,o),
(512,374,o),
(512,240,cs),
(512,106,o),
(446,21,o),
(322,21,cs)
);
}
);
width = 601;
}
);
metricLeft = h;
metricRight = o;
unicode = 98;
},
{
color = 4;
glyphname = c;
lastChange = "2023-12-08 19:42:22 +0000";
layers = (
{
anchors = (
{
name = bottom;
pos = (280,0);
},
{
name = top;
pos = (290,500);
}
);
background = {
shapes = (
{
pos = (10,0);
ref = o;
}
);
};
layerId = m01;
shapes = (
{
closed = 1;
nodes = (
(370,-10,o),
(419,1,o),
(461,20,c),
(461,199,l),
(436,191,o),
(380,179,o),
(310,179,cs),
(158,179,o),
(110,198,o),
(110,250,cs),
(110,304,o),
(158,319,o),
(310,319,cs),
(388,319,o),
(434,308,o),
(461,299,c),
(461,478,l),
(423,498,o),
(370,508,o),
(310,508,cs),
(129,508,o),
(46,422,o),
(46,250,cs),
(46,78,o),
(129,-10,o),
(310,-10,cs)
);
}
);
width = 503;
},
{
anchors = (
{
name = bottom;
pos = (284,0);
},
{
name = top;
pos = (292,480);
}
);
guides = (
{
locked = 1;
pos = (162,240);
}
);
layerId = "60D037D9-62E9-4843-B070-F1594CB0B0D1";
shapes = (
{
closed = 1;
nodes = (
(373,-16,o),
(408,-9,o),
(456,5,c),
(456,41,l),
(396,25,o),
(347,20,o),
(310,20,cs),
(178,20,o),
(91,86,o),
(91,240,cs),
(91,394,o),
(178,460,o),
(310,460,cs),
(347,460,o),
(396,455,o),
(456,439,c),
(456,475,l),
(408,489,o),
(373,496,o),
(307,496,cs),
(164,496,o),
(66,406,o),
(66,240,cs),
(66,74,o),
(164,-16,o),
(307,-16,cs)
);
}
);
width = 504;
}
);
metricLeft = o;
unicode = 99;
},
{
color = 4;
glyphname = d;
lastChange = "2023-12-08 17:49:25 +0000";
layers = (
{
anchors = (
{
name = bottom;
pos = (317,0);
},
{
name = center;
pos = (317,250);
},
{
name = top;
pos = (317,500);
},
{
name = topright;
pos = (620,740);
}
);
background = {
shapes = (
{
pos = (-35,0);
ref = o;
}
);
};
layerId = m01;
shapes = (
{
closed = 1;
nodes = (
(381,-6,o),
(414,34,o),
(431,59,cs),
(446,81,o),
(456,92,o),
(463,92,cs),
(472,92,o),
(475,82,o),
(475,65,cs),
(475,50,o),
(474,27,o),
(472,2,c),
(554,2,l),
(551,197,o),
(551,543,o),
(554,740,c),
(472,740,l),
(474,715,o),
(475,452,o),
(475,437,cs),
(475,420,o),
(472,410,o),
(463,410,cs),
(456,410,o),
(446,421,o),
(431,443,cs),
(414,468,o),
(381,508,o),
(270,508,cs),
(115,508,o),
(45,427,o),
(46,251,cs),
(45,75,o),
(115,-6,o),
(270,-6,cs)
);
},
{
closed = 1;
nodes = (
(157,183,o),
(113,200,o),
(112,251,cs),
(113,302,o),
(157,319,o),
(286,319,cs),
(416,319,o),
(459,302,o),
(460,251,cs),
(459,200,o),
(416,183,o),
(286,183,cs)
);
}
);
width = 597;
},
{
anchors = (
{
name = bottom;
pos = (298,0);
},
{
name = center;
pos = (298,240);
},
{
name = top;
pos = (298,480);
},
{
name = topright;
pos = (572,740);
}
);
background = {
shapes = (
{
closed = 1;
nodes = (
(413,-16,o),
(453,87,o),
(476,87,cs),
(485,87,o),
(488,72,o),
(484,0,c),
(514,0,l),
(509,277,o),
(509,462,o),
(514,740,c),
(484,740,l),
(488,453,o),
(485,393,o),
(476,393,cs),
(453,393,o),
(413,496,o),
(279,496,cs),
(149,496,o),
(66,400,o),
(66,240,cs),
(66,80,o),
(149,-16,o),
(279,-16,cs)
);
},
{
closed = 1;
nodes = (
(155,21,o),
(89,106,o),
(89,240,cs),
(89,374,o),
(154,459,o),
(279,459,cs),
(402,459,o),
(487,381,o),
(487,240,cs),
(487,105,o),
(403,21,o),
(279,21,cs)
);
}
);
};
layerId = "60D037D9-62E9-4843-B070-F1594CB0B0D1";
shapes = (
{
closed = 1;
nodes = (
(370,-16,o),
(418,30,o),
(446,62,cs),
(459,77,o),
(469,87,o),
(476,87,cs),
(481,87,o),
(485,80,o),
(485,50,cs),
(485,38,o),
(485,22,o),
(484,0,c),
(514,0,l),
(509,346,o),
(509,393,o),
(515,740,c),
(482,740,l),
(485,656,o),
(485,504,o),
(485,427,cs),
(485,400,o),
(481,393,o),
(476,393,cs),
(470,393,o),
(458,405,o),
(443,421,cs),
(414,452,o),
(367,496,o),
(279,496,cs),
(149,496,o),
(66,400,o),
(66,240,cs),
(66,80,o),
(149,-16,o),
(279,-16,cs)
);
},
{
closed = 1;
nodes = (
(155,21,o),
(89,106,o),
(89,240,cs),
(89,374,o),
(154,459,o),
(279,459,cs),
(403,459,o),
(488,384,o),
(488,240,cs),
(488,96,o),
(404,21,o),
(279,21,cs)
);
}
);
width = 601;
}
);
metricLeft = o;
metricRight = "=|h";
unicode = 100;
},
{
color = 4;
glyphname = e;
lastChange = "2023-12-08 18:44:31 +0000";
layers = (
{
anchors = (
{
name = bottom;
pos = (271,0);
},
{
name = ogonek;
pos = (491,9);
},
{
name = top;
pos = (282,500);
}
);
background = {
shapes = (
{
pos = (-4,0);
ref = o;
}
);
};
backgroundImage = {
imagePath = "../../../../Downloads/Images/e-ExtraBold.tif";
locked = 1;
pos = (-960,-3564);
scale = (1.4452,1.4452);
};
layerId = m01;
shapes = (
{
closed = 1;
nodes = (
(413,-10,o),
(450,-3,o),
(491,9,c),
(491,203,l),
(410,185,o),
(357,178,o),
(294,178,cs),
(191,178,o),
(131,191,o),
(114,230,c),
(504,230,l),
(504,438,o),
(443,508,o),
(275,508,cs),
(132,508,o),
(46,411,o),
(46,250,cs),
(46,72,o),
(129,-10,o),
(342,-10,cs)
);
},
{
closed = 1;
nodes = (
(121,317,o),
(185,343,o),
(275,343,cs),
(370,343,o),
(434,317,o),
(436,285,c),
(119,285,l)
);
}
);
width = 542;
},
{
anchors = (
{
name = bottom;
pos = (321,0);
},
{
name = ogonek;
pos = (478,11);
},
{
name = top;
pos = (299,480);
}
);
background = {
shapes = (
{
closed = 1;
nodes = (
(374,-16,o),
(421,-6,o),
(478,11,c),
(478,41,l),
(417,25,o),
(373,21,o),
(332,21,cs),
(182,21,o),
(110,75,o),
(90,201,c),
(506,201,l),
(506,357,o),
(458,496,o),
(287,496,cs),
(138,496,o),
(68,390,o),
(66,247,cs),
(64,79,o),
(157,-16,o),
(321,-16,cs)
);
},
{
closed = 1;
nodes = (
(90,391,o),
(158,459,o),
(287,459,cs),
(421,459,o),
(482,385,o),
(482,228,c),
(90,228,l)
);
}
);
};
guides = (
{
angle = 90;
pos = (297,259);
}
);
layerId = "60D037D9-62E9-4843-B070-F1594CB0B0D1";
shapes = (
{
closed = 1;
nodes = (
(374,-16,o),
(421,-6,o),
(478,11,c),
(478,41,l),
(417,25,o),
(373,21,o),
(332,21,cs),
(182,21,o),
(110,75,o),
(90,201,c),
(506,201,l),
(506,372,o),
(458,496,o),
(287,496,cs),
(138,496,o),
(66,392,o),
(66,231,cs),
(66,83,o),
(157,-16,o),
(321,-16,cs)
);
},
{
closed = 1;
nodes = (
(90,391,o),
(158,459,o),
(287,459,cs),
(421,459,o),
(482,385,o),
(479,228,c),
(90,228,l)
);
}
);
width = 566;
}
);
metricLeft = o;
unicode = 101;
},
{
color = 4;
glyphname = f;
lastChange = "2023-12-08 17:49:25 +0000";
layers = (
{
background = {
shapes = (
{
pos = (-130,762);
ref = R;
scale = (1,-1);
}
);
};
layerId = m01;
shapes = (
{
closed = 1;
nodes = (
(187,0,l),
(184,90,o),
(182,182,o),
(182,291,c),
(239,291,o),
(295,291,o),
(352,291,c),
(352,500,l),
(295,500,o),
(239,500,o),
(182,500,c),
(183,515,o),
(187,527,o),
(197,536,cs),
(209,548,o),
(231,554,o),
(267,554,cs),
(303,554,o),
(347,547,o),
(385,531,c),
(385,740,l),
(367,742,o),
(351,743,o),
(335,743,cs),
(239,743,o),
(180,708,o),
(143,635,cs),
(129,608,o),
(121,584,o),
(115,552,cs),
(113,537,o),
(111,520,o),
(109,500,c),
(80,500,o),
(51,500,o),
(22,500,c),
(22,291,l),
(51,291,o),
(80,291,o),
(109,291,c),
(109,182,o),
(107,90,o),
(104,0,c)
);
}
);
width = 381;
},
{
background = {
shapes = (
{
pos = (-31,788);
ref = t;
scale = (1,-1);
}
);
};
layerId = "60D037D9-62E9-4843-B070-F1594CB0B0D1";
shapes = (
{
closed = 1;
nodes = (
(134,0,l),
(129,149,o),
(129,298,o),
(129,447,c),
(180,447,o),
(231,447,o),
(282,447,c),
(282,480,l),
(230,480,o),
(179,480,o),
(127,480,c),
(128,514,o),
(126,545,o),
(126,573,cs),
(126,646,o),
(157,704,o),
(240,707,cs),
(261,708,o),
(281,704,o),
(303,697,c),
(303,732,l),
(294,734,o),
(275,737,o),
(253,737,cs),
(208,737,o),
(160,726,o),
(131,686,cs),
(106,652,o),
(104,585,o),
(104,519,cs),
(104,506,o),
(104,493,o),
(104,480,c),
(82,480,o),
(61,480,o),
(39,480,c),
(39,447,l),
(61,447,o),
(82,447,o),
(104,447,c),
(104,298,o),
(104,149,o),
(99,0,c)
);
}
);
width = 272;
}
);
unicode = 102;
},
{
color = 4;
glyphname = g;
lastChange = "2023-12-08 17:49:25 +0000";
layers = (
{
anchors = (
{
name = bottom;
pos = (277,-227);
},
{
name = top;
pos = (277,500);
}
);
background = {
shapes = (
{
pos = (-4,0);
ref = a;
}
);
};
layerId = m01;
shapes = (
{
closed = 1;
nodes = (
(470,-196,o),
(549,-102,o),
(549,102,cs),
(549,150,o),
(548,304,o),
(551,500,c),
(472,500,l),
(474,475,o),
(475,452,o),
(475,437,cs),
(475,420,o),
(472,410,o),
(463,410,cs),
(456,410,o),
(446,421,o),
(431,443,cs),
(414,468,o),
(381,508,o),
(270,508,cs),
(115,508,o),
(42,432,o),
(46,256,cs),
(49,114,o),
(115,42,o),
(270,42,cs),
(381,42,o),
(413,83,o),
(431,107,cs),
(447,129,o),
(456,140,o),
(463,140,cs),
(473,140,o),
(476,130,o),
(474,113,cs),
(466,47,o),
(444,-10,o),
(288,-10,cs),
(215,-10,o),
(103,21,o),
(78,34,c),
(78,-172,l),
(120,-183,o),
(190,-196,o),
(268,-196,cs)
);
},
{
closed = 1;
nodes = (
(156,193,o),
(111,215,o),
(111,256,cs),
(111,297,o),
(156,319,o),
(285,319,cs),
(415,319,o),
(459,297,o),
(459,256,cs),
(459,215,o),
(415,193,o),
(285,193,cs)
);
}
);
width = 588;
},
{
anchors = (
{
name = bottom;
pos = (275,-207);
},
{
name = top;
pos = (299,480);
}
);
background = {
shapes = (
{
closed = 1;
nodes = (
(413,-16,o),
(455,87,o),
(475,87,cs),
(485,87,o),
(494,58,o),
(489,27,cs),
(462,-127,o),
(384,-181,o),
(260,-181,cs),
(218,-181,o),
(157,-175,o),
(96,-159,c),
(96,-194,l),
(147,-210,o),
(204,-217,o),
(249,-217,cs),
(414,-217,o),
(508,-124,o),
(508,47,cs),
(508,210,o),
(509,318,o),
(514,480,c),
(484,480,l),
(488,408,o),
(485,393,o),
(476,393,cs),
(453,393,o),
(413,496,o),
(279,496,cs),
(149,496,o),
(66,400,o),
(66,240,cs),
(66,80,o),
(149,-16,o),
(279,-16,cs)
);
},
{
closed = 1;
nodes = (
(155,21,o),
(89,106,o),
(89,240,cs),
(89,374,o),
(154,459,o),
(280,459,cs),
(402,459,o),
(487,380,o),
(487,242,cs),
(487,105,o),
(403,21,o),
(279,21,cs)
);
}
);
};
layerId = "60D037D9-62E9-4843-B070-F1594CB0B0D1";
shapes = (
{
closed = 1;
nodes = (
(425,-207,o),
(508,-117,o),
(508,47,cs),
(508,210,o),
(509,318,o),
(514,480,c),
(483,480,l),
(485,461,o),
(486,446,o),
(486,435,cs),
(486,401,o),
(483,393,o),
(476,393,cs),
(471,393,o),
(459,405,o),
(437,427,cs),
(411,454,o),
(364,496,o),
(279,496,cs),
(149,496,o),
(66,400,o),
(66,240,cs),
(66,80,o),
(149,-16,o),
(279,-16,cs),
(371,-16,o),
(421,32,o),
(443,58,cs),
(464,83,o),
(470,87,o),
(475,87,cs),
(483,87,o),
(486,74,o),
(486,39,cs),
(486,-89,o),
(406,-171,o),
(281,-171,cs),
(243,-171,o),
(189,-164,o),
(129,-143,c),
(129,-182,l),
(179,-198,o),
(227,-207,o),
(275,-207,cs)
);
},
{
closed = 1;
nodes = (
(155,21,o),
(89,106,o),
(89,240,cs),
(89,374,o),
(154,459,o),
(280,459,cs),
(402,459,o),
(487,380,o),
(487,242,cs),
(487,105,o),
(403,21,o),
(279,21,cs)
);
}
);
width = 582;
}
);
metricLeft = o;
unicode = 103;
},
{
color = 4;
glyphname = h;
lastChange = "2023-12-08 17:49:25 +0000";
layers = (
{
anchors = (
{
name = bottom;
pos = (266,0);
},
{
name = center;
pos = (266,250);
},
{
name = top;
pos = (266,740);
}
);
background = {
shapes = (
{
closed = 1;
nodes = (
(110,0,l),
(107,83,o),
(106,128,o),
(106,176,cs),
(106,228,o),
(119,233,o),
(268,233,cs),
(417,233,o),
(430,228,o),
(430,176,cs),
(430,111,o),
(430,78,o),
(425,0,c),
(516,0,l),
(513,62,o),
(512,195,o),
(512,356,cs),
(512,477,o),
(425,516,o),
(323,516,cs),
(146,516,o),
(142,410,o),
(117,410,cs),
(103,410,o),
(102,436,o),
(106,740,c),
(19,740,l),
(24,395,o),
(24,345,o),
(19,0,c)
);
}
);
};
layerId = m01;
shapes = (
{
closed = 1;
nodes = (
(134,0,l),
(133,37,o),
(133,50,o),
(131,87,cs),
(129,119,o),
(128,184,o),
(128,213,cs),
(128,265,o),
(138,270,o),
(285,270,cs),
(432,270,o),
(443,265,o),
(443,213,cs),
(443,140,o),
(443,67,o),
(438,0,c),
(529,0,l),
(526,62,o),
(525,186,o),
(525,347,cs),
(525,465,o),
(417,508,o),
(322,508,cs),
(223,508,o),
(184,469,o),
(165,439,cs),
(146,409,o),
(139,403,o),
(131,403,cs),
(126,403,o),
(124,409,o),
(124,437,cs),
(124,456,o),
(125,721,o),
(127,740,c),
(43,740,l),
(47,624,o),
(48,317,o),
(48,251,cs),
(48,184,o),
(47,117,o),
(43,0,c)
);
}
);
width = 564;
},
{
anchors = (
{
name = bottom;
pos = (288,0);
},
{
name = center;
pos = (288,240);
},
{
name = top;
pos = (288,740);
}
);
layerId = "60D037D9-62E9-4843-B070-F1594CB0B0D1";
shapes = (
{
closed = 1;
nodes = (
(117,0,l),
(115,77,o),
(112,157,o),
(112,221,cs),
(112,276,o),
(114,318,o),
(121,337,cs),
(143,398,o),
(205,459,o),
(323,459,cs),
(420,459,o),
(474,417,o),
(474,328,cs),
(474,205,o),
(474,135,o),
(469,0,c),
(500,0,l),
(497,58,o),
(497,167,o),
(497,356,cs),
(497,419,o),
(467,496,o),
(332,496,cs),
(225,496,o),
(176,449,o),
(158,426,cs),
(137,399,o),
(131,393,o),
(127,393,cs),
(121,393,o),
(118,394,o),
(118,422,cs),
(118,493,o),
(118,592,o),
(118,740,c),
(86,740,l),
(89,582,o),
(90,493,o),
(90,403,cs),
(90,296,o),
(89,187,o),
(86,0,c)
);
}
);
width = 576;
}
);
metricLeft = n;
metricRight = n;
unicode = 104;
},
{
color = 4;
glyphname = i;
lastChange = "2023-12-08 17:49:25 +0000";
layers = (
{
anchors = (
{
name = bottom;
pos = (218,0);
}
);
background = {
shapes = (
{
closed = 1;
nodes = (
(392,0,l),
(392,38,o),
(392,57,o),
(392,95,c),
(293,95,l),
(292,253,o),
(294,308,o),
(296,500,c),
(45,500,l),
(46,418,o),
(47,332,o),
(46,250,c),
(102,250,o),
(159,250,o),
(215,250,c),
(217,203,o),
(218,142,o),
(216,95,c),
(158,95,o),
(99,95,o),
(41,95,c),
(41,57,o),
(41,38,o),
(41,0,c)
);
},
{
closed = 1;
nodes = (
(306,636,o),
(335,653,o),
(335,700,cs),
(335,749,o),
(306,766,o),
(223,766,cs),
(140,766,o),
(111,749,o),
(111,700,cs),
(111,653,o),
(140,636,o),
(223,636,cs)
);
}
);
};
layerId = m01;
shapes = (
{
closed = 1;
nodes = (
(349,0,l),
(349,129,l),
(323,129,o),
(290,128,o),
(272,129,cs),
(239,131,o),
(235,137,o),
(235,210,cs),
(235,283,o),
(238,466,o),
(239,500,c),
(62,500,l),
(62,291,l),
(89,291,o),
(109,292,o),
(127,291,cs),
(160,289,o),
(164,283,o),
(164,210,cs),
(164,137,o),
(160,131,o),
(127,129,cs),
(109,128,o),
(76,129,o),
(50,129,c),
(50,0,l)
);
},
{
closed = 1;
nodes = (
(249,596,o),
(278,619,o),
(278,668,cs),
(278,717,o),
(249,740,o),
(185,740,cs),
(118,740,o),
(87,717,o),
(87,668,cs),
(87,619,o),
(118,596,o),
(185,596,cs)
);
}
);
width = 371;
},
{
anchors = (
{
name = bottom;
pos = (223,0);
}
);
guides = (
{
pos = (738,11);
}
);
layerId = "60D037D9-62E9-4843-B070-F1594CB0B0D1";
shapes = (
{
closed = 1;
nodes = (
(412,0,l),
(412,32,l),
(368,28,o),
(340,27,o),
(274,27,cs),
(236,27,o),
(236,29,o),
(236,231,cs),
(236,387,o),
(236,390,o),
(240,480,c),
(49,480,l),
(49,445,l),
(94,449,o),
(133,452,o),
(173,452,cs),
(215,452,o),
(215,450,o),
(215,231,cs),
(215,29,o),
(214,27,o),
(165,27,cs),
(104,27,o),
(78,28,o),
(39,32,c),
(39,0,l)
);
},
{
closed = 1;
nodes = (
(239,645,o),
(254,658,o),
(254,685,cs),
(254,715,o),
(239,729,o),
(208,729,cs),
(176,729,o),
(161,715,o),
(161,685,cs),
(161,658,o),
(176,645,o),
(208,645,cs)
);
}
);
width = 418;
}
);
unicode = 105;
},
{
color = 2;
glyphname = idotless;
lastChange = "2023-12-08 19:45:40 +0000";
layers = (
{
anchors = (
{
name = bottom;
pos = (209,0);
},
{
name = ogonek;
pos = (300,0);
},
{
name = top;
pos = (209,480);
}
);
background = {
shapes = (
{
closed = 1;
nodes = (
(239,645,o),
(254,658,o),
(254,685,cs),
(254,715,o),
(239,729,o),
(208,729,cs),
(176,729,o),
(161,715,o),
(161,685,cs),
(161,658,o),
(176,645,o),
(208,645,cs)
);
}
);
};
layerId = "60D037D9-62E9-4843-B070-F1594CB0B0D1";
shapes = (
{
closed = 1;
nodes = (
(412,0,l),
(412,32,l),
(368,28,o),
(340,27,o),
(274,27,cs),
(236,27,o),
(236,29,o),
(236,231,cs),
(236,387,o),
(236,390,o),
(240,480,c),
(49,480,l),
(49,445,l),
(94,449,o),
(133,452,o),
(173,452,cs),
(215,452,o),
(215,450,o),
(215,231,cs),
(215,29,o),
(214,27,o),
(165,27,cs),
(104,27,o),
(78,28,o),
(39,32,c),
(39,0,l)
);
}
);
width = 418;
},
{
anchors = (
{
name = bottom;
pos = (186,0);
},
{
name = ogonek;
pos = (285,0);
},
{
name = top;
pos = (166,500);
}
);
background = {
shapes = (
{
closed = 1;
nodes = (
(249,596,o),
(278,619,o),
(278,668,cs),
(278,717,o),
(249,740,o),
(185,740,cs),
(118,740,o),
(87,717,o),
(87,668,cs),
(87,619,o),
(118,596,o),
(185,596,cs)
);
}
);
};
layerId = m01;
shapes = (
{
closed = 1;
nodes = (
(349,0,l),
(349,129,l),
(323,129,o),
(290,128,o),
(272,129,cs),
(239,131,o),
(235,137,o),
(235,210,cs),
(235,283,o),
(238,466,o),
(239,500,c),
(62,500,l),
(62,291,l),
(89,291,o),
(109,292,o),
(127,291,cs),
(160,289,o),
(164,283,o),
(164,210,cs),
(164,137,o),
(160,131,o),
(127,129,cs),
(109,128,o),
(76,129,o),
(50,129,c),
(50,0,l)
);
}
);
width = 371;
}
);
unicode = 305;
},
{
color = 4;
glyphname = j;
lastChange = "2023-12-08 17:49:25 +0000";
layers = (
{
background = {
shapes = (
{
pos = (-21,0);
ref = i;
}
);
};
layerId = m01;
shapes = (
{
closed = 1;
nodes = (
(198,-242,o),
(223,-200,o),
(223,-22,cs),
(223,232,o),
(224,373,o),
(227,500,c),
(51,500,l),
(51,291,l),
(72,291,o),
(93,292,o),
(116,291,cs),
(149,289,o),
(153,281,o),
(153,124,cs),
(153,-16,o),
(151,-60,o),
(71,-60,cs),
(16,-60,o),
(-18,-51,o),
(-37,-43,c),
(-37,-230,l),
(1,-240,o),
(33,-242,o),
(55,-242,cs)
);
},
{
closed = 1;
nodes = (
(248,612,o),
(282,634,o),
(282,682,cs),
(282,733,o),
(247,756,o),
(171,756,cs),
(96,756,o),
(61,734,o),
(61,685,cs),
(61,635,o),
(97,612,o),
(175,612,cs)
);
}
);
width = 282;
},
{
background = {
shapes = (
{
pos = (-6,0);
ref = i;
}
);
};
layerId = "60D037D9-62E9-4843-B070-F1594CB0B0D1";
shapes = (
{
closed = 1;
nodes = (
(170,-207,o),
(230,-138,o),
(230,16,cs),
(230,313,o),
(230,349,o),
(234,480,c),
(43,480,l),
(43,444,l),
(80,448,o),
(125,452,o),
(145,452,cs),
(209,452,o),
(209,452,o),
(209,233,cs),
(209,-92,o),
(179,-171,o),
(53,-171,cs),
(23,-171,o),
(-4,-165,o),
(-48,-148,c),
(-48,-190,l),
(0,-202,o),
(30,-207,o),
(62,-207,cs)
);
},
{
closed = 1;
nodes = (
(244,656,o),
(255,665,o),
(255,697,cs),
(255,731,o),
(244,740,o),
(203,740,cs),
(164,740,o),
(153,731,o),
(153,697,cs),
(153,665,o),
(164,656,o),
(203,656,cs)
);
}
);
width = 330;
}
);
unicode = 106;
},
{
color = 4;
glyphname = jdotless;
lastChange = "2023-12-08 17:49:25 +0000";
layers = (
{
anchors = (
{
name = bottom;
pos = (165,-260);
},
{
name = top;
pos = (165,480);
}
);
background = {
shapes = (
{
closed = 1;
nodes = (
(244,656,o),
(255,665,o),
(255,697,cs),
(255,731,o),
(244,740,o),
(203,740,cs),
(164,740,o),
(153,731,o),
(153,697,cs),
(153,665,o),
(164,656,o),
(203,656,cs)
);
}
);
};
layerId = "60D037D9-62E9-4843-B070-F1594CB0B0D1";
shapes = (
{
closed = 1;
nodes = (
(170,-207,o),
(230,-138,o),
(230,16,cs),
(230,313,o),
(230,349,o),
(234,480,c),
(43,480,l),
(43,444,l),
(80,448,o),
(125,452,o),
(145,452,cs),
(209,452,o),
(209,452,o),
(209,233,cs),
(209,-92,o),
(179,-171,o),
(53,-171,cs),
(23,-171,o),
(-4,-165,o),
(-48,-148,c),
(-48,-190,l),
(0,-202,o),
(30,-207,o),
(62,-207,cs)
);
}
);
width = 330;
},
{
anchors = (
{
name = bottom;
pos = (141,-260);
},
{
name = top;
pos = (141,500);
}
);
background = {
shapes = (
{
closed = 1;
nodes = (
(248,612,o),
(282,634,o),
(282,682,cs),
(282,733,o),
(247,756,o),
(171,756,cs),
(96,756,o),
(61,734,o),
(61,685,cs),
(61,635,o),
(97,612,o),
(175,612,cs)
);
}
);
};
layerId = m01;
shapes = (
{
closed = 1;
nodes = (
(198,-242,o),
(223,-200,o),
(223,-22,cs),
(223,232,o),
(224,373,o),
(227,500,c),
(51,500,l),
(51,291,l),
(72,291,o),
(93,292,o),
(116,291,cs),
(149,289,o),
(153,281,o),
(153,124,cs),
(153,-16,o),
(151,-60,o),
(71,-60,cs),
(16,-60,o),
(-18,-51,o),
(-37,-43,c),
(-37,-230,l),
(1,-240,o),
(33,-242,o),
(55,-242,cs)
);
}
);
width = 282;
}
);
unicode = 567;
},
{
color = 4;
glyphname = k;
lastChange = "2023-12-08 17:49:25 +0000";
layers = (
{
anchors = (
{
name = bottom;
pos = (249,0);
},
{
name = top;
pos = (249,740);
}
);
layerId = m01;
shapes = (
{
closed = 1;
nodes = (
(128,0,l),
(126,32,o),
(125,92,o),
(125,122,cs),
(125,155,o),
(144,160,o),
(284,160,cs),
(410,160,o),
(419,156,o),
(419,114,cs),
(419,90,o),
(416,17,o),
(416,0,c),
(501,0,l),
(497,198,o),
(500,254,o),
(491,292,cs),
(478,346,o),
(441,364,o),
(403,372,c),
(419,410,o),
(436,451,o),
(458,500,c),
(352,500,l),
(352,489,o),
(348,466,o),
(342,445,cs),
(321,373,o),
(289,373,o),
(216,373,cs),
(139,373,o),
(123,375,o),
(124,446,cs),
(129,740,l),
(43,740,l),
(46,405,o),
(46,84,o),
(43,0,c)
);
}
);
width = 525;
},
{
anchors = (
{
name = bottom;
pos = (237,0);
},
{
name = top;
pos = (237,740);
}
);
background = {
shapes = (
{
closed = 1;
nodes = (
(311,290,ls),
(365,290,o),
(374,286,o),
(381,311,cs),
(394,356,o),
(414,429,o),
(432,501,c),
(413,501,l),
(392,418,o),
(379,355,o),
(368,328,cs),
(364,318,o),
(355,309,o),
(310,306,cs),
(259,304,o),
(183,307,o),
(62,307,c),
(63,290,l)
);
},
{
closed = 1;
nodes = (
(66,0,l),
(64,252,l),
(64,328,l),
(70,801,l),
(45,801,l),
(52,534,o),
(52,267,o),
(49,0,c)
);
},
{
closed = 1;
nodes = (
(459,0,l),
(436,114,o),
(413,231,o),
(372,304,c),
(360,290,l),
(392,231,o),
(408,131,o),
(435,0,c)
);
}
);
};
layerId = "60D037D9-62E9-4843-B070-F1594CB0B0D1";
shapes = (
{
closed = 1;
nodes = (
(117,0,l),
(116,21,o),
(114,204,o),
(114,221,cs),
(114,266,o),
(127,274,o),
(222,274,cs),
(386,274,o),
(416,254,o),
(423,177,cs),
(427,134,o),
(425,72,o),
(425,0,c),
(456,0,l),
(452,137,o),
(447,189,o),
(441,216,cs),
(430,265,o),
(391,285,o),
(343,295,c),
(364,353,o),
(395,432,o),
(415,480,c),
(375,480,l),
(375,469,o),
(356,402,o),
(344,366,cs),
(321,298,o),
(315,297,o),
(205,297,cs),
(124,297,o),
(108,299,o),
(109,366,cs),
(114,740,l),
(86,740,l),
(89,405,o),
(89,84,o),
(86,0,c)
);
}
);
width = 510;
}
);
metricLeft = n;
unicode = 107;
},
{
color = 4;
glyphname = l;
lastChange = "2023-12-08 17:49:25 +0000";
layers = (
{
anchors = (
{
name = bottom;
pos = (182,0);
},
{
name = center;
pos = (202,324);
},
{
name = top;
pos = (182,741);
},
{
name = topright;
pos = (344,738);
}
);
background = {
shapes = (
{
pos = (-10,0);
ref = i;
}
);
};
layerId = m01;
shapes = (
{
closed = 1;
nodes = (
(352,0,l),
(352,129,l),
(326,129,o),
(304,129,o),
(286,129,cs),
(272,129,o),
(255,130,o),
(250,142,cs),
(241,164,o),
(240,223,o),
(240,324,cs),
(240,507,o),
(246,706,o),
(247,740,c),
(58,740,l),
(58,531,l),
(84,531,o),
(112,532,o),
(130,531,cs),
(163,529,o),
(168,523,o),
(166,324,cs),
(165,223,o),
(167,164,o),
(158,142,cs),
(153,130,o),
(130,129,o),
(116,129,cs),
(98,129,o),
(76,129,o),
(50,129,c),
(50,0,l)
);
}
);
width = 364;
},
{
anchors = (
{
name = bottom;
pos = (209,0);
},
{
name = center;
pos = (216,368);
},
{
name = top;
pos = (209,739);
},
{
name = topright;
pos = (398,739);
}
);
layerId = "60D037D9-62E9-4843-B070-F1594CB0B0D1";
shapes = (
{
closed = 1;
nodes = (
(406,0,l),
(406,32,l),
(362,28,o),
(334,27,o),
(268,27,cs),
(255,27,o),
(247,27,o),
(241,40,cs),
(230,66,o),
(230,143,o),
(230,369,cs),
(230,601,o),
(230,606,o),
(234,740,c),
(43,740,l),
(43,705,l),
(88,709,o),
(127,712,o),
(167,712,cs),
(209,712,o),
(209,708,o),
(209,369,cs),
(209,148,o),
(209,70,o),
(195,42,cs),
(187,27,o),
(176,27,o),
(159,27,cs),
(98,27,o),
(72,28,o),
(33,32,c),
(33,0,l)
);
}
);
width = 418;
}
);
unicode = 108;
},
{
color = 4;
glyphname = m;
lastChange = "2023-12-08 17:49:25 +0000";
layers = (
{
layerId = "60D037D9-62E9-4843-B070-F1594CB0B0D1";
shapes = (
{
closed = 1;
nodes = (
(116,0,l),
(112,85,o),
(112,119,o),
(112,254,cs),
(112,390,o),
(183,459,o),
(303,459,cs),
(399,459,o),
(459,413,o),
(459,275,cs),
(459,183,o),
(457,92,o),
(453,0,c),
(484,0,l),
(481,99,o),
(481,189,o),
(481,288,cs),
(481,403,o),
(561,459,o),
(676,459,cs),
(772,459,o),
(825,413,o),
(825,275,cs),
(825,183,o),
(823,92,o),
(820,0,c),
(850,0,l),
(847,101,o),
(847,194,o),
(847,296,cs),
(847,433,o),
(788,496,o),
(686,496,cs),
(566,496,o),
(524,442,o),
(503,415,cs),
(490,399,o),
(483,391,o),
(475,391,cs),
(466,391,o),
(459,401,o),
(450,416,cs),
(430,447,o),
(397,496,o),
(307,496,cs),
(212,496,o),
(167,444,o),
(146,414,cs),
(132,394,o),
(125,384,o),
(119,384,cs),
(113,384,o),
(111,395,o),
(111,412,cs),
(111,431,o),
(113,458,o),
(115,480,c),
(86,480,l),
(91,327,o),
(92,153,o),
(86,0,c)
);
}
);
width = 926;
},
{
background = {
shapes = (
{
pos = (-33,0);
ref = n;
}
);
};
layerId = m01;
shapes = (
{
closed = 1;
nodes = (
(134,0,l),
(132,62,o),
(128,141,o),
(128,214,cs),
(128,266,o),
(139,271,o),
(257,271,cs),
(403,271,o),
(414,266,o),
(414,214,cs),
(414,141,o),
(411,62,o),
(409,0,c),
(500,0,l),
(498,62,o),
(494,141,o),
(494,214,cs),
(494,266,o),
(505,271,o),
(623,271,cs),
(770,271,o),
(780,266,o),
(780,214,cs),
(780,141,o),
(777,62,o),
(775,0,c),
(866,0,l),
(863,62,o),
(862,186,o),
(862,347,cs),
(862,465,o),
(764,508,o),
(669,508,cs),
(598,508,o),
(549,469,o),
(530,439,cs),
(511,409,o),
(504,403,o),
(496,403,cs),
(487,403,o),
(482,412,o),
(476,423,cs),
(445,484,o),
(375,508,o),
(304,508,cs),
(233,508,o),
(184,469,o),
(165,439,cs),
(146,409,o),
(139,403,o),
(131,403,cs),
(126,403,o),
(124,409,o),
(124,437,cs),
(124,456,o),
(125,481,o),
(127,500,c),
(43,500,l),
(48,359,o),
(46,62,o),
(43,0,c)
);
}
);
width = 901;
}
);
metricLeft = n;
metricRight = n;
unicode = 109;
},
{
color = 4;
glyphname = n;
lastChange = "2023-12-08 17:49:25 +0000";
layers = (
{
anchors = (
{
name = bottom;
pos = (277,0);
},
{
name = top;
pos = (277,500);
}
);
background = {
shapes = (
{
pos = (607,0);
ref = a;
scale = (-1,1);
}
);
};
guides = (
{
pos = (31,117);
}
);
layerId = m01;
shapes = (
{
closed = 1;
nodes = (
(134,0,l),
(132,37,o),
(130,50,o),
(129,87,cs),
(128,119,o),
(128,182,o),
(128,211,cs),
(128,263,o),
(138,268,o),
(285,268,cs),
(432,268,o),
(443,263,o),
(443,211,cs),
(443,182,o),
(443,67,o),
(438,0,c),
(529,0,l),
(526,62,o),
(525,186,o),
(525,347,cs),
(525,465,o),
(417,508,o),
(322,508,cs),
(223,508,o),
(184,469,o),
(165,439,cs),
(146,409,o),
(139,403,o),
(131,403,cs),
(126,403,o),
(124,409,o),
(124,437,cs),
(124,456,o),
(125,481,o),
(127,500,c),
(43,500,l),
(47,384,o),
(48,317,o),
(48,251,cs),
(48,184,o),
(47,117,o),
(43,0,c)
);
}
);
width = 564;
},
{
anchors = (
{
name = bottom;
pos = (293,0);
},
{
name = top;
pos = (293,480);
}
);
background = {
shapes = (
{
closed = 1;
nodes = (
(104,0,l),
(102,66,o),
(102,80,o),
(102,254,cs),
(102,381,o),
(181,459,o),
(310,459,cs),
(432,459,o),
(488,401,o),
(488,275,cs),
(488,189,o),
(486,104,o),
(483,0,c),
(512,0,l),
(510,103,o),
(510,161,o),
(510,296,cs),
(510,426,o),
(446,496,o),
(326,496,cs),
(206,496,o),
(114,429,o),
(102,333,c),
(102,418,o),
(104,447,o),
(104,480,c),
(75,480,l),
(78,246,o),
(78,221,o),
(75,0,c)
);
}
);
};
layerId = "60D037D9-62E9-4843-B070-F1594CB0B0D1";
shapes = (
{
closed = 1;
nodes = (
(117,0,l),
(115,77,o),
(112,157,o),
(112,221,cs),
(112,276,o),
(114,318,o),
(121,337,cs),
(143,398,o),
(205,459,o),
(323,459,cs),
(420,459,o),
(474,417,o),
(474,328,cs),
(474,205,o),
(474,135,o),
(469,0,c),
(500,0,l),
(497,58,o),
(497,167,o),
(497,356,cs),
(497,419,o),
(467,496,o),
(332,496,cs),
(225,496,o),
(176,449,o),
(158,426,cs),
(137,399,o),
(131,393,o),
(127,393,cs),
(121,393,o),
(119,394,o),
(118,422,cs),
(118,435,o),
(118,453,o),
(118,480,c),
(86,480,l),
(89,368,o),
(90,305,o),
(90,241,cs),
(90,177,o),
(89,112,o),
(86,0,c)
);
}
);
width = 576;
}
);
unicode = 110;
},
{
color = 4;
glyphname = o;
lastChange = "2023-12-08 18:51:33 +0000";
layers = (
{
anchors = (
{
name = bottom;
pos = (288,0);
},
{
name = center;
pos = (288,353);
},
{
name = ogonek;
pos = (320,0);
},
{
name = top;
pos = (288,500);
},
{
name = topright;
pos = (411,377);
}
);
layerId = m01;
shapes = (
{
closed = 1;
nodes = (
(448,-10,o),
(531,68,o),
(531,254,cs),
(531,440,o),
(447,508,o),
(288,508,cs),
(129,508,o),
(46,440,o),
(46,254,cs),
(46,68,o),
(128,-10,o),
(288,-10,cs)
);
},
{
closed = 1;
nodes = (
(152,179,o),
(106,197,o),
(106,249,cs),
(106,301,o),
(152,319,o),
(288,319,cs),
(424,319,o),
(470,301,o),
(470,249,cs),
(470,197,o),
(424,179,o),
(288,179,cs)
);
}
);
width = 577;
},
{
anchors = (
{
name = bottom;
pos = (292,0);
},
{
name = center;
pos = (292,239);
},
{
name = ogonek;
pos = (327,0);
},
{
name = top;
pos = (292,480);
},
{
name = topright;
pos = (432,420);
}
);
guides = (
{
angle = 90;
pos = (292,239);
showMeasurement = 1;
},
{
pos = (292,239);
showMeasurement = 1;
}
);
layerId = "60D037D9-62E9-4843-B070-F1594CB0B0D1";
shapes = (
{
closed = 1;
nodes = (
(448,-16,o),
(518,92,o),
(518,240,cs),
(518,388,o),
(448,496,o),
(292,496,cs),
(136,496,o),
(66,388,o),
(66,240,cs),
(66,92,o),
(136,-16,o),
(292,-16,cs)
);
},
{
closed = 1;
nodes = (
(150,21,o),
(84,116,o),
(84,240,cs),
(84,364,o),
(150,459,o),
(292,459,cs),
(434,459,o),
(500,364,o),
(500,240,cs),
(500,116,o),
(434,21,o),
(292,21,cs)
);
}
);
width = 584;
}
);
unicode = 111;
},
{
color = 4;
glyphname = p;
lastChange = "2023-12-08 17:49:25 +0000";
layers = (
{
anchors = (
{
name = bottom;
pos = (322,0);
},
{
name = top;
pos = (322,500);
}
);
background = {
shapes = (
{
pos = (117,0);
ref = b;
}
);
};
layerId = m01;
shapes = (
{
closed = 1;
nodes = (
(126,-206,l),
(124,-181,o),
(123,50,o),
(123,65,cs),
(123,82,o),
(126,92,o),
(135,92,cs),
(142,92,o),
(152,81,o),
(167,59,cs),
(184,34,o),
(217,-6,o),
(328,-6,cs),
(483,-6,o),
(553,75,o),
(552,251,cs),
(553,427,o),
(483,508,o),
(328,508,cs),
(217,508,o),
(184,468,o),
(167,443,cs),
(152,421,o),
(142,410,o),
(135,410,cs),
(126,410,o),
(123,420,o),
(123,437,cs),
(123,452,o),
(124,475,o),
(126,500,c),
(43,500,l),
(46,303,o),
(46,-11,o),
(43,-206,c)
);
},
{
closed = 1;
nodes = (
(181,183,o),
(138,200,o),
(137,251,cs),
(138,302,o),
(181,319,o),
(311,319,cs),
(440,319,o),
(484,302,o),
(485,251,cs),
(484,200,o),
(440,183,o),
(311,183,cs)
);
}
);
width = 598;
},
{
anchors = (
{
name = bottom;
pos = (294,0);
},
{
name = top;
pos = (294,480);
}
);
layerId = "60D037D9-62E9-4843-B070-F1594CB0B0D1";
shapes = (
{
closed = 1;
nodes = (
(119,-207,l),
(116,-138,o),
(116,-11,o),
(116,53,cs),
(116,80,o),
(120,87,o),
(125,87,cs),
(131,87,o),
(143,75,o),
(158,59,cs),
(187,28,o),
(234,-16,o),
(322,-16,cs),
(452,-16,o),
(535,80,o),
(535,240,cs),
(535,400,o),
(452,496,o),
(322,496,cs),
(231,496,o),
(183,450,o),
(155,418,cs),
(142,403,o),
(132,393,o),
(125,393,cs),
(120,393,o),
(116,400,o),
(116,430,cs),
(116,442,o),
(116,458,o),
(117,480,c),
(87,480,l),
(92,159,o),
(92,115,o),
(86,-207,c)
);
},
{
closed = 1;
nodes = (
(198,21,o),
(113,96,o),
(113,240,cs),
(113,384,o),
(197,459,o),
(322,459,cs),
(446,459,o),
(512,374,o),
(512,240,cs),
(512,106,o),
(447,21,o),
(322,21,cs)
);
}
);
width = 601;
}
);
metricLeft = h;
metricRight = o;
unicode = 112;
},
{
color = 2;
glyphname = thorn;
lastChange = "2023-12-08 19:45:25 +0000";
layers = (
{
layerId = "60D037D9-62E9-4843-B070-F1594CB0B0D1";
shapes = (
{
closed = 1;
nodes = (
(119,-207,l),
(116,-138,o),
(116,-11,o),
(116,53,cs),
(116,80,o),
(120,87,o),
(125,87,cs),
(131,87,o),
(143,75,o),
(158,59,cs),
(187,28,o),
(234,-16,o),
(322,-16,cs),
(452,-16,o),
(535,80,o),
(535,240,cs),
(535,400,o),
(452,496,o),
(322,496,cs),
(231,496,o),
(183,450,o),
(155,418,cs),
(142,403,o),
(132,393,o),
(125,393,cs),
(120,393,o),
(116,400,o),
(116,430,cs),
(116,498,o),
(116,588,o),
(117,712,c),
(87,712,l),
(92,283,o),
(92,224,o),
(86,-207,c)
);
},
{
closed = 1;
nodes = (
(198,21,o),
(113,96,o),
(113,240,cs),
(113,384,o),
(197,459,o),
(322,459,cs),
(446,459,o),
(512,374,o),
(512,240,cs),
(512,106,o),
(447,21,o),
(322,21,cs)
);
}
);
width = 601;
},
{
layerId = m01;
shapes = (
{
closed = 1;
nodes = (
(126,-206,l),
(124,-181,o),
(123,50,o),
(123,65,cs),
(123,82,o),
(126,92,o),
(135,92,cs),
(142,92,o),
(152,81,o),
(167,59,cs),
(184,34,o),
(217,-6,o),
(328,-6,cs),
(483,-6,o),
(553,75,o),
(552,251,cs),
(553,427,o),
(483,508,o),
(328,508,cs),
(217,508,o),
(184,468,o),
(167,443,cs),
(152,421,o),
(142,410,o),
(135,410,cs),
(126,410,o),
(123,420,o),
(123,437,cs),
(123,503,o),
(124,603,o),
(126,712,c),
(43,712,l),
(46,456,o),
(46,48,o),
(43,-206,c)
);
},
{
closed = 1;
nodes = (
(181,183,o),
(138,200,o),
(137,251,cs),
(138,302,o),
(181,319,o),
(311,319,cs),
(440,319,o),
(484,302,o),
(485,251,cs),
(484,200,o),
(440,183,o),
(311,183,cs)
);
}
);
width = 598;
}
);
unicode = 254;
},
{
color = 4;
glyphname = q;
lastChange = "2023-12-08 17:49:25 +0000";
layers = (
{
anchors = (
{
name = bottom;
pos = (255,0);
},
{
name = top;
pos = (255,500);
}
);
layerId = m01;
shapes = (
{
closed = 1;
nodes = (
(555,-206,l),
(552,-11,o),
(552,303,o),
(555,500,c),
(472,500,l),
(474,475,o),
(475,452,o),
(475,437,cs),
(475,420,o),
(472,410,o),
(463,410,cs),
(456,410,o),
(446,421,o),
(431,443,cs),
(414,468,o),
(381,508,o),
(270,508,cs),
(115,508,o),
(45,427,o),
(46,251,cs),
(45,75,o),
(115,-6,o),
(270,-6,cs),
(381,-6,o),
(414,34,o),
(431,59,cs),
(446,81,o),
(456,92,o),
(463,92,cs),
(472,92,o),
(475,82,o),
(475,65,cs),
(475,50,o),
(474,-181,o),
(472,-206,c)
);
},
{
closed = 1;
nodes = (
(158,183,o),
(114,200,o),
(113,251,cs),
(114,302,o),
(158,319,o),
(287,319,cs),
(417,319,o),
(460,302,o),
(461,251,cs),
(460,200,o),
(417,183,o),
(287,183,cs)
);
}
);
width = 598;
},
{
anchors = (
{
name = bottom;
pos = (308,0);
},
{
name = top;
pos = (308,480);
}
);
layerId = "60D037D9-62E9-4843-B070-F1594CB0B0D1";
shapes = (
{
closed = 1;
nodes = (
(515,-207,l),
(509,115,o),
(509,159,o),
(514,480,c),
(484,480,l),
(485,458,o),
(485,442,o),
(485,430,cs),
(485,400,o),
(481,393,o),
(476,393,cs),
(469,393,o),
(459,403,o),
(446,418,cs),
(418,450,o),
(370,496,o),
(279,496,cs),
(149,496,o),
(66,400,o),
(66,240,cs),
(66,80,o),
(149,-16,o),
(279,-16,cs),
(367,-16,o),
(414,28,o),
(443,59,cs),
(458,75,o),
(470,87,o),
(476,87,cs),
(481,87,o),
(485,80,o),
(485,53,cs),
(485,-11,o),
(485,-138,o),
(482,-207,c)
);
},
{
closed = 1;
nodes = (
(154,21,o),
(89,106,o),
(89,240,cs),
(89,374,o),
(155,459,o),
(279,459,cs),
(404,459,o),
(488,384,o),
(488,240,cs),
(488,96,o),
(403,21,o),
(279,21,cs)
);
}
);
width = 601;
}
);
metricLeft = o;
metricRight = "=|h";
unicode = 113;
},
{
color = 4;
glyphname = r;
lastChange = "2023-12-08 17:49:25 +0000";
layers = (
{
anchors = (
{
name = bottom;
pos = (255,0);
},
{
name = top;
pos = (255,500);
}
);
layerId = m01;
shapes = (
{
closed = 1;
nodes = (
(132,0,l),
(130,37,o),
(130,50,o),
(129,87,cs),
(128,119,o),
(128,171,o),
(128,200,cs),
(128,245,o),
(134,265,o),
(277,270,cs),
(332,272,o),
(375,264,o),
(399,258,c),
(399,498,l),
(374,505,o),
(348,508,o),
(322,508,cs),
(223,508,o),
(184,469,o),
(165,439,cs),
(146,409,o),
(139,403,o),
(131,403,cs),
(126,403,o),
(124,409,o),
(124,437,cs),
(124,456,o),
(125,481,o),
(127,500,c),
(43,500,l),
(47,384,o),
(48,317,o),
(48,251,cs),
(48,184,o),
(47,117,o),
(43,0,c)
);
}
);
width = 419;
},
{
anchors = (
{
name = bottom;
pos = (282,0);
},
{
name = top;
pos = (282,480);
}
);
layerId = "60D037D9-62E9-4843-B070-F1594CB0B0D1";
shapes = (
{
closed = 1;
nodes = (
(118,0,l),
(115,78,o),
(113,159,o),
(113,221,cs),
(113,279,o),
(115,298,o),
(122,318,cs),
(142,377,o),
(212,454,o),
(327,454,cs),
(340,454,o),
(346,453,o),
(359,451,c),
(359,493,l),
(348,496,o),
(342,496,o),
(332,496,cs),
(210,496,o),
(162,420,o),
(144,393,cs),
(135,379,o),
(130,373,o),
(124,373,cs),
(121,373,o),
(118,375,o),
(118,402,cs),
(118,418,o),
(118,442,o),
(118,480,c),
(86,480,l),
(89,368,o),
(90,304,o),
(90,239,cs),
(90,176,o),
(89,112,o),
(86,0,c)
);
}
);
width = 348;
}
);
metricLeft = n;
unicode = 114;
},
{
color = 4;
glyphname = s;
lastChange = "2023-12-08 17:49:25 +0000";
layers = (
{
anchors = (
{
name = bottom;
pos = (223,0);
},
{
name = top;
pos = (223,508);
}
);
layerId = m01;
shapes = (
{
closed = 1;
nodes = (
(353,-10,o),
(425,52,o),
(425,122,cs),
(425,198,o),
(391,234,o),
(265,258,cs),
(200,270,o),
(177,281,o),
(177,297,cs),
(177,310,o),
(192,314,o),
(239,314,cs),
(281,314,o),
(319,311,o),
(414,298,c),
(414,496,l),
(351,504,o),
(308,508,o),
(273,508,cs),
(127,508,o),
(40,472,o),
(40,365,cs),
(40,282,o),
(85,245,o),
(221,216,cs),
(282,204,o),
(313,189,o),
(313,174,cs),
(313,160,o),
(293,154,o),
(245,154,cs),
(197,154,o),
(144,163,o),
(54,186,c),
(51,8,l),
(96,-4,o),
(152,-10,o),
(230,-10,cs)
);
}
);
width = 461;
},
{
anchors = (
{
name = bottom;
pos = (256,0);
},
{
name = top;
pos = (256,480);
}
);
layerId = "60D037D9-62E9-4843-B070-F1594CB0B0D1";
shapes = (
{
closed = 1;
nodes = (
(347,-16,o),
(430,34,o),
(430,109,cs),
(430,181,o),
(391,216,o),
(237,258,cs),
(138,285,o),
(97,326,o),
(97,369,cs),
(97,427,o),
(161,458,o),
(249,458,cs),
(301,458,o),
(345,451,o),
(403,435,c),
(403,476,l),
(340,492,o),
(310,496,o),
(261,496,cs),
(142,496,o),
(71,446,o),
(71,369,cs),
(71,305,o),
(115,270,o),
(227,236,cs),
(380,189,o),
(402,167,o),
(402,106,cs),
(402,58,o),
(348,20,o),
(253,20,cs),
(161,20,o),
(119,31,o),
(68,52,c),
(68,10,l),
(119,-6,o),
(170,-16,o),
(245,-16,cs)
);
}
);
width = 472;
}
);
unicode = 115;
},
{
color = 4;
glyphname = t;
lastChange = "2023-12-08 19:38:57 +0000";
layers = (
{
anchors = (
{
name = bottom;
pos = (264,0);
},
{
name = center;
pos = (162,250);
},
{
name = top;
pos = (162,500);
},
{
name = topright;
pos = (370,636);
}
);
background = {
shapes = (
{
pos = (0,735);
ref = f;
scale = (1,-1);
}
);
};
layerId = m01;
shapes = (
{
closed = 1;
nodes = (
(385,210,l),
(347,194,o),
(303,187,o),
(267,187,cs),
(233,187,o),
(214,192,o),
(200,203,cs),
(181,219,o),
(179,248,o),
(179,291,c),
(352,291,l),
(352,500,l),
(179,500,l),
(183,630,l),
(105,630,l),
(109,500,l),
(22,500,l),
(22,291,l),
(109,291,l),
(109,220,o),
(113,164,o),
(129,124,cs),
(164,36,o),
(231,-21,o),
(385,-5,c)
);
}
);
width = 415;
},
{
anchors = (
{
name = bottom;
pos = (240,0);
},
{
name = center;
pos = (240,240);
},
{
name = top;
pos = (240,480);
},
{
name = topright;
pos = (339,634);
}
);
layerId = "60D037D9-62E9-4843-B070-F1594CB0B0D1";
shapes = (
{
closed = 1;
nodes = (
(303,54,l),
(275,38,o),
(214,15,o),
(171,36,cs),
(143,49,o),
(123,80,o),
(123,141,cs),
(123,205,o),
(122,434,o),
(123,449,c),
(317,449,l),
(317,480,l),
(123,480,l),
(129,634,l),
(96,634,l),
(102,480,l),
(39,480,l),
(39,449,l),
(101,449,l),
(101,433,o),
(101,206,o),
(101,126,cs),
(101,-37,o),
(228,-19,o),
(303,12,c)
);
}
);
width = 341;
}
);
unicode = 116;
},
{
color = 4;
glyphname = u;
lastChange = "2023-12-08 19:29:10 +0000";
layers = (
{
anchors = (
{
name = bottom;
pos = (262,0);
},
{
name = ogonek;
pos = (488,0);
},
{
name = top;
pos = (262,500);
},
{
name = topright;
pos = (464,438);
}
);
background = {
shapes = (
{
angle = 180;
pos = (500,500);
ref = o;
}
);
};
layerId = m01;
shapes = (
{
closed = 1;
nodes = (
(312,-8,o),
(347,31,o),
(366,61,cs),
(385,91,o),
(392,97,o),
(400,97,cs),
(405,97,o),
(407,91,o),
(407,63,cs),
(407,44,o),
(406,19,o),
(404,0,c),
(488,0,l),
(484,116,o),
(483,183,o),
(483,249,cs),
(483,316,o),
(484,383,o),
(488,500,c),
(397,500,l),
(399,463,o),
(401,450,o),
(402,413,cs),
(403,381,o),
(403,302,o),
(403,273,cs),
(403,221,o),
(393,216,o),
(258,216,cs),
(132,216,o),
(121,221,o),
(121,273,cs),
(121,346,o),
(121,433,o),
(126,500,c),
(35,500,l),
(38,438,o),
(39,337,o),
(39,176,cs),
(39,47,o),
(140,-8,o),
(221,-8,cs)
);
}
);
width = 523;
},
{
anchors = (
{
name = bottom;
pos = (275,0);
},
{
name = ogonek;
pos = (474,0);
},
{
name = top;
pos = (275,480);
},
{
name = topright;
pos = (460,445);
}
);
layerId = "60D037D9-62E9-4843-B070-F1594CB0B0D1";
shapes = (
{
closed = 1;
nodes = (
(338,-16,o),
(384,31,o),
(402,54,cs),
(423,81,o),
(429,87,o),
(433,87,cs),
(439,87,o),
(441,86,o),
(442,58,cs),
(442,45,o),
(442,27,o),
(442,0,c),
(474,0,l),
(471,112,o),
(470,175,o),
(470,239,cs),
(470,303,o),
(471,368,o),
(474,480,c),
(443,480,l),
(445,403,o),
(448,323,o),
(448,259,cs),
(448,204,o),
(446,162,o),
(439,143,cs),
(417,82,o),
(358,21,o),
(245,21,cs),
(153,21,o),
(102,63,o),
(102,152,cs),
(102,275,o),
(102,345,o),
(107,480,c),
(76,480,l),
(79,422,o),
(79,313,o),
(79,124,cs),
(79,61,o),
(108,-16,o),
(236,-16,cs)
);
}
);
width = 550;
}
);
metricLeft = "=|n";
metricRight = n;
unicode = 117;
},
{
color = 4;
glyphname = v;
lastChange = "2023-12-08 17:49:25 +0000";
layers = (
{
anchors = (
{
name = bottom;
pos = (245,0);
},
{
name = top;
pos = (245,500);
}
);
background = {
shapes = (
{
pos = (-74,0);
ref = V;
},
{
pos = (-36,0);
ref = o;
}
);
};
layerId = m01;
shapes = (
{
closed = 1;
nodes = (
(402,0,l),
(416,131,o),
(444,271,o),
(496,500,c),
(402,500,l),
(390,380,o),
(381,325,o),
(361,259,cs),
(349,219,o),
(337,211,o),
(254,211,cs),
(171,211,o),
(159,219,o),
(147,259,cs),
(127,325,o),
(118,380,o),
(106,500,c),
(12,500,l),
(64,271,o),
(92,131,o),
(106,0,c)
);
}
);
width = 508;
},
{
anchors = (
{
name = bottom;
pos = (286,0);
},
{
name = top;
pos = (286,480);
}
);
background = {
shapes = (
{
closed = 1;
nodes = (
(324,0,ls),
(378,0,o),
(387,-4,o),
(394,21,cs),
(515,480,l),
(494,480,l),
(381,38,ls),
(374,10,o),
(368,17,o),
(283,17,cs),
(203,17,o),
(195,10,o),
(188,38,cs),
(77,480,l),
(56,480,l),
(174,23,ls),
(181,-3,o),
(197,0,o),
(247,0,cs)
);
}
);
};
layerId = "60D037D9-62E9-4843-B070-F1594CB0B0D1";
shapes = (
{
closed = 1;
nodes = (
(345,-4,l),
(399,161,o),
(457,319,o),
(524,480,c),
(486,480,l),
(433,334,o),
(385,193,o),
(343,64,cs),
(333,34,o),
(328,33,o),
(286,33,cs),
(244,33,o),
(239,34,o),
(229,64,cs),
(187,193,o),
(139,334,o),
(86,480,c),
(48,480,l),
(115,319,o),
(173,161,o),
(227,-4,c)
);
}
);
width = 572;
}
);
unicode = 118;
},
{
color = 4;
glyphname = w;
lastChange = "2023-12-08 17:49:25 +0000";
layers = (
{
anchors = (
{
name = bottom;
pos = (355,0);
},
{
name = top;
pos = (355,500);
}
);
background = {
shapes = (
{
pos = (-55,0);
ref = W;
}
);
};
layerId = m01;
shapes = (
{
closed = 1;
nodes = (
(273,0,l),
(292,225,o),
(299,248,o),
(330,248,cs),
(361,248,o),
(368,225,o),
(387,0,c),
(577,0,l),
(600,216,o),
(612,300,o),
(648,500,c),
(556,500,l),
(550,354,o),
(543,320,o),
(529,295,cs),
(515,272,o),
(493,270,o),
(481,270,cs),
(449,270,o),
(432,272,o),
(418,293,cs),
(402,316,o),
(393,348,o),
(376,488,c),
(284,488,l),
(267,348,o),
(258,316,o),
(242,293,cs),
(228,272,o),
(211,270,o),
(179,270,cs),
(167,270,o),
(145,272,o),
(131,295,cs),
(117,320,o),
(110,354,o),
(104,500,c),
(12,500,l),
(48,300,o),
(60,216,o),
(83,0,c)
);
}
);
width = 660;
},
{
anchors = (
{
name = bottom;
pos = (372,0);
},
{
name = top;
pos = (372,480);
}
);
layerId = "60D037D9-62E9-4843-B070-F1594CB0B0D1";
shapes = (
{
closed = 1;
nodes = (
(285,0,l),
(349,376,o),
(339,435,o),
(375,435,cs),
(411,435,o),
(401,376,o),
(465,0,c),
(609,0,l),
(657,227,o),
(661,282,o),
(702,480,c),
(664,480,l),
(629,212,o),
(601,87,o),
(592,53,cs),
(586,32,o),
(578,30,o),
(535,30,cs),
(500,30,o),
(491,32,o),
(485,53,cs),
(475,88,o),
(454,206,o),
(419,465,c),
(331,465,l),
(296,206,o),
(275,88,o),
(265,53,cs),
(259,32,o),
(250,30,o),
(215,30,cs),
(172,30,o),
(164,32,o),
(158,53,cs),
(149,87,o),
(121,212,o),
(86,480,c),
(48,480,l),
(89,282,o),
(93,227,o),
(141,0,c)
);
}
);
width = 750;
}
);
metricLeft = v;
metricRight = v;
unicode = 119;
},
{
color = 4;
glyphname = x;
lastChange = "2023-12-08 17:49:25 +0000";
layers = (
{
background = {
shapes = (
{
closed = 1;
nodes = (
(207,0,l),
(237,90,o),
(246,110,o),
(263,127,cs),
(278,142,o),
(288,144,o),
(340,144,cs),
(384,144,o),
(400,142,o),
(413,129,cs),
(431,111,o),
(449,73,o),
(473,0,c),
(571,0,l),
(502,140,o),
(473,199,o),
(461,228,cs),
(454,245,o),
(452,250,o),
(452,259,cs),
(452,273,o),
(453,276,o),
(460,292,cs),
(471,318,o),
(497,370,o),
(563,500,c),
(356,500,l),
(331,413,o),
(318,383,o),
(302,369,cs),
(293,361,o),
(281,359,o),
(243,359,cs),
(213,359,o),
(196,363,o),
(188,373,cs),
(168,399,o),
(155,430,o),
(135,500,c),
(42,500,l),
(113,363,o),
(134,319,o),
(146,291,cs),
(152,277,o),
(154,269,o),
(154,259,cs),
(154,248,o),
(154,246,o),
(145,226,cs),
(121,174,o),
(73,78,o),
(34,0,c)
);
}
);
};
layerId = m01;
shapes = (
{
closed = 1;
nodes = (
(114,0,l),
(134,84,o),
(143,121,o),
(163,141,cs),
(181,160,o),
(203,160,o),
(266,160,cs),
(329,160,o),
(351,158,o),
(369,140,cs),
(389,119,o),
(398,84,o),
(418,0,c),
(516,0,l),
(445,224,o),
(434,237,o),
(434,258,cs),
(434,280,o),
(438,292,o),
(505,501,c),
(407,501,l),
(395,440,o),
(391,402,o),
(371,383,cs),
(354,367,o),
(309,364,o),
(266,364,cs),
(223,364,o),
(178,362,o),
(161,378,cs),
(141,397,o),
(137,440,o),
(125,501,c),
(27,501,l),
(95,292,o),
(98,280,o),
(98,258,cs),
(98,237,o),
(93,224,o),
(16,0,c)
);
}
);
width = 525;
},
{
layerId = "60D037D9-62E9-4843-B070-F1594CB0B0D1";
shapes = (
{
closed = 1;
nodes = (
(82,0,l),
(128,113,o),
(166,195,o),
(184,216,cs),
(202,237,o),
(208,241,o),
(268,241,cs),
(328,241,o),
(334,237,o),
(352,216,cs),
(370,195,o),
(408,113,o),
(454,0,c),
(494,0,l),
(480,24,o),
(364,231,o),
(364,259,cs),
(364,284,o),
(480,459,o),
(493,480,c),
(453,480,l),
(407,390,o),
(377,337,o),
(352,295,cs),
(339,274,o),
(333,271,o),
(268,271,cs),
(203,271,o),
(197,274,o),
(184,295,cs),
(159,337,o),
(129,390,o),
(83,480,c),
(43,480,l),
(56,459,o),
(172,284,o),
(172,259,cs),
(172,231,o),
(56,24,o),
(42,0,c)
);
}
);
width = 536;
}
);
unicode = 120;
},
{
color = 4;
glyphname = y;
lastChange = "2023-12-08 18:42:16 +0000";
layers = (
{
anchors = (
{
name = bottom;
pos = (464,-30);
},
{
name = top;
pos = (265,500);
}
);
background = {
shapes = (
{
pos = (-14,0);
ref = v;
}
);
};
layerId = m01;
shapes = (
{
closed = 1;
nodes = (
(234,-245,o),
(295,-221,o),
(341,-178,cs),
(383,-137,o),
(415,-69,o),
(424,0,cs),
(442,142,o),
(470,288,o),
(518,500,c),
(423,500,l),
(415,387,o),
(406,331,o),
(383,252,cs),
(373,219,o),
(350,211,o),
(265,211,cs),
(175,211,o),
(157,217,o),
(147,252,cs),
(124,331,o),
(115,387,o),
(107,500,c),
(12,500,l),
(69,250,o),
(93,121,o),
(106,0,c),
(349,0,l),
(340,-37,o),
(277,-66,o),
(203,-66,cs),
(143,-66,o),
(82,-52,o),
(48,-30,c),
(48,-226,l),
(81,-238,o),
(126,-245,o),
(172,-245,cs)
);
}
);
width = 530;
},
{
anchors = (
{
name = bottom;
pos = (418,0);
},
{
name = top;
pos = (285,480);
}
);
guides = (
{
locked = 1;
pos = (-148,-207);
}
);
layerId = "60D037D9-62E9-4843-B070-F1594CB0B0D1";
shapes = (
{
closed = 1;
nodes = (
(236,-207,o),
(277,-177,o),
(307,-130,cs),
(332,-90,o),
(350,-39,o),
(368,16,cs),
(418,171,o),
(466,325,o),
(518,480,c),
(482,480,l),
(438,334,o),
(394,188,o),
(358,69,cs),
(346,29,o),
(342,28,o),
(283,28,cs),
(228,28,o),
(219,29,o),
(207,69,cs),
(171,188,o),
(128,334,o),
(84,480,c),
(48,480,l),
(102,320,o),
(154,160,o),
(202,0,c),
(340,0,l),
(335,-15,o),
(311,-167,o),
(181,-174,cs),
(150,-176,o),
(90,-165,o),
(49,-140,c),
(49,-183,l),
(94,-199,o),
(134,-207,o),
(173,-207,cs)
);
}
);
width = 566;
}
);
metricLeft = v;
metricRight = v;
unicode = 121;
},
{
color = 5;
glyphname = z;
lastChange = "2023-12-08 19:17:39 +0000";
layers = (
{
anchors = (
{
name = bottom;
pos = (265,0);
},
{
name = center;
pos = (265,250);
},
{
name = top;
pos = (265,500);
}
);
layerId = m01;
shapes = (
{
closed = 1;
nodes = (
(448,0,l),
(448,180,l),
(374,176,o),
(336,175,o),
(262,173,cs),
(227,172,o),
(224,173,o),
(224,182,cs),
(224,193,o),
(256,211,o),
(282,226,cs),
(327,252,o),
(383,280,o),
(448,317,c),
(448,500,l),
(52,500,l),
(52,320,l),
(110,320,o),
(132,322,o),
(189,321,cs),
(278,320,o),
(294,321,o),
(294,311,cs),
(294,305,o),
(290,301,o),
(276,292,cs),
(236,266,o),
(104,192,o),
(52,162,c),
(52,0,l)
);
}
);
width = 500;
},
{
anchors = (
{
name = bottom;
pos = (229,0);
},
{
name = center;
pos = (229,240);
},
{
name = top;
pos = (229,480);
}
);
layerId = "60D037D9-62E9-4843-B070-F1594CB0B0D1";
shapes = (
{
closed = 1;
nodes = (
(426,0,l),
(426,40,l),
(336,35,o),
(274,31,o),
(202,31,cs),
(89,31,o),
(79,33,o),
(79,41,cs),
(79,51,o),
(81,55,o),
(147,124,cs),
(217,197,o),
(241,230,o),
(406,398,c),
(406,480,l),
(53,480,l),
(53,445,l),
(97,447,o),
(184,449,o),
(228,449,cs),
(367,449,o),
(384,444,o),
(384,430,cs),
(384,421,o),
(383,417,o),
(314,344,cs),
(224,248,o),
(211,226,o),
(52,67,c),
(52,0,l)
);
}
);
width = 460;
}
);
unicode = 122;
},
{
color = 10;
export = 0;
glyphname = k.001;
lastChange = "2023-12-08 17:49:25 +0000";
layers = (
{
anchors = (
{
name = bottom;
pos = (253,0);
},
{
name = top;
pos = (253,740);
}
);
layerId = m01;
shapes = (
{
closed = 1;
nodes = (
(414,-8,o),
(449,-4,o),
(467,5,c),
(467,198,l),
(451,192,o),
(393,172,o),
(347,172,cs),
(295,173,o),
(257,190,o),
(256,212,c),
(427,215,o),
(463,267,o),
(463,499,c),
(394,499,l),
(394,481,o),
(395,477,o),
(394,436,cs),
(393,389,o),
(362,382,o),
(259,382,cs),
(156,382,o),
(123,389,o),
(124,436,cs),
(129,739,l),
(52,740,l),
(55,405,o),
(55,82,o),
(52,-2,c),
(136,-2,l),
(133,24,o),
(132,39,o),
(129,83,cs),
(125,144,o),
(129,169,o),
(137,185,cs),
(145,200,o),
(170,208,o),
(206,210,c),
(214,80,o),
(266,-8,o),
(391,-8,cs)
);
}
);
width = 493;
},
{
anchors = (
{
name = bottom;
pos = (236,0);
},
{
name = top;
pos = (236,740);
}
);
background = {
shapes = (
{
closed = 1;
nodes = (
(310,290,ls),
(364,290,o),
(373,286,o),
(380,311,cs),
(393,356,o),
(413,429,o),
(431,501,c),
(412,501,l),
(391,418,o),
(378,355,o),
(367,328,cs),
(363,318,o),
(354,309,o),
(309,306,cs),
(258,304,o),
(182,307,o),
(61,307,c),
(62,290,l)
);
},
{
closed = 1;
nodes = (
(65,0,l),
(63,252,l),
(63,328,l),
(69,801,l),
(44,801,l),
(51,534,o),
(51,267,o),
(48,0,c)
);
},
{
closed = 1;
nodes = (
(458,0,l),
(435,114,o),
(412,231,o),
(371,304,c),
(359,290,l),
(391,231,o),
(407,131,o),
(434,0,c)
);
}
);
};
layerId = "60D037D9-62E9-4843-B070-F1594CB0B0D1";
shapes = (
{
closed = 1;
nodes = (
(124,0,l),
(118,56,o),
(114,133,o),
(114,190,cs),
(114,244,o),
(122,251,o),
(181,251,cs),
(207,251,o),
(217,244,o),
(225,235,cs),
(237,221,o),
(249,142,o),
(300,79,cs),
(335,35,o),
(388,0,o),
(473,0,c),
(473,29,l),
(410,29,o),
(363,54,o),
(330,88,cs),
(268,150,o),
(251,241,o),
(251,253,c),
(296,260,o),
(379,338,o),
(394,480,c),
(356,480,l),
(354,416,o),
(343,361,o),
(314,324,cs),
(290,293,o),
(253,274,o),
(196,274,cs),
(124,274,o),
(120,283,o),
(120,430,c),
(127,740,l),
(93,740,l),
(98,543,o),
(99,222,o),
(93,0,c)
);
}
);
width = 497;
}
);
},
{
color = 5;
glyphname = ordfeminine;
lastChange = "2023-12-08 17:49:25 +0000";
layers = (
{
layerId = "60D037D9-62E9-4843-B070-F1594CB0B0D1";
shapes = (
{
closed = 1;
nodes = (
(310,277,o),
(348,314,o),
(370,340,cs),
(381,352,o),
(389,360,o),
(394,360,cs),
(398,360,o),
(402,354,o),
(402,330,cs),
(402,320,o),
(402,308,o),
(401,290,c),
(425,290,l),
(421,434,o),
(421,530,o),
(425,674,c),
(400,674,l),
(402,656,o),
(402,642,o),
(402,632,cs),
(401,610,o),
(398,604,o),
(394,604,cs),
(390,604,o),
(380,614,o),
(368,627,cs),
(345,652,o),
(307,687,o),
(237,687,cs),
(133,687,o),
(66,610,o),
(66,482,cs),
(66,354,o),
(133,277,o),
(237,277,cs)
);
},
{
closed = 1;
nodes = (
(138,307,o),
(85,375,o),
(85,482,cs),
(85,589,o),
(137,657,o),
(237,657,cs),
(336,657,o),
(404,597,o),
(404,482,cs),
(404,367,o),
(337,307,o),
(237,307,cs)
);
}
);
width = 486;
},
{
layerId = m01;
shapes = (
{
closed = 1;
nodes = (
(298,295,o),
(325,327,o),
(338,347,cs),
(350,365,o),
(358,374,o),
(364,374,cs),
(371,374,o),
(374,366,o),
(374,352,cs),
(374,340,o),
(373,322,o),
(371,302,c),
(438,302,l),
(435,458,o),
(435,542,o),
(438,700,c),
(371,700,l),
(373,680,o),
(374,662,o),
(374,650,cs),
(374,636,o),
(371,628,o),
(364,628,cs),
(358,628,o),
(350,637,o),
(338,654,cs),
(325,674,o),
(298,706,o),
(210,706,cs),
(86,706,o),
(30,642,o),
(30,501,cs),
(30,360,o),
(86,295,o),
(210,295,cs)
);
},
{
closed = 1;
nodes = (
(120,446,o),
(85,460,o),
(84,501,cs),
(85,542,o),
(120,555,o),
(223,555,cs),
(327,555,o),
(362,542,o),
(362,501,cs),
(362,460,o),
(327,446,o),
(223,446,cs)
);
}
);
width = 466;
}
);
unicode = 170;
},
{
color = 5;
glyphname = ordmasculine;
lastChange = "2023-12-08 17:49:25 +0000";
layers = (
{
layerId = "60D037D9-62E9-4843-B070-F1594CB0B0D1";
shapes = (
{
closed = 1;
nodes = (
(345,277,o),
(396,364,o),
(396,482,cs),
(396,600,o),
(345,687,o),
(231,687,cs),
(118,687,o),
(66,600,o),
(66,482,cs),
(66,364,o),
(118,277,o),
(231,277,cs)
);
},
{
closed = 1;
nodes = (
(129,307,o),
(81,383,o),
(81,482,cs),
(81,581,o),
(129,657,o),
(231,657,cs),
(334,657,o),
(382,581,o),
(382,482,cs),
(382,383,o),
(334,307,o),
(231,307,cs)
);
}
);
width = 462;
},
{
layerId = m01;
shapes = (
{
closed = 1;
nodes = (
(352,292,o),
(418,354,o),
(418,503,cs),
(418,652,o),
(351,706,o),
(224,706,cs),
(97,706,o),
(30,652,o),
(30,503,cs),
(30,354,o),
(96,292,o),
(224,292,cs)
);
},
{
closed = 1;
nodes = (
(115,443,o),
(78,458,o),
(78,499,cs),
(78,541,o),
(115,555,o),
(224,555,cs),
(333,555,o),
(370,541,o),
(370,499,cs),
(370,458,o),
(333,443,o),
(224,443,cs)
);
}
);
width = 449;
}
);
unicode = 186;
},
{
color = 5;
glyphname = zero;
lastChange = "2023-12-08 17:49:25 +0000";
layers = (
{
layerId = m01;
shapes = (
{
closed = 1;
nodes = (
(514,-10,o),
(592,95,o),
(592,350,cs),
(592,605,o),
(513,710,o),
(314,710,cs),
(115,710,o),
(36,605,o),
(36,350,cs),
(36,95,o),
(114,-10,o),
(314,-10,cs)
);
},
{
closed = 1;
nodes = (
(146,245,o),
(92,271,o),
(92,350,cs),
(92,429,o),
(146,455,o),
(314,455,cs),
(482,455,o),
(536,429,o),
(536,350,cs),
(536,271,o),
(482,245,o),
(314,245,cs)
);
}
);
width = 628;
},
{
layerId = "60D037D9-62E9-4843-B070-F1594CB0B0D1";
shapes = (
{
closed = 1;
nodes = (
(477,-16,o),
(560,111,o),
(560,350,cs),
(560,589,o),
(477,716,o),
(321,716,cs),
(165,716,o),
(82,589,o),
(82,350,cs),
(82,111,o),
(165,-16,o),
(321,-16,cs)
);
},
{
closed = 1;
nodes = (
(182,23,o),
(102,140,o),
(102,350,cs),
(102,560,o),
(182,677,o),
(321,677,cs),
(460,677,o),
(540,560,o),
(540,350,cs),
(540,140,o),
(460,23,o),
(321,23,cs)
);
}
);
width = 642;
}
);
unicode = 48;
},
{
color = 5;
glyphname = one;
lastChange = "2023-12-08 17:59:51 +0000";
layers = (
{
layerId = m01;
shapes = (
{
closed = 1;
nodes = (
(448,0,l),
(448,244,l),
(385,242,o),
(339,242,o),
(319,251,cs),
(296,261,o),
(295,285,o),
(295,352,cs),
(295,460,o),
(296,584,o),
(300,712,c),
(67,671,l),
(67,455,l),
(132,457,o),
(178,458,o),
(198,449,cs),
(221,439,o),
(226,418,o),
(225,352,cs),
(224,285,o),
(221,261,o),
(198,251,cs),
(178,242,o),
(132,243,o),
(65,245,c),
(65,0,l)
);
}
);
width = 473;
},
{
layerId = "60D037D9-62E9-4843-B070-F1594CB0B0D1";
shapes = (
{
closed = 1;
nodes = (
(381,0,l),
(381,37,l),
(280,36,o),
(262,34,o),
(254,44,cs),
(248,52,o),
(247,56,o),
(247,271,cs),
(247,645,o),
(247,615,o),
(247,699,c),
(84,670,l),
(84,637,l),
(198,656,o),
(214,655,o),
(219,646,cs),
(224,638,o),
(223,633,o),
(223,271,cs),
(223,56,o),
(222,52,o),
(216,44,cs),
(208,34,o),
(190,36,o),
(85,37,c),
(85,0,l)
);
}
);
width = 441;
}
);
unicode = 49;
},
{
color = 4;
glyphname = two;
lastChange = "2023-12-08 18:32:31 +0000";
layers = (
{
layerId = m01;
shapes = (
{
closed = 1;
nodes = (
(546,0,l),
(546,245,l),
(424,243,o),
(298,243,o),
(241,243,cs),
(191,243,o),
(189,244,o),
(189,252,cs),
(189,261,o),
(202,266,o),
(340,333,cs),
(445,384,o),
(539,424,o),
(539,532,cs),
(539,669,o),
(436,707,o),
(283,707,cs),
(243,707,o),
(174,704,o),
(81,687,c),
(81,427,l),
(179,451,o),
(241,457,o),
(296,457,cs),
(352,457,o),
(370,446,o),
(370,430,cs),
(370,409,o),
(351,399,o),
(261,360,cs),
(56,272,o),
(47,257,o),
(47,133,cs),
(47,0,l)
);
}
);
width = 594;
},
{
background = {
shapes = (
{
pos = (-116,0);
ref = one;
}
);
};
layerId = "60D037D9-62E9-4843-B070-F1594CB0B0D1";
shapes = (
{
closed = 1;
nodes = (
(462,0,l),
(462,40,l),
(346,38,o),
(258,37,o),
(97,37,cs),
(80,37,o),
(74,46,o),
(74,76,cs),
(74,170,o),
(148,216,o),
(238,284,cs),
(376,388,o),
(442,442,o),
(442,546,cs),
(442,649,o),
(379,716,o),
(265,716,cs),
(211,716,o),
(133,702,o),
(76,678,c),
(76,633,l),
(144,664,o),
(199,676,o),
(251,676,cs),
(354,676,o),
(413,625,o),
(413,544,cs),
(413,472,o),
(365,403,o),
(234,316,cs),
(111,235,o),
(45,160,o),
(45,62,cs),
(45,0,l)
);
}
);
width = 509;
}
);
unicode = 50;
},
{
color = 3;
glyphname = three;
lastChange = "2023-12-08 18:32:02 +0000";
layers = (
{
background = {
shapes = (
{
closed = 1;
nodes = (
(291,0,ls),
(422,0,o),
(495,68,o),
(495,178,cs),
(495,227,o),
(478,273,o),
(449,301,cs),
(422,327,o),
(416,333,o),
(416,349,cs),
(416,365,o),
(422,371,o),
(449,397,cs),
(480,427,o),
(489,473,o),
(489,517,cs),
(489,610,o),
(421,700,o),
(258,700,cs),
(-42,700,l),
(-39,453,l),
(48,455,o),
(136,455,o),
(204,455,cs),
(301,455,o),
(342,454,o),
(365,447,cs),
(383,441,o),
(390,433,o),
(390,419,cs),
(390,403,o),
(382,395,o),
(362,389,cs),
(342,383,o),
(305,383,o),
(248,383,cs),
(201,383,o),
(44,387,o),
(-30,388,c),
(-30,321,l),
(41,323,o),
(181,325,o),
(222,325,cs),
(279,325,o),
(327,325,o),
(360,316,cs),
(378,311,o),
(390,297,o),
(390,286,cs),
(390,275,o),
(390,262,o),
(365,255,cs),
(337,247,o),
(280,245,o),
(186,245,cs),
(120,245,o),
(41,246,o),
(-39,249,c),
(-42,0,l)
);
}
);
};
layerId = m01;
shapes = (
{
closed = 1;
nodes = (
(439,-7,o),
(542,31,o),
(542,168,cs),
(542,229,o),
(515,267,o),
(487,293,cs),
(458,321,o),
(428,337,o),
(428,355,cs),
(428,375,o),
(463,388,o),
(494,418,cs),
(519,441,o),
(542,475,o),
(542,532,cs),
(542,669,o),
(439,707,o),
(286,707,cs),
(246,707,o),
(177,704,o),
(84,687,c),
(84,427,l),
(182,453,o),
(259,457,o),
(314,457,cs),
(384,457,o),
(401,439,o),
(401,418,cs),
(401,400,o),
(390,382,o),
(314,382,cs),
(267,382,o),
(211,385,o),
(137,386,c),
(137,324,l),
(211,325,o),
(267,328,o),
(314,328,cs),
(397,328,o),
(401,301,o),
(401,285,cs),
(401,270,o),
(387,243,o),
(314,243,cs),
(259,243,o),
(160,247,o),
(62,273,c),
(62,13,l),
(155,-4,o),
(246,-7,o),
(286,-7,cs)
);
}
);
width = 580;
},
{
background = {
shapes = (
{
pos = (-4,0);
ref = two;
}
);
};
layerId = "60D037D9-62E9-4843-B070-F1594CB0B0D1";
shapes = (
{
closed = 1;
nodes = (
(441,-6,o),
(478,89,o),
(478,161,cs),
(478,234,o),
(440,280,o),
(422,297,cs),
(398,320,o),
(359,336,o),
(359,354,cs),
(359,368,o),
(383,375,o),
(416,409,cs),
(437,431,o),
(469,472,o),
(469,538,cs),
(469,618,o),
(422,716,o),
(264,716,cs),
(228,716,o),
(181,711,o),
(101,696,c),
(101,646,l),
(164,671,o),
(218,681,o),
(263,681,cs),
(350,681,o),
(447,644,o),
(447,536,cs),
(447,441,o),
(372,366,o),
(281,366,cs),
(233,366,o),
(208,367,o),
(132,368,c),
(132,338,l),
(208,339,o),
(233,340,o),
(281,340,cs),
(379,340,o),
(455,259,o),
(455,165,cs),
(455,59,o),
(360,33,o),
(273,33,cs),
(224,33,o),
(167,41,o),
(95,64,c),
(95,19,l),
(158,0,o),
(215,-6,o),
(260,-6,cs)
);
}
);
width = 564;
}
);
unicode = 51;
},
{
color = 3;
glyphname = four;
lastChange = "2023-12-08 18:21:11 +0000";
layers = (
{
layerId = m01;
shapes = (
{
closed = 1;
nodes = (
(130,169,o),
(398,169,o),
(553,169,c),
(553,414,l),
(427,411,o),
(385,410,o),
(336,410,cs),
(192,411,o),
(187,413,o),
(187,435,cs),
(187,457,o),
(346,590,o),
(370,700,c),
(191,700,l),
(180,607,o),
(99,477,o),
(48,411,c),
(48,169,l)
);
},
{
closed = 1;
nodes = (
(492,0,l),
(475,114,o),
(466,179,o),
(466,293,cs),
(466,407,o),
(471,477,o),
(482,590,c),
(379,590,l),
(390,477,o),
(396,407,o),
(396,293,cs),
(396,179,o),
(387,114,o),
(370,0,c)
);
}
);
width = 601;
},
{
layerId = "60D037D9-62E9-4843-B070-F1594CB0B0D1";
shapes = (
{
closed = 1;
nodes = (
(161,223,o),
(343,223,o),
(516,223,c),
(516,266,l),
(390,263,o),
(325,261,o),
(273,262,cs),
(113,264,o),
(107,263,o),
(107,281,cs),
(107,308,o),
(271,513,o),
(271,700,c),
(243,700,l),
(234,539,o),
(142,381,o),
(78,297,c),
(77,223,l)
);
},
{
closed = 1;
nodes = (
(433,0,l),
(432,114,o),
(431,179,o),
(431,293,cs),
(431,407,o),
(432,477,o),
(433,590,c),
(405,590,l),
(406,477,o),
(407,407,o),
(407,293,cs),
(407,179,o),
(406,114,o),
(405,0,c)
);
}
);
width = 614;
}
);
unicode = 52;
},
{
color = 3;
glyphname = five;
lastChange = "2023-12-08 17:49:25 +0000";
layers = (
{
background = {
shapes = (
{
ref = three;
}
);
};
layerId = m01;
shapes = (
{
closed = 1;
nodes = (
(427,-7,o),
(530,31,o),
(530,168,cs),
(530,332,o),
(408,385,o),
(272,397,cs),
(137,409,o),
(132,403,o),
(132,432,cs),
(132,457,o),
(132,458,o),
(311,458,cs),
(368,458,o),
(377,457,o),
(499,456,c),
(499,700,l),
(74,700,l),
(76,357,l),
(100,356,o),
(173,355,o),
(241,348,cs),
(370,335,o),
(389,310,o),
(389,281,cs),
(389,261,o),
(372,243,o),
(302,243,cs),
(247,243,o),
(148,247,o),
(50,273,c),
(50,13,l),
(143,-4,o),
(234,-7,o),
(274,-7,cs)
);
}
);
width = 608;
},
{
layerId = "60D037D9-62E9-4843-B070-F1594CB0B0D1";
shapes = (
{
closed = 1;
nodes = (
(408,-7,o),
(488,84,o),
(488,193,cs),
(488,336,o),
(408,386,o),
(272,394,cs),
(123,403,o),
(129,407,o),
(129,535,cs),
(129,657,o),
(123,657,o),
(213,659,cs),
(270,660,o),
(344,658,o),
(466,657,c),
(466,700,l),
(103,700,l),
(105,368,l),
(129,370,o),
(202,370,o),
(241,370,cs),
(370,370,o),
(462,325,o),
(462,195,cs),
(462,88,o),
(373,38,o),
(288,38,cs),
(213,38,o),
(168,39,o),
(79,65,c),
(79,13,l),
(172,-4,o),
(220,-7,o),
(268,-7,cs)
);
}
);
width = 620;
}
);
unicode = 53;
},
{
color = 3;
glyphname = six;
lastChange = "2023-12-08 17:49:25 +0000";
layers = (
{
layerId = m01;
shapes = (
{
closed = 1;
nodes = (
(508,-10,o),
(586,79,o),
(586,224,cs),
(586,378,o),
(537,468,o),
(340,470,cs),
(163,472,o),
(155,387,o),
(129,375,cs),
(123,372,o),
(121,380,o),
(121,386,cs),
(126,463,o),
(193,531,o),
(326,531,cs),
(461,531,o),
(513,491,o),
(544,477,c),
(543,683,l),
(489,697,o),
(441,710,o),
(323,710,cs),
(150,710,o),
(46,573,o),
(46,347,cs),
(46,79,o),
(120,-10,o),
(327,-10,cs)
);
},
{
closed = 1;
nodes = (
(170,245,o),
(134,254,o),
(134,295,cs),
(134,340,o),
(170,350,o),
(325,350,c),
(478,350,o),
(514,340,o),
(514,295,cs),
(514,254,o),
(477,245,o),
(321,245,cs)
);
}
);
width = 632;
},
{
layerId = "60D037D9-62E9-4843-B070-F1594CB0B0D1";
shapes = (
{
closed = 1;
nodes = (
(461,-15,o),
(554,72,o),
(554,197,cs),
(554,345,o),
(480,408,o),
(313,408,cs),
(136,408,o),
(123,291,o),
(106,291,cs),
(100,291,o),
(100,296,o),
(100,302,cs),
(110,604,o),
(215,669,o),
(399,669,cs),
(451,669,o),
(480,659,o),
(521,647,c),
(521,689,l),
(480,702,o),
(437,710,o),
(401,710,cs),
(198,710,o),
(78,628,o),
(78,286,cs),
(78,113,o),
(138,-15,o),
(321,-15,cs)
);
},
{
closed = 1;
nodes = (
(192,30,o),
(125,92,o),
(113,194,cs),
(101,294,o),
(184,375,o),
(313,375,cs),
(464,375,o),
(533,318,o),
(533,198,cs),
(533,102,o),
(451,30,o),
(321,30,cs)
);
}
);
width = 612;
}
);
unicode = 54;
},
{
color = 3;
glyphname = seven;
lastChange = "2023-12-08 17:49:25 +0000";
layers = (
{
layerId = m01;
shapes = (
{
closed = 1;
nodes = (
(290,0,l),
(251,171,o),
(377,363,o),
(489,458,c),
(489,700,l),
(45,700,l),
(45,436,l),
(69,438,o),
(136,439,o),
(204,439,cs),
(250,439,o),
(306,438,o),
(317,436,cs),
(323,435,o),
(327,432,o),
(327,422,cs),
(327,413,o),
(323,406,o),
(318,399,cs),
(285,353,o),
(132,169,o),
(102,0,c)
);
}
);
width = 538;
},
{
layerId = "60D037D9-62E9-4843-B070-F1594CB0B0D1";
shapes = (
{
closed = 1;
nodes = (
(177,0,l),
(212,238,o),
(356,483,o),
(457,586,c),
(457,700,l),
(34,700,l),
(34,661,l),
(101,661,o),
(184,661,o),
(243,661,cs),
(374,660,o),
(416,661,o),
(427,652,cs),
(433,647,o),
(436,643,o),
(436,626,cs),
(436,610,o),
(435,601,o),
(425,590,cs),
(384,545,o),
(204,319,o),
(139,0,c)
);
}
);
width = 482;
}
);
unicode = 55;
},
{
color = 3;
glyphname = eight;
lastChange = "2023-12-08 17:49:25 +0000";
layers = (
{
layerId = m01;
shapes = (
{
closed = 1;
nodes = (
(516,-16,o),
(607,49,o),
(607,190,cs),
(607,279,o),
(577,335,o),
(507,365,c),
(563,395,o),
(587,446,o),
(587,522,cs),
(587,654,o),
(502,715,o),
(338,715,cs),
(168,715,o),
(86,655,o),
(86,523,cs),
(86,446,o),
(111,395,o),
(168,365,c),
(98,335,o),
(68,279,o),
(68,190,cs),
(68,49,o),
(159,-16,o),
(338,-16,cs)
);
},
{
closed = 1;
nodes = (
(213,214,o),
(164,230,o),
(164,270,cs),
(164,314,o),
(213,331,o),
(338,331,cs),
(465,331,o),
(514,314,o),
(514,270,cs),
(514,230,o),
(465,214,o),
(338,214,cs)
);
},
{
closed = 1;
nodes = (
(224,397,o),
(193,399,o),
(193,431,cs),
(193,459,o),
(224,461,o),
(338,461,cs),
(451,461,o),
(482,459,o),
(482,431,cs),
(482,399,o),
(451,397,o),
(339,397,cs)
);
}
);
width = 675;
},
{
layerId = "60D037D9-62E9-4843-B070-F1594CB0B0D1";
shapes = (
{
closed = 1;
nodes = (
(439,-15,o),
(564,41,o),
(564,192,cs),
(564,280,o),
(503,337,o),
(430,362,c),
(496,384,o),
(547,449,o),
(547,523,cs),
(547,661,o),
(441,715,o),
(315,715,cs),
(189,715,o),
(81,661,o),
(81,523,cs),
(81,449,o),
(133,384,o),
(198,362,c),
(125,337,o),
(64,280,o),
(64,192,cs),
(64,41,o),
(189,-15,o),
(315,-16,cs)
);
},
{
closed = 1;
nodes = (
(150,32,o),
(86,113,o),
(86,192,cs),
(86,272,o),
(150,341,o),
(315,342,cs),
(478,341,o),
(542,272,o),
(542,192,cs),
(542,113,o),
(478,32,o),
(315,31,cs)
);
},
{
closed = 1;
nodes = (
(157,385,o),
(104,446,o),
(104,523,cs),
(104,630,o),
(185,676,o),
(315,677,cs),
(444,676,o),
(525,630,o),
(525,523,cs),
(525,446,o),
(471,385,o),
(315,384,cs)
);
}
);
width = 628;
}
);
unicode = 56;
},
{
color = 2;
glyphname = .notdef;
lastChange = "2023-12-08 17:50:17 +0000";
layers = (
{
layerId = "60D037D9-62E9-4843-B070-F1594CB0B0D1";
shapes = (
{
closed = 1;
nodes = (
(198,5,o),
(339,5,o),
(513,-6,c),
(508,120,o),
(505,228,o),
(505,351,cs),
(505,474,o),
(508,582,o),
(513,708,c),
(339,697,o),
(198,697,o),
(25,708,c),
(31,580,o),
(34,465,o),
(34,351,cs),
(34,237,o),
(31,122,o),
(25,-6,c)
);
},
{
closed = 1;
nodes = (
(266,298,l),
(392,79,l),
(308,82,o),
(224,82,o),
(140,78,c)
);
},
{
closed = 1;
nodes = (
(108,351,l),
(110,568,l),
(239,345,l),
(110,121,l)
);
},
{
closed = 1;
nodes = (
(293,345,l),
(429,580,l),
(431,351,l),
(429,109,l)
);
},
{
closed = 1;
nodes = (
(132,623,l),
(221,620,o),
(311,620,o),
(400,624,c),
(266,391,l)
);
}
);
width = 538;
},
{
layerId = m01;
shapes = (
{
closed = 1;
nodes = (
(198,5,o),
(339,5,o),
(513,-6,c),
(508,120,o),
(505,228,o),
(505,351,cs),
(505,474,o),
(508,582,o),
(513,708,c),
(339,697,o),
(198,697,o),
(25,708,c),
(31,580,o),
(34,465,o),
(34,351,cs),
(34,237,o),
(31,122,o),
(25,-6,c)
);
},
{
closed = 1;
nodes = (
(266,298,l),
(392,79,l),
(308,82,o),
(224,82,o),
(140,78,c)
);
},
{
closed = 1;
nodes = (
(108,351,l),
(110,568,l),
(239,345,l),
(110,121,l)
);
},
{
closed = 1;
nodes = (
(293,345,l),
(429,580,l),
(431,351,l),
(429,109,l)
);
},
{
closed = 1;
nodes = (
(132,623,l),
(221,620,o),
(311,620,o),
(400,624,c),
(266,391,l)
);
}
);
width = 538;
}
);
},
{
color = 4;
glyphname = period;
lastChange = "2023-12-08 17:49:25 +0000";
layers = (
{
background = {
shapes = (
{
closed = 1;
nodes = (
(244,-14,o),
(282,14,o),
(282,68,cs),
(282,115,o),
(244,150,o),
(158,150,cs),
(72,150,o),
(34,120,o),
(34,68,cs),
(34,19,o),
(68,-14,o),
(158,-14,cs)
);
}
);
};
layerId = m01;
shapes = (
{
closed = 1;
nodes = (
(221,-10,o),
(254,15,o),
(254,70,cs),
(254,125,o),
(221,150,o),
(149,150,cs),
(75,150,o),
(40,125,o),
(40,70,cs),
(40,15,o),
(75,-10,o),
(149,-10,cs)
);
}
);
width = 294;
},
{
layerId = "60D037D9-62E9-4843-B070-F1594CB0B0D1";
shapes = (
{
closed = 1;
nodes = (
(145,-10,o),
(161,10,o),
(161,47,cs),
(161,84,o),
(145,104,o),
(118,104,cs),
(91,104,o),
(75,84,o),
(75,47,cs),
(75,10,o),
(91,-10,o),
(118,-10,cs)
);
}
);
width = 236;
}
);
unicode = 46;
},
{
color = 2;
glyphname = comma;
lastChange = "2023-12-08 19:16:35 +0000";
layers = (
{
background = {
shapes = (
{
pos = (-16,0);
ref = period;
}
);
};
layerId = m01;
shapes = (
{
closed = 1;
nodes = (
(194,-162,o),
(261,-95,o),
(264,7,cs),
(267,96,o),
(235,150,o),
(145,150,cs),
(74,150,o),
(40,122,o),
(40,71,cs),
(40,16,o),
(68,-10,o),
(132,-10,cs),
(183,-10,o),
(202,-13,o),
(202,-27,cs),
(202,-63,o),
(77,-61,o),
(40,-51,c),
(40,-162,l)
);
}
);
width = 304;
},
{
background = {
shapes = (
{
closed = 1;
nodes = (
(296,-94,o),
(338,-55,o),
(347,-13,cs),
(351,4,o),
(350,28,o),
(346,42,c),
(300,37,l),
(305,17,o),
(315,-12,o),
(313,-2,cs),
(318,-27,o),
(289,-74,o),
(264,-82,c),
(262,-93,l)
);
},
{
closed = 1;
nodes = (
(331,-16,o),
(348,-3,o),
(348,27,cs),
(348,59,o),
(330,74,o),
(293,74,cs),
(257,74,o),
(239,59,o),
(239,27,cs),
(239,-3,o),
(255,-16,o),
(293,-16,cs)
);
},
{
closed = 1;
nodes = (
(67,-138,l),
(102,-43,o),
(114,9,o),
(113,77,c),
(60,77,l),
(69,-12,o),
(64,-61,o),
(40,-138,c)
);
}
);
};
layerId = "60D037D9-62E9-4843-B070-F1594CB0B0D1";
shapes = (
{
closed = 1;
nodes = (
(149,-104,o),
(169,-42,o),
(171,7,cs),
(174,84,o),
(153,104,o),
(122,104,cs),
(86,104,o),
(75,77,o),
(75,48,cs),
(75,11,o),
(90,-4,o),
(117,-9,cs),
(133,-12,o),
(144,-20,o),
(144,-37,cs),
(144,-63,o),
(120,-84,o),
(75,-84,c),
(75,-106,l)
);
}
);
width = 246;
}
);
metricLeft = period;
metricRight = period;
unicode = 44;
},
{
color = 4;
glyphname = ellipsis;
lastChange = "2023-12-08 19:57:33 +0000";
layers = (
{
background = {
anchors = (
{
name = "#entry";
pos = (-17454,0);
},
{
name = "#exit";
pos = (-17229,0);
}
);
shapes = (
{
closed = 1;
nodes = (
(-17303,-16,o),
(-17303,1,o),
(-17303,27,cs),
(-17303,59,o),
(-17303,74,o),
(-17303,74,cs),
(-17378,74,o),
(-17378,59,o),
(-17378,27,cs),
(-17378,-3,o),
(-17378,-16,o),
(-17303,-16,cs)
);
},
{
closed = 1;
nodes = (
(-17303,-16,o),
(-17303,1,o),
(-17303,27,cs),
(-17303,59,o),
(-17303,74,o),
(-17303,74,cs),
(-17378,74,o),
(-17378,59,o),
(-17378,27,cs),
(-17378,-3,o),
(-17378,-16,o),
(-17303,-16,cs)
);
},
{
closed = 1;
nodes = (
(-17303,-16,o),
(-17303,1,o),
(-17303,27,cs),
(-17303,59,o),
(-17303,74,o),
(-17303,74,cs),
(-17378,74,o),
(-17378,59,o),
(-17378,27,cs),
(-17378,-3,o),
(-17378,-16,o),
(-17303,-16,cs)
);
}
);
};
layerId = "60D037D9-62E9-4843-B070-F1594CB0B0D1";
shapes = (
{
alignment = 1;
pos = (20,0);
ref = period;
},
{
alignment = 1;
pos = (256,0);
ref = period;
},
{
alignment = 1;
pos = (492,0);
ref = period;
}
);
width = 748;
},
{
background = {
anchors = (
{
name = "#entry";
pos = (-26272,0);
},
{
name = "#exit";
pos = (-25963,0);
}
);
shapes = (
{
closed = 1;
nodes = (
(-26012,-14,o),
(-25974,15,o),
(-25974,69,cs),
(-25974,116,o),
(-26012,151,o),
(-26098,151,cs),
(-26188,151,o),
(-26227,121,o),
(-26227,69,cs),
(-26227,20,o),
(-26188,-14,o),
(-26098,-14,cs)
);
},
{
closed = 1;
nodes = (
(-26012,-14,o),
(-25974,15,o),
(-25974,69,cs),
(-25974,116,o),
(-26012,151,o),
(-26098,151,cs),
(-26188,151,o),
(-26227,121,o),
(-26227,69,cs),
(-26227,20,o),
(-26188,-14,o),
(-26098,-14,cs)
);
},
{
closed = 1;
nodes = (
(-26012,-14,o),
(-25974,15,o),
(-25974,69,cs),
(-25974,116,o),
(-26012,151,o),
(-26098,151,cs),
(-26188,151,o),
(-26227,121,o),
(-26227,69,cs),
(-26227,20,o),
(-26188,-14,o),
(-26098,-14,cs)
);
}
);
};
layerId = m01;
shapes = (
{
alignment = 1;
pos = (20,0);
ref = period;
},
{
alignment = 1;
pos = (314,0);
ref = period;
},
{
alignment = 1;
pos = (608,0);
ref = period;
}
);
width = 922;
}
);
metricLeft = "=+20";
metricRight = "=+20";
unicode = 8230;
},
{
color = 4;
glyphname = exclam;
lastChange = "2023-12-08 17:49:25 +0000";
layers = (
{
layerId = "60D037D9-62E9-4843-B070-F1594CB0B0D1";
shapes = (
{
closed = 1;
nodes = (
(131,162,l),
(131,283,o),
(132,348,o),
(136,422,cs),
(139,476,o),
(142,513,o),
(160,700,c),
(87,700,l),
(98,582,o),
(103,508,o),
(107,426,cs),
(109,350,o),
(110,269,o),
(110,162,c)
);
},
{
closed = 1;
nodes = (
(150,-8,o),
(161,7,o),
(161,43,cs),
(161,81,o),
(149,100,o),
(123,100,cs),
(98,100,o),
(86,82,o),
(86,44,cs),
(86,7,o),
(97,-8,o),
(123,-8,cs)
);
}
);
width = 247;
},
{
layerId = m01;
shapes = (
{
closed = 1;
nodes = (
(204,228,l),
(206,320,o),
(215,395,o),
(236,509,cs),
(258,626,o),
(265,669,o),
(270,730,c),
(54,730,l),
(59,669,o),
(65,631,o),
(88,505,cs),
(109,396,o),
(118,319,o),
(120,228,c)
);
},
{
closed = 1;
nodes = (
(236,-10,o),
(269,15,o),
(269,70,cs),
(269,125,o),
(236,150,o),
(164,150,cs),
(90,150,o),
(55,125,o),
(55,70,cs),
(55,15,o),
(90,-10,o),
(164,-10,cs)
);
}
);
width = 324;
}
);
unicode = 33;
},
{
color = 4;
glyphname = question;
lastChange = "2023-12-08 17:49:25 +0000";
layers = (
{
layerId = "60D037D9-62E9-4843-B070-F1594CB0B0D1";
shapes = (
{
closed = 1;
nodes = (
(229,181,l),
(185,181,o),
(148,202,o),
(148,247,cs),
(148,309,o),
(217,333,o),
(284,362,cs),
(359,395,o),
(424,431,o),
(424,539,cs),
(424,656,o),
(348,716,o),
(202,716,cs),
(156,716,o),
(110,710,o),
(60,699,c),
(60,654,l),
(108,667,o),
(167,674,o),
(213,674,cs),
(332,674,o),
(391,627,o),
(391,530,cs),
(391,435,o),
(334,413,o),
(262,380,cs),
(175,340,o),
(120,308,o),
(120,247,cs),
(120,189,o),
(171,148,o),
(229,148,c)
);
},
{
pos = (87,0);
ref = period;
}
);
width = 478;
},
{
layerId = m01;
shapes = (
{
closed = 1;
nodes = (
(300,218,l),
(248,218,o),
(232,225,o),
(232,244,cs),
(232,256,o),
(225,269,o),
(359,305,cs),
(410,319,o),
(518,346,o),
(518,488,cs),
(518,629,o),
(411,719,o),
(234,719,cs),
(188,719,o),
(134,713,o),
(36,693,c),
(36,443,l),
(123,460,o),
(198,469,o),
(249,469,cs),
(317,469,o),
(340,453,o),
(340,411,cs),
(340,378,o),
(326,355,o),
(264,336,cs),
(187,312,o),
(165,284,o),
(165,252,cs),
(165,199,o),
(224,169,o),
(300,169,c)
);
},
{
pos = (118,0);
ref = period;
}
);
width = 548;
}
);
unicode = 63;
},
{
color = 4;
glyphname = bullet;
lastChange = "2023-12-08 17:49:25 +0000";
layers = (
{
layerId = "60D037D9-62E9-4843-B070-F1594CB0B0D1";
shapes = (
{
closed = 1;
nodes = (
(369,151,o),
(400,183,o),
(400,244,cs),
(400,297,o),
(369,337,o),
(300,337,cs),
(231,337,o),
(200,303,o),
(200,244,cs),
(200,188,o),
(228,151,o),
(300,151,cs)
);
}
);
width = 600;
},
{
layerId = m01;
shapes = (
{
closed = 1;
nodes = (
(408,109,o),
(456,159,o),
(456,254,cs),
(456,337,o),
(408,399,o),
(300,399,cs),
(192,399,o),
(144,346,o),
(144,254,cs),
(144,167,o),
(187,109,o),
(300,109,cs)
);
}
);
width = 600;
}
);
unicode = 8226;
},
{
color = 4;
glyphname = asterisk;
lastChange = "2023-12-08 17:49:25 +0000";
layers = (
{
layerId = "60D037D9-62E9-4843-B070-F1594CB0B0D1";
shapes = (
{
closed = 1;
nodes = (
(226,462,l),
(215,574,l),
(301,498,l),
(324,536,l),
(225,593,l),
(324,649,l),
(301,687,l),
(215,611,l),
(226,723,l),
(182,723,l),
(192,611,l),
(105,687,l),
(84,649,l),
(181,593,l),
(84,536,l),
(105,498,l),
(192,574,l),
(182,462,l)
);
}
);
width = 408;
},
{
layerId = m01;
shapes = (
{
closed = 1;
nodes = (
(255,436,l),
(245,526,l),
(326,474,l),
(369,548,l),
(278,583,l),
(369,616,l),
(326,691,l),
(245,638,l),
(255,729,l),
(169,729,l),
(177,638,l),
(96,691,l),
(54,616,l),
(144,583,l),
(54,548,l),
(96,474,l),
(177,526,l),
(169,436,l)
);
}
);
width = 423;
}
);
unicode = 42;
},
{
color = 4;
glyphname = numbersign;
lastChange = "2023-12-08 17:49:25 +0000";
layers = (
{
layerId = "60D037D9-62E9-4843-B070-F1594CB0B0D1";
shapes = (
{
closed = 1;
nodes = (
(178,0,l),
(307,724,l),
(284,724,l),
(154,0,l)
);
},
{
closed = 1;
nodes = (
(532,201,l),
(541,238,l),
(75,238,l),
(66,201,l)
);
},
{
closed = 1;
nodes = (
(356,0,l),
(485,724,l),
(462,724,l),
(333,0,l)
);
},
{
closed = 1;
nodes = (
(574,461,l),
(584,498,l),
(118,498,l),
(108,461,l)
);
}
);
width = 650;
},
{
layerId = m01;
shapes = (
{
closed = 1;
nodes = (
(178,0,l),
(289,724,l),
(236,724,l),
(124,0,l)
);
},
{
closed = 1;
nodes = (
(561,116,l),
(561,308,l),
(36,308,l),
(36,116,l)
);
},
{
closed = 1;
nodes = (
(380,0,l),
(490,724,l),
(438,724,l),
(326,0,l)
);
},
{
closed = 1;
nodes = (
(581,412,l),
(581,603,l),
(56,603,l),
(56,412,l)
);
}
);
width = 617;
}
);
unicode = 35;
},
{
color = 4;
glyphname = slash;
lastChange = "2023-12-08 17:49:25 +0000";
layers = (
{
layerId = "60D037D9-62E9-4843-B070-F1594CB0B0D1";
shapes = (
{
closed = 1;
nodes = (
(84,-96,l),
(155,176,o),
(237,448,o),
(334,720,c),
(294,720,l),
(219,448,o),
(136,176,o),
(44,-96,c)
);
}
);
width = 378;
},
{
layerId = m01;
shapes = (
{
closed = 1;
nodes = (
(130,-96,l),
(201,176,o),
(283,448,o),
(380,720,c),
(278,720,l),
(203,448,o),
(120,176,o),
(28,-96,c)
);
}
);
width = 408;
}
);
unicode = 47;
},
{
color = 4;
glyphname = hyphen;
lastChange = "2023-12-08 17:49:25 +0000";
layers = (
{
layerId = m01;
shapes = (
{
closed = 1;
nodes = (
(456,232,l),
(456,329,l),
(54,329,l),
(54,232,l)
);
}
);
width = 510;
},
{
layerId = "60D037D9-62E9-4843-B070-F1594CB0B0D1";
shapes = (
{
closed = 1;
nodes = (
(389,261,l),
(389,299,l),
(45,299,l),
(45,261,l)
);
}
);
width = 434;
}
);
unicode = 45;
},
{
color = 4;
glyphname = endash;
lastChange = "2023-12-08 17:49:25 +0000";
layers = (
{
layerId = "60D037D9-62E9-4843-B070-F1594CB0B0D1";
shapes = (
{
closed = 1;
nodes = (
(545,261,l),
(545,299,l),
(45,299,l),
(45,261,l)
);
}
);
width = 590;
},
{
layerId = m01;
shapes = (
{
closed = 1;
nodes = (
(564,232,l),
(564,329,l),
(54,329,l),
(54,232,l)
);
}
);
width = 618;
}
);
metricLeft = hyphen;
metricRight = hyphen;
unicode = 8211;
},
{
color = 4;
glyphname = emdash;
lastChange = "2023-12-08 17:49:25 +0000";
layers = (
{
layerId = "60D037D9-62E9-4843-B070-F1594CB0B0D1";
shapes = (
{
closed = 1;
nodes = (
(1045,261,l),
(1045,299,l),
(45,299,l),
(45,261,l)
);
}
);
width = 1090;
},
{
layerId = m01;
shapes = (
{
closed = 1;
nodes = (
(1118,232,l),
(1118,329,l),
(54,329,l),
(54,232,l)
);
}
);
width = 1172;
}
);
metricLeft = hyphen;
metricRight = hyphen;
unicode = 8212;
},
{
color = 4;
glyphname = underscore;
lastChange = "2023-12-08 17:49:25 +0000";
layers = (
{
layerId = "60D037D9-62E9-4843-B070-F1594CB0B0D1";
shapes = (
{
closed = 1;
nodes = (
(487,-46,l),
(489,-16,l),
(-11,-16,l),
(-13,-46,l)
);
}
);
width = 476;
},
{
layerId = m01;
shapes = (
{
closed = 1;
nodes = (
(504,-73,l),
(506,-16,l),
(-4,-16,l),
(-6,-73,l)
);
}
);
width = 500;
}
);
unicode = 95;
},
{
color = 4;
glyphname = parenleft;
lastChange = "2023-12-08 17:49:25 +0000";
layers = (
{
layerId = "60D037D9-62E9-4843-B070-F1594CB0B0D1";
shapes = (
{
closed = 1;
nodes = (
(266,-165,l),
(161,-48,o),
(107,122,o),
(107,278,cs),
(107,433,o),
(161,603,o),
(266,720,c),
(227,720,l),
(135,609,o),
(84,441,o),
(84,278,cs),
(84,114,o),
(136,-54,o),
(227,-165,c)
);
}
);
width = 350;
},
{
layerId = m01;
shapes = (
{
closed = 1;
nodes = (
(280,-165,l),
(195,-32,o),
(152,115,o),
(152,277,cs),
(152,440,o),
(195,587,o),
(280,720,c),
(167,720,l),
(94,592,o),
(54,441,o),
(54,278,cs),
(54,114,o),
(95,-37,o),
(167,-165,c)
);
}
);
width = 334;
}
);
unicode = 40;
},
{
color = 4;
glyphname = braceleft;
lastChange = "2023-12-08 17:49:25 +0000";
layers = (
{
layerId = "60D037D9-62E9-4843-B070-F1594CB0B0D1";
shapes = (
{
closed = 1;
nodes = (
(358,-165,l),
(358,-133,l),
(302,-135,ls),
(203,-140,o),
(171,-116,o),
(171,-39,cs),
(171,223,ls),
(171,257,o),
(164,270,o),
(141,279,c),
(164,287,o),
(171,300,o),
(171,334,cs),
(171,594,ls),
(171,673,o),
(200,695,o),
(302,690,cs),
(358,688,l),
(358,720,l),
(297,720,ls),
(196,720,o),
(149,678,o),
(149,590,cs),
(149,334,ls),
(149,306,o),
(139,296,o),
(110,296,cs),
(84,296,l),
(85,283,o),
(85,276,o),
(84,262,c),
(110,262,ls),
(141,262,o),
(149,254,o),
(149,223,cs),
(149,-34,ls),
(149,-124,o),
(195,-165,o),
(297,-165,cs)
);
}
);
width = 442;
},
{
layerId = m01;
shapes = (
{
closed = 1;
nodes = (
(382,-165,l),
(382,29,l),
(286,24,ls),
(239,24,o),
(225,41,o),
(225,82,cs),
(225,203,ls),
(225,239,o),
(209,268,o),
(176,279,c),
(209,288,o),
(225,318,o),
(225,354,cs),
(225,473,ls),
(225,518,o),
(242,531,o),
(286,531,cs),
(382,526,l),
(382,720,l),
(321,720,ls),
(213,720,o),
(159,664,o),
(159,539,cs),
(159,435,ls),
(159,411,o),
(143,397,o),
(120,397,cs),
(54,397,l),
(57,318,o),
(57,240,o),
(54,161,c),
(120,161,ls),
(147,161,o),
(159,147,o),
(159,122,cs),
(159,16,ls),
(159,-115,o),
(216,-165,o),
(321,-165,cs)
);
}
);
width = 436;
}
);
unicode = 123;
},
{
color = 4;
glyphname = bracketleft;
lastChange = "2023-12-08 17:49:25 +0000";
layers = (
{
layerId = "60D037D9-62E9-4843-B070-F1594CB0B0D1";
shapes = (
{
closed = 1;
nodes = (
(255,-165,l),
(255,-131,l),
(49,-171,o),
(109,-128,o),
(109,284,cs),
(109,696,o),
(50,726,o),
(255,686,c),
(255,720,l),
(84,720,l),
(92,425,o),
(92,132,o),
(84,-165,c)
);
}
);
width = 339;
},
{
layerId = m01;
shapes = (
{
closed = 1;
nodes = (
(277,-168,l),
(277,68,l),
(131,68,o),
(131,68,o),
(131,283,cs),
(131,484,o),
(132,484,o),
(277,484,c),
(277,720,l),
(54,720,l),
(62,424,o),
(62,130,o),
(54,-168,c)
);
}
);
width = 331;
}
);
unicode = 91;
},
{
color = 4;
glyphname = quotedblleft;
lastChange = "2023-12-08 17:49:25 +0000";
layers = (
{
layerId = "60D037D9-62E9-4843-B070-F1594CB0B0D1";
shapes = (
{
closed = 1;
nodes = (
(331,459,o),
(344,483,o),
(344,527,cs),
(344,567,o),
(334,585,o),
(307,594,cs),
(283,602,o),
(275,611,o),
(275,630,cs),
(275,668,o),
(301,694,o),
(337,692,c),
(337,739,l),
(282,739,o),
(252,681,o),
(252,575,cs),
(252,497,o),
(270,459,o),
(307,459,cs)
);
},
{
closed = 1;
nodes = (
(165,459,o),
(178,483,o),
(178,527,cs),
(178,567,o),
(168,585,o),
(141,594,cs),
(117,602,o),
(109,611,o),
(109,630,cs),
(109,668,o),
(135,694,o),
(171,692,c),
(171,739,l),
(116,739,o),
(86,681,o),
(86,575,cs),
(86,497,o),
(104,459,o),
(141,459,cs)
);
}
);
width = 440;
},
{
layerId = m01;
shapes = (
{
closed = 1;
nodes = (
(398,454,o),
(421,481,o),
(421,530,cs),
(421,584,o),
(392,592,o),
(364,598,cs),
(337,604,o),
(320,605,o),
(320,619,cs),
(320,649,o),
(399,644,o),
(421,628,c),
(421,740,l),
(331,740,o),
(290,688,o),
(284,590,cs),
(279,509,o),
(301,454,o),
(358,454,cs)
);
},
{
closed = 1;
nodes = (
(187,454,o),
(210,481,o),
(210,530,cs),
(210,584,o),
(181,592,o),
(153,598,cs),
(126,604,o),
(109,605,o),
(109,619,cs),
(109,649,o),
(188,644,o),
(210,628,c),
(210,740,l),
(120,740,o),
(79,688,o),
(73,590,cs),
(68,509,o),
(90,454,o),
(147,454,cs)
);
}
);
width = 493;
}
);
metricLeft = quoteleft;
metricRight = quoteleft;
unicode = 8220;
},
{
color = 4;
glyphname = quoteright;
lastChange = "2023-12-08 17:49:25 +0000";
layers = (
{
layerId = "60D037D9-62E9-4843-B070-F1594CB0B0D1";
shapes = (
{
closed = 1;
nodes = (
(158,455,o),
(188,513,o),
(188,619,cs),
(188,697,o),
(170,735,o),
(133,735,cs),
(109,735,o),
(96,711,o),
(96,667,cs),
(96,627,o),
(106,609,o),
(133,600,cs),
(157,592,o),
(165,583,o),
(165,564,cs),
(165,526,o),
(139,500,o),
(103,502,c),
(103,455,l)
);
}
);
width = 274;
},
{
layerId = m01;
shapes = (
{
closed = 1;
nodes = (
(162,454,o),
(203,506,o),
(209,604,cs),
(214,685,o),
(192,740,o),
(135,740,cs),
(95,740,o),
(72,713,o),
(72,664,cs),
(72,610,o),
(101,602,o),
(129,596,cs),
(156,590,o),
(173,589,o),
(173,575,cs),
(173,545,o),
(94,550,o),
(72,566,c),
(72,454,l)
);
}
);
width = 282;
}
);
unicode = 8217;
},
{
color = 4;
glyphname = guilsinglright;
lastChange = "2023-12-08 17:49:25 +0000";
layers = (
{
layerId = "60D037D9-62E9-4843-B070-F1594CB0B0D1";
shapes = (
{
closed = 1;
nodes = (
(128,47,l),
(184,113,o),
(241,178,o),
(296,244,c),
(241,310,o),
(184,375,o),
(128,441,c),
(99,441,l),
(152,375,o),
(203,310,o),
(256,244,c),
(203,178,o),
(152,113,o),
(99,47,c)
);
}
);
width = 395;
},
{
layerId = m01;
shapes = (
{
closed = 1;
nodes = (
(193,57,l),
(237,123,o),
(287,188,o),
(341,254,c),
(287,320,o),
(237,385,o),
(193,451,c),
(64,451,l),
(129,385,o),
(169,330,o),
(221,254,c),
(169,178,o),
(129,123,o),
(64,57,c)
);
}
);
width = 405;
}
);
metricLeft = "=period+24";
metricRight = "=period+24";
unicode = 8250;
},
{
color = 4;
glyphname = quotesingle;
lastChange = "2023-12-08 19:36:44 +0000";
layers = (
{
layerId = "60D037D9-62E9-4843-B070-F1594CB0B0D1";
shapes = (
{
closed = 1;
nodes = (
(117,424,l),
(124,738,l),
(82,738,l),
(89,424,l)
);
}
);
width = 206;
},
{
layerId = m01;
shapes = (
{
closed = 1;
nodes = (
(187,424,l),
(204,738,l),
(80,738,l),
(97,424,l)
);
}
);
width = 284;
}
);
unicode = 39;
},
{
color = 1;
export = 0;
glyphname = shortequalmod;
lastChange = "2023-12-08 17:49:24 +0000";
layers = (
{
layerId = "60D037D9-62E9-4843-B070-F1594CB0B0D1";
width = 600;
},
{
layerId = m01;
shapes = (
{
closed = 1;
nodes = (
(175,348,o),
(287,345,q),
(287,434,l),
(175,432,o),
(60,434,q),
(60,345,l)
);
},
{
closed = 1;
nodes = (
(175,226,o),
(287,224,q),
(287,313,l),
(175,310,o),
(60,313,q),
(60,224,l)
);
}
);
width = 337;
}
);
unicode = 42890;
},
{
color = 1;
glyphname = ampersand;
lastChange = "2023-12-08 17:49:25 +0000";
layers = (
{
layerId = "60D037D9-62E9-4843-B070-F1594CB0B0D1";
shapes = (
{
closed = 1;
nodes = (
(293,-7,o),
(374,-4,o),
(457,13,c),
(457,273,l),
(370,247,o),
(281,243,o),
(233,243,cs),
(170,243,o),
(155,261,o),
(155,287,cs),
(155,310,o),
(165,328,o),
(233,328,cs),
(274,328,o),
(324,325,o),
(390,324,cs),
(492,322,l),
(492,238,o),
(494,170,o),
(510,124,cs),
(541,36,o),
(601,-21,o),
(738,-5,c),
(738,210,l),
(704,194,o),
(665,187,o),
(633,187,cs),
(603,187,o),
(586,192,o),
(573,203,cs),
(554,221,o),
(555,263,o),
(555,321,c),
(709,321,l),
(709,395,l),
(555,390,l),
(555,669,o),
(505,707,o),
(257,707,cs),
(121,707,o),
(30,669,o),
(30,532,cs),
(30,475,o),
(50,441,o),
(72,418,cs),
(100,388,o),
(131,375,o),
(131,355,cs),
(131,337,o),
(104,321,o),
(79,293,cs),
(54,267,o),
(30,229,o),
(30,168,cs),
(30,31,o),
(121,-7,o),
(257,-7,cs)
);
},
{
closed = 1;
nodes = (
(165,382,o),
(155,400,o),
(155,418,cs),
(155,439,o),
(170,457,o),
(233,457,cs),
(447,456,o),
(489,475,o),
(492,390,c),
(390,386,ls),
(324,383,o),
(274,382,o),
(233,382,cs)
);
}
);
width = 872;
},
{
layerId = m01;
shapes = (
{
closed = 1;
nodes = (
(293,-7,o),
(374,-4,o),
(457,13,c),
(457,273,l),
(370,247,o),
(281,243,o),
(233,243,cs),
(170,243,o),
(155,261,o),
(155,287,cs),
(155,310,o),
(165,328,o),
(233,328,cs),
(274,328,o),
(324,325,o),
(390,324,cs),
(492,322,l),
(492,238,o),
(494,170,o),
(510,124,cs),
(541,36,o),
(601,-21,o),
(738,-5,c),
(738,210,l),
(704,194,o),
(665,187,o),
(633,187,cs),
(603,187,o),
(586,192,o),
(573,203,cs),
(554,221,o),
(555,263,o),
(555,321,c),
(709,321,l),
(709,395,l),
(555,390,l),
(555,669,o),
(505,707,o),
(257,707,cs),
(121,707,o),
(30,669,o),
(30,532,cs),
(30,475,o),
(50,441,o),
(72,418,cs),
(100,388,o),
(131,375,o),
(131,355,cs),
(131,337,o),
(104,321,o),
(79,293,cs),
(54,267,o),
(30,229,o),
(30,168,cs),
(30,31,o),
(121,-7,o),
(257,-7,cs)
);
},
{
closed = 1;
nodes = (
(165,382,o),
(155,400,o),
(155,418,cs),
(155,439,o),
(170,457,o),
(233,457,cs),
(447,456,o),
(489,475,o),
(492,390,c),
(390,386,ls),
(324,383,o),
(274,382,o),
(233,382,cs)
);
}
);
width = 768;
}
);
unicode = 38;
},
{
color = 1;
glyphname = degree;
lastChange = "2023-12-08 17:49:25 +0000";
layers = (
{
layerId = "60D037D9-62E9-4843-B070-F1594CB0B0D1";
shapes = (
{
closed = 1;
nodes = (
(220,455,o),
(252,492,o),
(252,584,cs),
(252,678,o),
(220,716,o),
(141,716,cs),
(62,716,o),
(30,678,o),
(30,584,cs),
(30,492,o),
(61,455,o),
(141,455,cs)
);
},
{
closed = 1;
nodes = (
(68,552,o),
(57,556,o),
(57,583,cs),
(57,605,o),
(68,608,o),
(141,608,cs),
(214,608,o),
(224,605,o),
(224,583,cs),
(224,556,o),
(214,552,o),
(141,552,cs)
);
}
);
width = 282;
},
{
layerId = m01;
shapes = (
{
closed = 1;
nodes = (
(220,455,o),
(252,492,o),
(252,584,cs),
(252,678,o),
(220,716,o),
(141,716,cs),
(62,716,o),
(30,678,o),
(30,584,cs),
(30,492,o),
(61,455,o),
(141,455,cs)
);
},
{
closed = 1;
nodes = (
(68,552,o),
(57,556,o),
(57,583,cs),
(57,605,o),
(68,608,o),
(141,608,cs),
(214,608,o),
(224,605,o),
(224,583,cs),
(224,556,o),
(214,552,o),
(141,552,cs)
);
}
);
width = 286;
}
);
unicode = 176;
},
{
color = 1;
export = 0;
glyphname = at;
lastChange = "2023-12-08 17:49:24 +0000";
layers = (
{
layerId = "60D037D9-62E9-4843-B070-F1594CB0B0D1";
width = 600;
},
{
layerId = m01;
shapes = (
{
closed = 1;
nodes = (
(493,-213,o),
(607,-154,o),
(649,-139,cs),
(649,-139,o),
(620,-32,o),
(612,-1,cs),
(612,-1,o),
(268,-130,o),
(104,65,cs),
(56,123,o),
(39,263,o),
(76,357,cs),
(123,477,o),
(229,525,o),
(352,530,cs),
(450,534,o),
(566,528,o),
(640,477,cs),
(705,431,o),
(728,385,o),
(731,325,cs),
(733,287,o),
(726,236,o),
(701,198,cs),
(660,136,o),
(574,121,o),
(573,209,cs),
(572,272,o),
(512,413,o),
(506,349,cs),
(500,285,o),
(510,113,o),
(505,59,cs),
(499,-13,o),
(623,7,o),
(676,52,cs),
(732,100,o),
(821,233,o),
(744,477,cs),
(690,649,o),
(495,675,o),
(343,666,cs),
(113,653,o),
(26,498,o),
(18,239,cs),
(13,70,o),
(69,-147,o),
(287,-181,cs)
);
},
{
closed = 1;
nodes = (
(476,47,o),
(468,131,o),
(493,131,cs),
(511,131,o),
(506,100,o),
(505,59,c),
(575,59,l),
(572,243,o),
(572,269,o),
(575,452,c),
(506,452,l),
(507,411,o),
(514,382,o),
(499,382,cs),
(477,382,o),
(476,464,o),
(329,464,cs),
(200,464,o),
(139,398,o),
(139,256,cs),
(139,107,o),
(200,47,o),
(329,47,cs)
);
},
{
closed = 1;
nodes = (
(224,143,o),
(208,150,o),
(208,197,cs),
(208,244,o),
(224,251,o),
(337,251,cs),
(450,251,o),
(466,244,o),
(466,197,cs),
(466,150,o),
(450,143,o),
(337,143,cs)
);
}
);
width = 792;
}
);
unicode = 64;
},
{
color = 1;
export = 0;
glyphname = section;
lastChange = "2023-12-08 17:49:25 +0000";
layers = (
{
layerId = "60D037D9-62E9-4843-B070-F1594CB0B0D1";
shapes = (
{
closed = 1;
nodes = (
(480,181,o),
(492,207,o),
(492,233,cs),
(492,287,o),
(449,317,o),
(334,347,cs),
(242,371,o),
(220,384,o),
(220,415,cs),
(220,442,o),
(255,453,o),
(344,453,cs),
(383,453,o),
(424,451,o),
(524,443,c),
(524,693,l),
(435,703,o),
(374,707,o),
(332,707,cs),
(149,707,o),
(42,626,o),
(42,487,cs),
(42,386,o),
(91,343,o),
(259,295,cs),
(379,261,o),
(406,249,o),
(406,226,cs),
(406,213,o),
(396,198,o),
(380,188,c),
(457,154,l)
);
},
{
closed = 1;
nodes = (
(417,-194,o),
(524,-113,o),
(524,26,cs),
(524,127,o),
(463,178,o),
(282,228,cs),
(182,256,o),
(160,266,o),
(160,287,cs),
(160,300,o),
(170,315,o),
(186,325,c),
(109,359,l),
(86,333,o),
(74,305,o),
(74,280,cs),
(74,233,o),
(124,197,o),
(232,166,cs),
(329,138,o),
(346,128,o),
(346,98,cs),
(346,69,o),
(316,60,o),
(222,60,cs),
(183,60,o),
(142,62,o),
(42,70,c),
(42,-180,l),
(131,-190,o),
(192,-194,o),
(234,-194,cs)
);
}
);
width = 600;
},
{
background = {
shapes = (
{
closed = 1;
nodes = (
(457,154,l),
(497,200,o),
(495,235,o),
(488,259,cs),
(477,298,o),
(428,320,o),
(334,347,cs),
(250,371,o),
(220,381,o),
(220,415,cs),
(220,439,o),
(244,449,o),
(310,452,cs),
(365,454,o),
(426,451,o),
(524,443,c),
(524,693,l),
(431,703,o),
(372,707,o),
(332,707,cs),
(147,707,o),
(42,624,o),
(42,487,cs),
(42,359,o),
(137,333,o),
(233,302,cs),
(372,257,o),
(390,261,o),
(403,238,cs),
(411,224,o),
(403,203,o),
(380,188,c)
);
},
{
closed = 1;
nodes = (
(109,359,l),
(69,313,o),
(71,276,o),
(78,254,cs),
(90,216,o),
(138,193,o),
(232,166,cs),
(316,142,o),
(346,132,o),
(346,98,cs),
(346,74,o),
(322,64,o),
(256,61,cs),
(201,59,o),
(140,62,o),
(42,70,c),
(42,-180,l),
(135,-190,o),
(194,-194,o),
(234,-194,cs),
(419,-194,o),
(524,-111,o),
(524,26,cs),
(524,154,o),
(429,180,o),
(333,211,cs),
(194,256,o),
(176,252,o),
(163,275,cs),
(155,289,o),
(163,310,o),
(186,325,c)
);
}
);
};
layerId = m01;
shapes = (
{
closed = 1;
nodes = (
(480,181,o),
(492,207,o),
(492,233,cs),
(492,287,o),
(449,317,o),
(334,347,cs),
(242,371,o),
(220,384,o),
(220,415,cs),
(220,442,o),
(255,453,o),
(344,453,cs),
(383,453,o),
(424,451,o),
(524,443,c),
(524,693,l),
(435,703,o),
(374,707,o),
(332,707,cs),
(149,707,o),
(42,626,o),
(42,487,cs),
(42,386,o),
(91,343,o),
(259,295,cs),
(379,261,o),
(406,249,o),
(406,226,cs),
(406,213,o),
(396,198,o),
(380,188,c),
(457,154,l)
);
},
{
closed = 1;
nodes = (
(417,-194,o),
(524,-113,o),
(524,26,cs),
(524,127,o),
(463,178,o),
(282,228,cs),
(182,256,o),
(160,266,o),
(160,287,cs),
(160,300,o),
(170,315,o),
(186,325,c),
(109,359,l),
(86,333,o),
(74,305,o),
(74,280,cs),
(74,233,o),
(124,197,o),
(232,166,cs),
(329,138,o),
(346,128,o),
(346,98,cs),
(346,69,o),
(316,60,o),
(222,60,cs),
(183,60,o),
(142,62,o),
(42,70,c),
(42,-180,l),
(131,-190,o),
(192,-194,o),
(234,-194,cs)
);
}
);
width = 600;
}
);
unicode = 167;
},
{
color = 1;
export = 0;
glyphname = copyright;
lastChange = "2023-12-08 17:49:24 +0000";
layers = (
{
layerId = "60D037D9-62E9-4843-B070-F1594CB0B0D1";
width = 600;
},
{
anchors = (
{
name = bottom;
pos = (482,104);
},
{
name = top;
pos = (482,604);
}
);
layerId = m01;
shapes = (
{
closed = 1;
nodes = (
(612,-12,o),
(746,124,o),
(746,349,cs),
(746,574,o),
(612,710,o),
(390,710,cs),
(167,710,o),
(32,575,o),
(32,352,cs),
(32,125,o),
(167,-12,o),
(390,-12,cs)
);
},
{
closed = 1;
nodes = (
(199,89,o),
(83,187,o),
(83,349,cs),
(83,511,o),
(199,609,o),
(390,609,cs),
(580,609,o),
(695,511,o),
(695,349,cs),
(695,187,o),
(580,89,o),
(390,89,cs)
);
},
{
closed = 1;
nodes = (
(449,153,o),
(488,158,o),
(523,174,c),
(523,254,l),
(496,241,o),
(440,239,o),
(409,239,cs),
(290,239,o),
(272,245,o),
(272,290,cs),
(272,335,o),
(290,342,o),
(409,342,cs),
(443,342,o),
(494,342,o),
(523,327,c),
(523,532,l),
(489,550,o),
(447,555,o),
(409,555,cs),
(272,555,o),
(210,491,o),
(210,351,cs),
(210,215,o),
(272,153,o),
(409,153,cs)
);
}
);
width = 778;
}
);
unicode = 169;
},
{
color = 1;
export = 0;
glyphname = trademark;
lastChange = "2023-12-08 17:49:24 +0000";
layers = (
{
layerId = "60D037D9-62E9-4843-B070-F1594CB0B0D1";
width = 783;
},
{
anchors = (
{
name = bottom;
pos = (1090,0);
},
{
name = top;
pos = (1090,700);
}
);
layerId = m01;
shapes = (
{
closed = 1;
nodes = (
(606,206,l),
(595,274,o),
(589,333,o),
(589,381,cs),
(589,409,o),
(591,419,o),
(603,429,cs),
(609,436,o),
(619,438,o),
(646,438,cs),
(681,438,o),
(685,437,o),
(698,426,cs),
(716,407,o),
(720,389,o),
(746,206,c),
(819,206,l),
(845,389,o),
(848,407,o),
(868,426,cs),
(881,437,o),
(884,438,o),
(920,438,cs),
(946,438,o),
(956,436,o),
(963,429,cs),
(974,419,o),
(977,409,o),
(977,381,cs),
(977,333,o),
(970,274,o),
(959,206,c),
(1036,206,l),
(1034,288,o),
(1032,370,o),
(1032,453,cs),
(1032,535,o),
(1034,618,o),
(1036,700,c),
(826,700,l),
(813,474,o),
(811,455,o),
(783,455,cs),
(755,455,o),
(752,474,o),
(740,700,c),
(529,700,l),
(532,618,o),
(533,535,o),
(533,453,cs),
(533,370,o),
(532,288,o),
(529,206,c)
);
},
{
closed = 1;
nodes = (
(286,206,l),
(283,289,o),
(281,400,o),
(281,480,cs),
(281,502,o),
(281,511,o),
(299,517,cs),
(312,521,o),
(337,521,o),
(388,519,cs),
(457,517,l),
(457,699,l),
(41,699,l),
(41,517,l),
(110,519,ls),
(162,521,o),
(187,521,o),
(199,517,cs),
(217,511,o),
(217,502,o),
(217,480,cs),
(217,400,o),
(215,289,o),
(212,206,c)
);
}
);
width = 1091;
}
);
unicode = 8482;
},
{
color = 1;
export = 0;
glyphname = bar;
lastChange = "2023-12-08 17:49:24 +0000";
layers = (
{
layerId = "60D037D9-62E9-4843-B070-F1594CB0B0D1";
width = 600;
},
{
layerId = m01;
shapes = (
{
closed = 1;
nodes = (
(231,-88,l),
(226,208,o),
(226,503,o),
(231,799,c),
(150,799,l),
(155,503,o),
(155,208,o),
(150,-88,c)
);
}
);
width = 381;
}
);
unicode = 124;
},
{
color = 1;
export = 0;
glyphname = brokenbar;
kernLeft = bar;
kernRight = bar;
lastChange = "2023-12-08 17:49:24 +0000";
layers = (
{
layerId = "60D037D9-62E9-4843-B070-F1594CB0B0D1";
width = 50;
},
{
layerId = m01;
shapes = (
{
closed = 1;
nodes = (
(231,431,l),
(229,527,o),
(229,624,o),
(231,720,c),
(150,720,l),
(152,624,o),
(152,527,o),
(150,431,c)
);
},
{
closed = 1;
nodes = (
(231,29,l),
(229,126,o),
(229,222,o),
(231,318,c),
(150,318,l),
(152,222,o),
(152,126,o),
(150,29,c)
);
}
);
width = 381;
}
);
metricLeft = "=bar";
metricRight = "=|";
unicode = 166;
},
{
color = 1;
export = 0;
glyphname = estimated;
kernLeft = estimated;
kernRight = estimated;
lastChange = "2023-12-08 17:49:25 +0000";
layers = (
{
layerId = "60D037D9-62E9-4843-B070-F1594CB0B0D1";
shapes = (
{
closed = 1;
nodes = (
(557,-5,o),
(635,33,o),
(724,131,c),
(654,131,l),
(600,70,o),
(511,22,o),
(416,22,cs),
(274,22,o),
(179,108,o),
(179,143,cs),
(179,311,ls),
(179,328,o),
(185,329,o),
(194,329,cs),
(792,329,l),
(782,557,o),
(638,682,o),
(416,682,cs),
(196,682,o),
(40,544,o),
(40,338,cs),
(40,129,o),
(196,-5,o),
(416,-5,cs)
);
},
{
closed = 1;
nodes = (
(183,350,o),
(179,353,o),
(179,359,cs),
(179,538,ls),
(179,568,o),
(280,658,o),
(415,658,cs),
(522,658,o),
(652,585,o),
(652,531,cs),
(652,366,ls),
(652,354,o),
(650,350,o),
(636,350,cs),
(194,350,ls)
);
}
);
width = 832;
},
{
layerId = m01;
shapes = (
{
closed = 1;
nodes = (
(576,0,o),
(657,39,o),
(749,141,c),
(677,141,l),
(621,78,o),
(529,28,o),
(430,28,cs),
(283,28,o),
(185,117,o),
(185,153,cs),
(185,327,ls),
(185,345,o),
(191,346,o),
(200,346,cs),
(820,346,l),
(809,582,o),
(660,712,o),
(430,712,cs),
(202,712,o),
(40,569,o),
(40,355,cs),
(40,139,o),
(202,0,o),
(430,0,cs)
);
},
{
closed = 1;
nodes = (
(189,368,o),
(185,371,o),
(185,377,cs),
(185,563,ls),
(185,594,o),
(289,687,o),
(429,687,cs),
(540,687,o),
(675,611,o),
(675,556,cs),
(675,385,ls),
(675,372,o),
(673,368,o),
(658,368,cs),
(200,368,ls)
);
}
);
width = 860;
}
);
metricLeft = "=40";
metricRight = "=|";
unicode = 8494;
},
{
color = 1;
glyphname = euro;
lastChange = "2023-12-08 17:49:25 +0000";
layers = (
{
layerId = "60D037D9-62E9-4843-B070-F1594CB0B0D1";
shapes = (
{
closed = 1;
nodes = (
(137,381,o),
(271,381,o),
(407,380,c),
(407,406,l),
(271,404,o),
(137,404,o),
(1,406,c),
(1,380,l)
);
},
{
closed = 1;
nodes = (
(137,302,o),
(271,302,o),
(407,300,c),
(407,326,l),
(271,325,o),
(137,325,o),
(1,326,c),
(1,300,l)
);
},
{
ref = C;
}
);
width = 600;
},
{
layerId = m01;
shapes = (
{
closed = 1;
nodes = (
(124,365,o),
(260,365,o),
(397,363,c),
(397,402,l),
(260,400,o),
(124,400,o),
(-13,402,c),
(-13,363,l)
);
},
{
closed = 1;
nodes = (
(124,306,o),
(260,306,o),
(397,304,c),
(397,343,l),
(260,341,o),
(124,341,o),
(-13,343,c),
(-13,304,l)
);
},
{
ref = C;
}
);
width = 585;
}
);
unicode = 8364;
},
{
color = 1;
export = 0;
glyphname = cent;
lastChange = "2023-12-08 17:49:24 +0000";
layers = (
{
layerId = "60D037D9-62E9-4843-B070-F1594CB0B0D1";
width = 600;
},
{
layerId = m01;
shapes = (
{
closed = 1;
nodes = (
(346,-88,l),
(341,143,o),
(341,374,o),
(346,605,c),
(265,605,l),
(270,374,o),
(270,143,o),
(265,-88,c)
);
},
{
ref = c;
}
);
width = 487;
}
);
unicode = 162;
},
{
color = 1;
export = 0;
glyphname = currency;
kernLeft = currency;
kernRight = currency;
lastChange = "2023-12-08 17:49:25 +0000";
layers = (
{
layerId = "60D037D9-62E9-4843-B070-F1594CB0B0D1";
shapes = (
{
closed = 1;
nodes = (
(372,188,o),
(444,260,o),
(444,350,cs),
(444,440,o),
(372,512,o),
(282,512,cs),
(192,512,o),
(120,440,o),
(120,350,cs),
(120,260,o),
(192,188,o),
(282,188,cs)
);
},
{
closed = 1;
nodes = (
(199,232,l),
(164,266,l),
(50,163,l),
(90,120,l)
);
},
{
closed = 1;
nodes = (
(184,268,o),
(170,274,o),
(170,322,cs),
(170,371,o),
(184,378,o),
(282,378,cs),
(380,378,o),
(394,371,o),
(394,322,cs),
(394,274,o),
(380,268,o),
(282,268,cs)
);
},
{
closed = 1;
nodes = (
(514,163,l),
(400,266,l),
(365,232,l),
(474,120,l)
);
},
{
closed = 1;
nodes = (
(199,469,l),
(90,581,l),
(50,538,l),
(164,435,l)
);
},
{
closed = 1;
nodes = (
(514,538,l),
(474,581,l),
(365,469,l),
(400,435,l)
);
}
);
width = 564;
},
{
layerId = m01;
shapes = (
{
closed = 1;
nodes = (
(372,188,o),
(444,260,o),
(444,350,cs),
(444,440,o),
(372,512,o),
(282,512,cs),
(192,512,o),
(120,440,o),
(120,350,cs),
(120,260,o),
(192,188,o),
(282,188,cs)
);
},
{
closed = 1;
nodes = (
(199,232,l),
(164,266,l),
(50,163,l),
(90,120,l)
);
},
{
closed = 1;
nodes = (
(184,268,o),
(170,274,o),
(170,322,cs),
(170,371,o),
(184,378,o),
(282,378,cs),
(380,378,o),
(394,371,o),
(394,322,cs),
(394,274,o),
(380,268,o),
(282,268,cs)
);
},
{
closed = 1;
nodes = (
(514,163,l),
(400,266,l),
(365,232,l),
(474,120,l)
);
},
{
closed = 1;
nodes = (
(199,469,l),
(90,581,l),
(50,538,l),
(164,435,l)
);
},
{
closed = 1;
nodes = (
(514,538,l),
(474,581,l),
(365,469,l),
(400,435,l)
);
}
);
width = 564;
}
);
metricLeft = "=50";
metricRight = "=|";
unicode = 164;
},
{
color = 1;
export = 0;
glyphname = dollar;
lastChange = "2023-12-08 17:49:24 +0000";
layers = (
{
layerId = "60D037D9-62E9-4843-B070-F1594CB0B0D1";
width = 600;
},
{
layerId = m01;
shapes = (
{
closed = 1;
nodes = (
(354,-88,l),
(349,208,o),
(349,503,o),
(354,799,c),
(273,799,l),
(278,503,o),
(278,208,o),
(273,-88,c)
);
},
{
ref = S;
}
);
width = 566;
}
);
unicode = 36;
},
{
color = 1;
export = 0;
glyphname = kip;
lastChange = "2023-12-08 17:49:24 +0000";
layers = (
{
layerId = "60D037D9-62E9-4843-B070-F1594CB0B0D1";
width = 600;
},
{
layerId = m01;
shapes = (
{
closed = 1;
nodes = (
(218,262,o),
(404,262,o),
(610,257,c),
(610,338,l),
(404,333,o),
(218,333,o),
(12,338,c),
(12,257,l)
);
},
{
ref = K.salt;
}
);
width = 697;
}
);
unicode = 8365;
},
{
color = 1;
export = 0;
glyphname = naira;
lastChange = "2023-12-08 17:49:24 +0000";
layers = (
{
layerId = "60D037D9-62E9-4843-B070-F1594CB0B0D1";
width = 600;
},
{
layerId = m01;
shapes = (
{
closed = 1;
nodes = (
(269,462,o),
(548,462,o),
(782,457,c),
(782,546,l),
(548,541,o),
(269,541,o),
(30,546,c),
(30,457,l)
);
},
{
closed = 1;
nodes = (
(269,185,o),
(548,185,o),
(782,180,c),
(782,269,l),
(548,264,o),
(269,264,o),
(30,269,c),
(30,180,l)
);
},
{
pos = (72,0);
ref = N;
}
);
width = 812;
}
);
unicode = 8358;
},
{
color = 1;
export = 0;
glyphname = sterling;
lastChange = "2023-12-08 17:49:25 +0000";
layers = (
{
layerId = "60D037D9-62E9-4843-B070-F1594CB0B0D1";
shapes = (
{
closed = 1;
nodes = (
(14,182,o),
(148,118,o),
(193,229,cs),
(226,311,o),
(132,357,o),
(171,414,cs),
(206,465,o),
(357,468,o),
(490,386,c),
(488,683,l),
(436,697,o),
(187,756,o),
(94,644,cs),
(-13,516,o),
(67,412,o),
(114,348,cs),
(171,270,o),
(87,199,o),
(16,182,cs)
);
},
{
closed = 1;
nodes = (
(513,0,l),
(513,199,l),
(140,199,l),
(16,182,l),
(16,0,l)
);
},
{
closed = 1;
nodes = (
(140,261,o),
(276,261,o),
(413,259,c),
(413,298,l),
(276,296,o),
(140,296,o),
(3,298,c),
(3,259,l)
);
},
{
closed = 1;
nodes = (
(140,320,o),
(276,320,o),
(413,318,c),
(413,357,l),
(276,355,o),
(140,355,o),
(3,357,c),
(3,318,l)
);
}
);
width = 600;
},
{
layerId = m01;
shapes = (
{
closed = 1;
nodes = (
(14,182,o),
(148,118,o),
(193,229,cs),
(226,311,o),
(132,357,o),
(171,414,cs),
(206,465,o),
(357,468,o),
(490,386,c),
(488,683,l),
(436,697,o),
(187,756,o),
(94,644,cs),
(-13,516,o),
(67,412,o),
(114,348,cs),
(171,270,o),
(87,199,o),
(16,182,cs)
);
},
{
closed = 1;
nodes = (
(513,0,l),
(513,199,l),
(140,199,l),
(16,182,l),
(16,0,l)
);
},
{
closed = 1;
nodes = (
(140,261,o),
(276,261,o),
(413,259,c),
(413,298,l),
(276,296,o),
(140,296,o),
(3,298,c),
(3,259,l)
);
},
{
closed = 1;
nodes = (
(140,320,o),
(276,320,o),
(413,318,c),
(413,357,l),
(276,355,o),
(140,355,o),
(3,357,c),
(3,318,l)
);
}
);
width = 600;
}
);
unicode = 163;
},
{
color = 1;
export = 0;
glyphname = plus;
lastChange = "2023-12-08 17:49:24 +0000";
layers = (
{
layerId = "60D037D9-62E9-4843-B070-F1594CB0B0D1";
width = 600;
},
{
layerId = m01;
shapes = (
{
closed = 1;
nodes = (
(194,185,o),
(429,181,q),
(429,335,l),
(234,331,o),
(34,335,q),
(34,181,l)
);
},
{
closed = 1;
nodes = (
(256,61,l),
(252,258,o),
(256,455,q),
(203,455,l),
(207,258,o),
(203,61,q)
);
}
);
width = 463;
}
);
unicode = 43;
},
{
color = 1;
export = 0;
glyphname = minus;
lastChange = "2023-12-08 17:49:24 +0000";
layers = (
{
layerId = "60D037D9-62E9-4843-B070-F1594CB0B0D1";
width = 600;
},
{
layerId = m01;
shapes = (
{
closed = 1;
nodes = (
(234,185,o),
(429,181,q),
(429,335,l),
(234,331,o),
(34,335,q),
(34,181,l)
);
}
);
width = 459;
}
);
unicode = 8722;
},
{
color = 1;
export = 0;
glyphname = multiply;
lastChange = "2023-12-08 17:49:24 +0000";
layers = (
{
layerId = "60D037D9-62E9-4843-B070-F1594CB0B0D1";
width = 600;
},
{
layerId = m01;
shapes = (
{
closed = 1;
nodes = (
(309,233,o),
(425,343,q),
(316,452,l),
(177,308,o),
(36,173,q),
(145,64,l)
);
},
{
closed = 1;
nodes = (
(420,120,l),
(247,278,o),
(86,442,q),
(41,397,l),
(208,240,o),
(374,74,q)
);
}
);
width = 461;
}
);
unicode = 215;
},
{
color = 1;
export = 0;
glyphname = divide;
lastChange = "2023-12-08 17:49:24 +0000";
layers = (
{
layerId = "60D037D9-62E9-4843-B070-F1594CB0B0D1";
width = 600;
},
{
layerId = m01;
shapes = (
{
closed = 1;
nodes = (
(284,371,o),
(307,388,o),
(307,420,cs),
(307,449,o),
(284,470,o),
(232,470,cs),
(180,470,o),
(157,452,o),
(157,420,cs),
(157,391,o),
(178,371,o),
(232,371,cs)
);
},
{
closed = 1;
nodes = (
(284,48,o),
(307,65,o),
(307,97,cs),
(307,126,o),
(284,147,o),
(232,147,cs),
(180,147,o),
(157,129,o),
(157,97,cs),
(157,68,o),
(178,48,o),
(232,48,cs)
);
},
{
ref = minus;
}
);
width = 459;
}
);
unicode = 247;
},
{
color = 1;
export = 0;
glyphname = equal;
lastChange = "2023-12-08 17:49:24 +0000";
layers = (
{
layerId = "60D037D9-62E9-4843-B070-F1594CB0B0D1";
width = 600;
},
{
layerId = m01;
shapes = (
{
closed = 1;
nodes = (
(304,287,o),
(499,283,q),
(499,437,l),
(304,433,o),
(104,437,q),
(104,283,l)
);
},
{
closed = 1;
nodes = (
(304,76,o),
(499,72,q),
(499,226,l),
(304,222,o),
(104,226,q),
(104,72,l)
);
}
);
width = 600;
}
);
unicode = 61;
},
{
color = 1;
export = 0;
glyphname = notequal;
lastChange = "2023-12-08 17:49:24 +0000";
layers = (
{
layerId = "60D037D9-62E9-4843-B070-F1594CB0B0D1";
width = 600;
},
{
layerId = m01;
shapes = (
{
closed = 1;
nodes = (
(234,0,l),
(422,500,l),
(369,500,l),
(181,0,l)
);
},
{
closed = 1;
nodes = (
(304,76,o),
(499,72,q),
(499,226,l),
(304,222,o),
(104,226,q),
(104,72,l)
);
},
{
closed = 1;
nodes = (
(304,287,o),
(499,283,q),
(499,437,l),
(304,433,o),
(104,437,q),
(104,283,l)
);
}
);
width = 600;
}
);
unicode = 8800;
},
{
color = 1;
export = 0;
glyphname = percent;
lastChange = "2023-12-08 17:49:24 +0000";
layers = (
{
layerId = "60D037D9-62E9-4843-B070-F1594CB0B0D1";
width = 600;
},
{
layerId = m01;
shapes = (
{
closed = 1;
nodes = (
(120,-16,l),
(222,249,o),
(324,451,o),
(446,716,c),
(392,716,l),
(286,451,o),
(183,249,o),
(66,-16,c)
);
},
{
closed = 1;
nodes = (
(450,-16,o),
(482,21,o),
(482,113,cs),
(482,207,o),
(450,245,o),
(371,245,cs),
(292,245,o),
(260,207,o),
(260,113,cs),
(260,21,o),
(291,-16,o),
(371,-16,cs)
);
},
{
closed = 1;
nodes = (
(298,81,o),
(287,85,o),
(287,112,cs),
(287,134,o),
(298,137,o),
(371,137,cs),
(444,137,o),
(454,134,o),
(454,112,cs),
(454,85,o),
(444,81,o),
(371,81,cs)
);
},
{
closed = 1;
nodes = (
(220,455,o),
(252,492,o),
(252,584,cs),
(252,678,o),
(220,716,o),
(141,716,cs),
(62,716,o),
(30,678,o),
(30,584,cs),
(30,492,o),
(61,455,o),
(141,455,cs)
);
},
{
closed = 1;
nodes = (
(68,552,o),
(57,556,o),
(57,583,cs),
(57,605,o),
(68,608,o),
(141,608,cs),
(214,608,o),
(224,605,o),
(224,583,cs),
(224,556,o),
(214,552,o),
(141,552,cs)
);
}
);
width = 512;
}
);
unicode = 37;
},
{
color = 1;
glyphname = dottedCircle;
lastChange = "2023-12-08 17:49:25 +0000";
layers = (
{
anchors = (
{
name = bottom;
pos = (369,0);
},
{
name = top;
pos = (369,740);
}
);
layerId = "60D037D9-62E9-4843-B070-F1594CB0B0D1";
shapes = (
{
closed = 1;
nodes = (
(633,461,o),
(652,480,o),
(652,507,cs),
(652,533,o),
(633,553,o),
(606,553,cs),
(580,553,o),
(560,533,o),
(560,507,cs),
(560,480,o),
(580,461,o),
(606,461,cs)
);
},
{
closed = 1;
nodes = (
(259,87,o),
(278,106,o),
(278,133,cs),
(278,159,o),
(259,179,o),
(232,179,cs),
(206,179,o),
(186,159,o),
(186,133,cs),
(186,106,o),
(206,87,o),
(232,87,cs)
);
},
{
closed = 1;
nodes = (
(158,187,o),
(178,207,o),
(178,233,cs),
(178,260,o),
(158,279,o),
(132,279,cs),
(105,279,o),
(86,260,o),
(86,233,cs),
(86,207,o),
(105,187,o),
(132,187,cs)
);
},
{
closed = 1;
nodes = (
(395,51,o),
(415,70,o),
(415,96,cs),
(415,123,o),
(395,142,o),
(369,142,cs),
(343,142,o),
(323,123,o),
(323,96,cs),
(323,70,o),
(343,51,o),
(369,51,cs)
);
},
{
closed = 1;
nodes = (
(122,324,o),
(141,344,o),
(141,370,cs),
(141,396,o),
(122,416,o),
(95,416,cs),
(69,416,o),
(50,396,o),
(50,370,cs),
(50,344,o),
(69,324,o),
(95,324,cs)
);
},
{
closed = 1;
nodes = (
(532,87,o),
(552,106,o),
(552,133,cs),
(552,159,o),
(532,179,o),
(506,179,cs),
(479,179,o),
(460,159,o),
(460,133,cs),
(460,106,o),
(479,87,o),
(506,87,cs)
);
},
{
closed = 1;
nodes = (
(158,461,o),
(178,480,o),
(178,507,cs),
(178,533,o),
(158,553,o),
(132,553,cs),
(105,553,o),
(86,533,o),
(86,507,cs),
(86,480,o),
(105,461,o),
(132,461,cs)
);
},
{
closed = 1;
nodes = (
(633,187,o),
(652,207,o),
(652,233,cs),
(652,260,o),
(633,279,o),
(606,279,cs),
(580,279,o),
(560,260,o),
(560,233,cs),
(560,207,o),
(580,187,o),
(606,187,cs)
);
},
{
closed = 1;
nodes = (
(259,561,o),
(278,581,o),
(278,607,cs),
(278,634,o),
(259,653,o),
(232,653,cs),
(206,653,o),
(186,634,o),
(186,607,cs),
(186,581,o),
(206,561,o),
(232,561,cs)
);
},
{
closed = 1;
nodes = (
(395,598,o),
(415,617,o),
(415,644,cs),
(415,670,o),
(395,689,o),
(369,689,cs),
(343,689,o),
(323,670,o),
(323,644,cs),
(323,617,o),
(343,598,o),
(369,598,cs)
);
},
{
closed = 1;
nodes = (
(669,324,o),
(688,344,o),
(688,370,cs),
(688,396,o),
(669,416,o),
(643,416,cs),
(616,416,o),
(597,396,o),
(597,370,cs),
(597,344,o),
(616,324,o),
(643,324,cs)
);
},
{
closed = 1;
nodes = (
(532,561,o),
(552,581,o),
(552,607,cs),
(552,634,o),
(532,653,o),
(506,653,cs),
(479,653,o),
(460,634,o),
(460,607,cs),
(460,581,o),
(479,561,o),
(506,561,cs)
);
}
);
width = 738;
},
{
anchors = (
{
name = bottom;
pos = (369,0);
},
{
name = top;
pos = (369,740);
}
);
layerId = m01;
shapes = (
{
closed = 1;
nodes = (
(532,561,o),
(552,581,o),
(552,607,cs),
(552,634,o),
(532,653,o),
(506,653,cs),
(479,653,o),
(460,634,o),
(460,607,cs),
(460,581,o),
(479,561,o),
(506,561,cs)
);
},
{
closed = 1;
nodes = (
(259,87,o),
(278,106,o),
(278,133,cs),
(278,159,o),
(259,179,o),
(232,179,cs),
(206,179,o),
(186,159,o),
(186,133,cs),
(186,106,o),
(206,87,o),
(232,87,cs)
);
},
{
closed = 1;
nodes = (
(158,187,o),
(178,207,o),
(178,233,cs),
(178,260,o),
(158,279,o),
(132,279,cs),
(105,279,o),
(86,260,o),
(86,233,cs),
(86,207,o),
(105,187,o),
(132,187,cs)
);
},
{
closed = 1;
nodes = (
(395,51,o),
(415,70,o),
(415,96,cs),
(415,123,o),
(395,142,o),
(369,142,cs),
(343,142,o),
(323,123,o),
(323,96,cs),
(323,70,o),
(343,51,o),
(369,51,cs)
);
},
{
closed = 1;
nodes = (
(122,324,o),
(141,344,o),
(141,370,cs),
(141,396,o),
(122,416,o),
(95,416,cs),
(69,416,o),
(50,396,o),
(50,370,cs),
(50,344,o),
(69,324,o),
(95,324,cs)
);
},
{
closed = 1;
nodes = (
(532,87,o),
(552,106,o),
(552,133,cs),
(552,159,o),
(532,179,o),
(506,179,cs),
(479,179,o),
(460,159,o),
(460,133,cs),
(460,106,o),
(479,87,o),
(506,87,cs)
);
},
{
closed = 1;
nodes = (
(158,461,o),
(178,480,o),
(178,507,cs),
(178,533,o),
(158,553,o),
(132,553,cs),
(105,553,o),
(86,533,o),
(86,507,cs),
(86,480,o),
(105,461,o),
(132,461,cs)
);
},
{
closed = 1;
nodes = (
(633,187,o),
(652,207,o),
(652,233,cs),
(652,260,o),
(633,279,o),
(606,279,cs),
(580,279,o),
(560,260,o),
(560,233,cs),
(560,207,o),
(580,187,o),
(606,187,cs)
);
},
{
closed = 1;
nodes = (
(259,561,o),
(278,581,o),
(278,607,cs),
(278,634,o),
(259,653,o),
(232,653,cs),
(206,653,o),
(186,634,o),
(186,607,cs),
(186,581,o),
(206,561,o),
(232,561,cs)
);
},
{
closed = 1;
nodes = (
(395,598,o),
(415,617,o),
(415,644,cs),
(415,670,o),
(395,689,o),
(369,689,cs),
(343,689,o),
(323,670,o),
(323,644,cs),
(323,617,o),
(343,598,o),
(369,598,cs)
);
},
{
closed = 1;
nodes = (
(669,324,o),
(688,344,o),
(688,370,cs),
(688,396,o),
(669,416,o),
(643,416,cs),
(616,416,o),
(597,396,o),
(597,370,cs),
(597,344,o),
(616,324,o),
(643,324,cs)
);
},
{
closed = 1;
nodes = (
(633,461,o),
(652,480,o),
(652,507,cs),
(652,533,o),
(633,553,o),
(606,553,cs),
(580,553,o),
(560,533,o),
(560,507,cs),
(560,480,o),
(580,461,o),
(606,461,cs)
);
}
);
width = 738;
}
);
metricLeft = "=50";
metricRight = "=|";
unicode = 9676;
},
{
color = 1;
glyphname = lozenge;
kernLeft = lozenge;
kernRight = lozenge;
lastChange = "2023-12-08 17:49:25 +0000";
layers = (
{
layerId = "60D037D9-62E9-4843-B070-F1594CB0B0D1";
shapes = (
{
closed = 1;
nodes = (
(255,105,l),
(402,350,l),
(255,595,l),
(197,595,l),
(50,350,l),
(197,105,l)
);
},
{
closed = 1;
nodes = (
(108,350,l),
(226,546,l),
(344,350,l),
(226,154,l)
);
}
);
width = 452;
},
{
layerId = m01;
shapes = (
{
closed = 1;
nodes = (
(255,105,l),
(402,350,l),
(255,595,l),
(197,595,l),
(50,350,l),
(197,105,l)
);
},
{
closed = 1;
nodes = (
(108,350,l),
(226,546,l),
(344,350,l),
(226,154,l)
);
}
);
width = 452;
}
);
metricLeft = "=50";
metricRight = "=|";
unicode = 9674;
},
{
color = 2;
glyphname = dotaccentcomb;
lastChange = "2023-12-08 19:33:22 +0000";
layers = (
{
anchors = (
{
name = _top;
pos = (81,480);
},
{
name = top;
pos = (81,622);
}
);
layerId = "60D037D9-62E9-4843-B070-F1594CB0B0D1";
shapes = (
{
closed = 1;
nodes = (
(100,551,o),
(116,566,o),
(116,587,cs),
(116,606,o),
(100,622,o),
(81,622,cs),
(61,622,o),
(45,606,o),
(45,587,cs),
(45,566,o),
(61,551,o),
(81,551,cs)
);
}
);
width = 161;
},
{
anchors = (
{
name = _top;
pos = (102,500);
},
{
name = top;
pos = (102,712);
}
);
layerId = m01;
shapes = (
{
closed = 1;
nodes = (
(144,559,o),
(178,593,o),
(178,636,cs),
(178,678,o),
(144,712,o),
(102,712,cs),
(59,712,o),
(25,678,o),
(25,636,cs),
(25,593,o),
(59,559,o),
(102,559,cs)
);
}
);
width = 203;
}
);
unicode = 775;
},
{
color = 2;
glyphname = gravecomb;
lastChange = "2023-12-08 19:33:22 +0000";
layers = (
{
anchors = (
{
name = _top;
pos = (146,480);
},
{
name = top;
pos = (146,641);
}
);
layerId = "60D037D9-62E9-4843-B070-F1594CB0B0D1";
shapes = (
{
closed = 1;
nodes = (
(217,560,l),
(193,574,o),
(132,619,o),
(114,641,c),
(75,601,l),
(112,587,o),
(153,565,o),
(193,542,c)
);
}
);
width = 292;
},
{
anchors = (
{
name = _top;
pos = (165,500);
},
{
name = top;
pos = (165,722);
}
);
layerId = m01;
shapes = (
{
closed = 1;
nodes = (
(291,580,l),
(249,604,o),
(141,684,o),
(109,722,c),
(40,652,l),
(106,627,o),
(178,588,o),
(249,548,c)
);
}
);
width = 331;
}
);
metricLeft = period;
metricRight = period;
unicode = 768;
},
{
color = 2;
glyphname = acutecomb;
lastChange = "2023-12-08 19:33:22 +0000";
layers = (
{
anchors = (
{
name = _top;
pos = (149,480);
},
{
name = top;
pos = (149,641);
}
);
layerId = "60D037D9-62E9-4843-B070-F1594CB0B0D1";
shapes = (
{
closed = 1;
nodes = (
(142,565,o),
(183,587,o),
(220,601,c),
(181,641,l),
(163,619,o),
(102,574,o),
(78,560,c),
(102,542,l)
);
}
);
width = 300;
},
{
anchors = (
{
name = _top;
pos = (176,500);
},
{
name = top;
pos = (176,722);
}
);
layerId = m01;
shapes = (
{
closed = 1;
nodes = (
(163,588,o),
(235,627,o),
(301,652,c),
(232,722,l),
(200,684,o),
(92,604,o),
(50,580,c),
(92,548,l)
);
}
);
width = 300;
}
);
unicode = 769;
},
{
color = 2;
glyphname = hungarumlautcomb;
lastChange = "2023-12-08 19:35:26 +0000";
layers = (
{
anchors = (
{
name = _top;
pos = (176,480);
},
{
name = top;
pos = (176,700);
}
);
layerId = "60D037D9-62E9-4843-B070-F1594CB0B0D1";
shapes = (
{
closed = 1;
nodes = (
(128,584,o),
(152,637,o),
(177,679,c),
(124,700,l),
(119,662,o),
(89,568,o),
(75,535,c),
(105,529,l)
);
},
{
closed = 1;
nodes = (
(228,584,o),
(252,637,o),
(277,679,c),
(224,700,l),
(219,662,o),
(189,568,o),
(175,535,c),
(205,529,l)
);
}
);
width = 352;
},
{
anchors = (
{
name = _top;
pos = (187,500);
},
{
name = top;
pos = (187,745);
}
);
layerId = m01;
shapes = (
{
closed = 1;
nodes = (
(123,611,o),
(161,673,o),
(200,721,c),
(117,744,l),
(109,701,o),
(62,592,o),
(40,555,c),
(86,549,l)
);
},
{
closed = 1;
nodes = (
(256,611,o),
(294,673,o),
(333,722,c),
(250,745,l),
(242,701,o),
(194,591,o),
(173,555,c),
(219,549,l)
);
}
);
width = 373;
}
);
metricLeft = period;
metricRight = period;
unicode = 779;
},
{
color = 2;
glyphname = caroncomb.alt;
lastChange = "2023-12-08 19:38:14 +0000";
layers = (
{
anchors = (
{
name = _topright;
pos = (79,701);
}
);
layerId = "60D037D9-62E9-4843-B070-F1594CB0B0D1";
shapes = (
{
closed = 1;
nodes = (
(97,419,l),
(131,696,l),
(79,701,l),
(75,423,l)
);
}
);
width = 206;
},
{
anchors = (
{
name = _topright;
pos = (44,701);
}
);
layerId = m01;
shapes = (
{
closed = 1;
nodes = (
(120,419,l),
(154,696,l),
(44,701,l),
(40,423,l)
);
}
);
width = 194;
}
);
metricLeft = period;
metricRight = period;
},
{
color = 2;
glyphname = circumflexcomb;
lastChange = "2023-12-08 19:33:22 +0000";
layers = (
{
anchors = (
{
name = _top;
pos = (172,480);
},
{
name = top;
pos = (172,639);
}
);
layerId = "60D037D9-62E9-4843-B070-F1594CB0B0D1";
shapes = (
{
closed = 1;
nodes = (
(107,548,o),
(140,573,o),
(172,599,c),
(204,573,o),
(237,548,o),
(269,522,c),
(269,557,l),
(237,584,o),
(204,612,o),
(172,639,c),
(140,612,o),
(107,584,o),
(75,557,c),
(75,522,l)
);
}
);
width = 344;
},
{
anchors = (
{
name = _top;
pos = (163,500);
},
{
name = top;
pos = (163,730);
}
);
layerId = m01;
shapes = (
{
closed = 1;
nodes = (
(78,551,o),
(117,578,o),
(163,610,c),
(209,578,o),
(248,551,o),
(286,520,c),
(286,634,l),
(245,664,o),
(204,696,o),
(163,730,c),
(122,696,o),
(81,664,o),
(40,634,c),
(40,520,l)
);
}
);
width = 326;
}
);
metricLeft = period;
metricRight = period;
unicode = 770;
},
{
color = 2;
glyphname = caroncomb;
lastChange = "2023-12-08 19:33:22 +0000";
layers = (
{
anchors = (
{
name = _top;
pos = (172,480);
},
{
name = top;
pos = (172,639);
}
);
layerId = "60D037D9-62E9-4843-B070-F1594CB0B0D1";
shapes = (
{
closed = 1;
nodes = (
(204,549,o),
(237,577,o),
(269,604,c),
(269,639,l),
(237,613,o),
(204,588,o),
(172,562,c),
(140,588,o),
(107,613,o),
(75,639,c),
(75,604,l),
(107,577,o),
(140,549,o),
(172,522,c)
);
}
);
width = 344;
},
{
anchors = (
{
name = _top;
pos = (163,500);
},
{
name = top;
pos = (163,730);
}
);
layerId = m01;
shapes = (
{
closed = 1;
nodes = (
(204,554,o),
(245,586,o),
(286,616,c),
(286,730,l),
(248,699,o),
(209,672,o),
(163,640,c),
(117,672,o),
(78,699,o),
(40,730,c),
(40,616,l),
(81,586,o),
(122,554,o),
(163,520,c)
);
}
);
width = 326;
}
);
metricLeft = period;
metricRight = period;
unicode = 780;
},
{
color = 2;
glyphname = brevecomb;
lastChange = "2023-12-08 19:33:22 +0000";
layers = (
{
anchors = (
{
name = _top;
pos = (168,480);
},
{
name = top;
pos = (168,602);
}
);
layerId = "60D037D9-62E9-4843-B070-F1594CB0B0D1";
shapes = (
{
closed = 1;
nodes = (
(238,547,o),
(261,572,o),
(261,602,c),
(222,602,l),
(222,576,o),
(201,566,o),
(168,566,cs),
(135,566,o),
(114,576,o),
(114,602,c),
(75,602,l),
(75,572,o),
(98,547,o),
(168,547,cs)
);
}
);
width = 336;
},
{
anchors = (
{
name = _top;
pos = (194,500);
},
{
name = top;
pos = (194,672);
}
);
layerId = m01;
shapes = (
{
closed = 1;
nodes = (
(330,556,o),
(348,609,o),
(348,672,c),
(256,672,l),
(261,631,o),
(232,615,o),
(194,615,cs),
(156,615,o),
(127,631,o),
(132,672,c),
(40,672,l),
(40,609,o),
(58,556,o),
(194,556,cs)
);
}
);
width = 388;
}
);
metricLeft = period;
metricRight = period;
unicode = 774;
},
{
color = 2;
glyphname = ringcomb;
lastChange = "2023-12-08 19:33:22 +0000";
layers = (
{
anchors = (
{
name = _top;
pos = (129,480);
},
{
name = top;
pos = (129,631);
}
);
layerId = "60D037D9-62E9-4843-B070-F1594CB0B0D1";
shapes = (
{
closed = 1;
nodes = (
(168,543,o),
(183,555,o),
(183,587,cs),
(183,619,o),
(168,631,o),
(129,631,cs),
(90,631,o),
(75,619,o),
(75,587,cs),
(75,555,o),
(90,543,o),
(129,543,cs)
);
},
{
closed = 1;
nodes = (
(94,572,o),
(89,574,o),
(89,587,cs),
(89,600,o),
(94,602,o),
(129,602,cs),
(164,602,o),
(169,600,o),
(169,587,cs),
(169,574,o),
(164,572,o),
(129,572,cs)
);
}
);
width = 258;
},
{
anchors = (
{
name = _top;
pos = (135,500);
},
{
name = top;
pos = (135,714);
}
);
layerId = m01;
shapes = (
{
closed = 1;
nodes = (
(204,558,o),
(230,580,o),
(230,636,cs),
(230,692,o),
(204,714,o),
(135,714,cs),
(66,714,o),
(40,692,o),
(40,636,cs),
(40,580,o),
(66,558,o),
(135,558,cs)
);
},
{
closed = 1;
nodes = (
(89,610,o),
(82,613,o),
(82,636,cs),
(82,659,o),
(89,662,o),
(135,662,cs),
(181,662,o),
(188,659,o),
(188,636,cs),
(188,613,o),
(181,610,o),
(135,610,cs)
);
}
);
width = 270;
}
);
metricLeft = period;
metricRight = period;
unicode = 778;
},
{
color = 2;
glyphname = tildecomb;
lastChange = "2023-12-08 19:33:22 +0000";
layers = (
{
anchors = (
{
name = _top;
pos = (165,480);
},
{
name = top;
pos = (165,632);
}
);
layerId = "60D037D9-62E9-4843-B070-F1594CB0B0D1";
shapes = (
{
closed = 1;
nodes = (
(225,547,o),
(254,585,o),
(254,632,c),
(206,632,l),
(211,604,o),
(201,590,o),
(190,590,cs),
(170,590,o),
(184,632,o),
(145,632,cs),
(109,632,o),
(75,596,o),
(75,548,c),
(124,548,l),
(118,575,o),
(131,589,o),
(144,589,cs),
(166,589,o),
(150,547,o),
(189,547,cs)
);
}
);
width = 329;
},
{
anchors = (
{
name = _top;
pos = (202,500);
},
{
name = top;
pos = (202,711);
}
);
layerId = m01;
shapes = (
{
closed = 1;
nodes = (
(311,557,o),
(364,626,o),
(364,710,c),
(276,710,l),
(286,659,o),
(268,635,o),
(248,635,cs),
(212,635,o),
(237,711,o),
(167,711,cs),
(102,711,o),
(40,645,o),
(40,558,c),
(128,558,l),
(118,607,o),
(141,633,o),
(164,633,cs),
(204,633,o),
(176,557,o),
(245,557,cs)
);
}
);
width = 404;
}
);
metricLeft = period;
metricRight = period;
unicode = 771;
},
{
color = 2;
glyphname = macroncomb;
lastChange = "2023-12-08 19:33:22 +0000";
layers = (
{
anchors = (
{
name = _top;
pos = (203,480);
},
{
name = top;
pos = (203,606);
}
);
layerId = "60D037D9-62E9-4843-B070-F1594CB0B0D1";
shapes = (
{
closed = 1;
nodes = (
(160,571,o),
(246,571,o),
(331,567,c),
(331,606,l),
(246,602,o),
(160,602,o),
(75,606,c),
(75,567,l)
);
}
);
width = 406;
},
{
anchors = (
{
name = _top;
pos = (185,500);
},
{
name = top;
pos = (185,700);
}
);
layerId = m01;
shapes = (
{
closed = 1;
nodes = (
(136,603,o),
(233,603,o),
(329,597,c),
(329,700,l),
(233,694,o),
(136,694,o),
(40,700,c),
(40,597,l)
);
}
);
width = 369;
}
);
metricLeft = period;
metricRight = period;
unicode = 772;
},
{
color = 2;
glyphname = hookabovecomb;
lastChange = "2023-12-08 19:33:22 +0000";
layers = (
{
anchors = (
{
name = _top;
pos = (131,480);
},
{
name = top;
pos = (131,678);
}
);
layerId = "60D037D9-62E9-4843-B070-F1594CB0B0D1";
shapes = (
{
closed = 1;
nodes = (
(148,525,o),
(187,556,o),
(187,604,cs),
(187,651,o),
(150,678,o),
(82,678,c),
(75,631,l),
(132,635,o),
(162,626,o),
(162,594,cs),
(162,563,o),
(135,540,o),
(86,535,c),
(92,525,l)
);
}
);
width = 262;
},
{
anchors = (
{
name = _top;
pos = (107,500);
},
{
name = top;
pos = (107,712);
}
);
layerId = m01;
shapes = (
{
closed = 1;
nodes = (
(127,535,o),
(173,573,o),
(173,630,cs),
(173,686,o),
(128,718,o),
(47,718,c),
(40,633,l),
(80,638,o),
(103,629,o),
(103,609,cs),
(103,590,o),
(82,564,o),
(52,547,c),
(59,535,l)
);
}
);
width = 213;
}
);
metricLeft = period;
metricRight = period;
unicode = 777;
},
{
color = 2;
glyphname = commaturnedabovecomb;
lastChange = "2023-12-08 19:33:22 +0000";
layers = (
{
anchors = (
{
name = _top;
pos = (110,480);
},
{
name = top;
pos = (110,687);
}
);
layerId = "60D037D9-62E9-4843-B070-F1594CB0B0D1";
shapes = (
{
closed = 1;
nodes = (
(137,536,o),
(145,555,o),
(145,576,cs),
(145,603,o),
(134,614,o),
(114,618,cs),
(103,620,o),
(95,625,o),
(95,638,cs),
(95,656,o),
(112,672,o),
(145,672,c),
(145,687,l),
(91,686,o),
(77,641,o),
(75,606,cs),
(73,550,o),
(88,536,o),
(111,536,cs)
);
}
);
width = 220;
},
{
anchors = (
{
name = _top;
pos = (98,500);
},
{
name = top;
pos = (98,720);
}
);
layerId = m01;
shapes = (
{
closed = 1;
nodes = (
(139,558,o),
(156,573,o),
(156,599,cs),
(156,628,o),
(142,641,o),
(108,641,cs),
(82,641,o),
(72,643,o),
(72,650,cs),
(72,669,o),
(137,668,o),
(156,663,c),
(156,720,l),
(76,720,o),
(41,685,o),
(40,632,cs),
(38,586,o),
(55,558,o),
(102,558,cs)
);
}
);
width = 196;
}
);
metricLeft = period;
metricRight = period;
unicode = 786;
},
{
color = 2;
glyphname = horncomb;
lastChange = "2023-12-08 19:33:22 +0000";
layers = (
{
anchors = (
{
name = _topright;
pos = (221,498);
},
{
name = top;
pos = (375,628);
}
);
layerId = "60D037D9-62E9-4843-B070-F1594CB0B0D1";
shapes = (
{
closed = 1;
nodes = (
(299,498,o),
(355,536,o),
(355,628,c),
(319,628,l),
(319,545,o),
(285,513,o),
(215,513,c),
(221,498,l)
);
}
);
width = 300;
},
{
anchors = (
{
name = _topright;
pos = (181,498);
},
{
name = top;
pos = (375,636);
}
);
layerId = m01;
shapes = (
{
closed = 1;
nodes = (
(282,498,o),
(355,538,o),
(355,636,c),
(238,636,l),
(238,582,o),
(206,560,o),
(140,560,c),
(181,498,l)
);
}
);
width = 300;
}
);
unicode = 795;
},
{
color = 2;
glyphname = dotbelowcomb;
lastChange = "2023-12-08 19:33:22 +0000";
layers = (
{
anchors = (
{
name = _bottom;
pos = (111,0);
},
{
name = bottom;
pos = (111,-152);
}
);
layerId = "60D037D9-62E9-4843-B070-F1594CB0B0D1";
shapes = (
{
closed = 1;
nodes = (
(130,-152,o),
(146,-137,o),
(146,-116,cs),
(146,-97,o),
(130,-81,o),
(111,-81,cs),
(91,-81,o),
(75,-97,o),
(75,-116,cs),
(75,-137,o),
(91,-152,o),
(111,-152,cs)
);
}
);
width = 221;
},
{
anchors = (
{
name = _bottom;
pos = (117,0);
},
{
name = bottom;
pos = (117,-212);
}
);
guides = (
{
pos = (18,-788);
}
);
layerId = m01;
shapes = (
{
closed = 1;
nodes = (
(159,-212,o),
(193,-178,o),
(193,-135,cs),
(193,-93,o),
(159,-59,o),
(117,-59,cs),
(74,-59,o),
(40,-93,o),
(40,-135,cs),
(40,-178,o),
(74,-212,o),
(117,-212,cs)
);
}
);
width = 233;
}
);
metricLeft = period;
metricRight = period;
unicode = 803;
},
{
color = 2;
glyphname = commaaccentcomb;
lastChange = "2023-12-08 19:33:22 +0000";
layers = (
{
anchors = (
{
name = _bottom;
pos = (110,0);
},
{
name = bottom;
pos = (110,-215);
}
);
layerId = "60D037D9-62E9-4843-B070-F1594CB0B0D1";
shapes = (
{
closed = 1;
nodes = (
(129,-214,o),
(143,-169,o),
(145,-134,cs),
(147,-78,o),
(132,-64,o),
(109,-64,cs),
(83,-64,o),
(75,-83,o),
(75,-104,cs),
(75,-131,o),
(86,-142,o),
(106,-146,cs),
(117,-148,o),
(125,-153,o),
(125,-166,cs),
(125,-184,o),
(108,-200,o),
(75,-200,c),
(75,-215,l)
);
}
);
width = 220;
},
{
anchors = (
{
name = _bottom;
pos = (98,0);
},
{
name = bottom;
pos = (98,-214);
}
);
layerId = m01;
shapes = (
{
closed = 1;
nodes = (
(120,-214,o),
(155,-179,o),
(156,-126,cs),
(158,-80,o),
(141,-52,o),
(94,-52,cs),
(57,-52,o),
(40,-67,o),
(40,-93,cs),
(40,-122,o),
(54,-135,o),
(88,-135,cs),
(114,-135,o),
(124,-137,o),
(124,-144,cs),
(124,-163,o),
(59,-162,o),
(40,-157,c),
(40,-214,l)
);
}
);
width = 196;
}
);
metricLeft = period;
metricRight = period;
unicode = 806;
},
{
color = 2;
glyphname = ogonekcomb;
lastChange = "2023-12-08 19:33:22 +0000";
layers = (
{
anchors = (
{
name = _ogonek;
pos = (205,0);
}
);
layerId = "60D037D9-62E9-4843-B070-F1594CB0B0D1";
shapes = (
{
closed = 1;
nodes = (
(185,-116,l),
(143,-116,o),
(122,-105,o),
(122,-88,cs),
(122,-62,o),
(141,-39,o),
(205,0,c),
(179,12,l),
(103,-32,o),
(75,-58,o),
(75,-90,cs),
(75,-135,o),
(109,-159,o),
(185,-159,c)
);
}
);
width = 280;
},
{
anchors = (
{
name = _ogonek;
pos = (200,0);
}
);
layerId = m01;
shapes = (
{
closed = 1;
nodes = (
(200,-136,l),
(151,-136,o),
(127,-118,o),
(127,-88,cs),
(127,-62,o),
(144,-39,o),
(200,0,c),
(160,30,l),
(55,-32,o),
(40,-78,o),
(40,-120,cs),
(40,-179,o),
(89,-210,o),
(200,-210,c)
);
}
);
width = 240;
}
);
metricLeft = period;
metricRight = period;
unicode = 808;
},
{
color = 2;
glyphname = longstrokecomb;
lastChange = "2023-12-08 19:57:45 +0000";
layers = (
{
anchors = (
{
name = _center;
pos = (375,276);
}
);
layerId = "60D037D9-62E9-4843-B070-F1594CB0B0D1";
shapes = (
{
closed = 1;
nodes = (
(279,266,o),
(480,266,o),
(674,260,c),
(674,291,l),
(473,288,o),
(273,288,o),
(75,291,c),
(75,260,l)
);
}
);
width = 749;
},
{
anchors = (
{
name = _center;
pos = (368,232);
}
);
layerId = m01;
shapes = (
{
closed = 1;
nodes = (
(263,218,o),
(481,216,o),
(695,206,c),
(695,258,l),
(474,254,o),
(256,254,o),
(40,258,c),
(40,206,l)
);
}
);
width = 735;
}
);
metricLeft = period;
metricRight = period;
},
